<?xml version="1.0" standalone="no"?>
<!DOCTYPE svg PUBLIC "-//W3C//DTD SVG 1.1//EN" "http://www.w3.org/Graphics/SVG/1.1/DTD/svg11.dtd" >
<svg>
<metadata>
Created by FontForge 20100429 at Sun Nov  1 11:11:46 2015
 By fontface
</metadata>
<defs>
<font id="MyKXFonts" horiz-adv-x="1000" >
  <font-face 
    font-family="MyKXFonts"
    font-weight="400"
    font-stretch="normal"
    units-per-em="1000"
    panose-1="0 0 0 0 0 0 0 0 0 0"
    ascent="750"
    descent="-250"
    x-height="542"
    cap-height="768"
    bbox="-97 -203 1419 1719"
    underline-thickness="50"
    underline-position="-50"
    unicode-range="U+0020-21248"
  />
<missing-glyph horiz-adv-x="500" 
 />
    <glyph glyph-name=".notdef" horiz-adv-x="500" 
 />
    <glyph glyph-name="cid15922.001" unicode="&#x79cb;" 
d="M263 312q-2 1 -4.5 7.5t-3.5 6.5q-4 0 -10.5 -7t-13.5 -16t-13 -18.5l-9 -14.5q1 -4 -1.5 -7.5t-6.5 -7t-7 -6.5t-3 -7q-1 -5 -4.5 -13t-9 -16t-12 -15t-12.5 -10l-16 -30q-3 -2 -11 -9.5t-16 -16.5t-16 -17l-11 -11q-5 -5 -9 -12.5l-7.5 -14t-8 -11t-11.5 -4.5t-8 2
t-1 7q1 15 11.5 24.5t18.5 20.5q6 11 12.5 20.5t11.5 21.5q0 1 2 5.5t4 10t4 9.5t2 5q9 17 19.5 34l19.5 32q3 3 8.5 12.5t11.5 21t10 22t4 16.5q5 8 8.5 24.5t5.5 23.5q12 11 14 21.5t4 22.5q3 9 7.5 16t4.5 16q0 10 -9 13t-21 3q-6 0 -9 -1.5t-8 -3.5t-14 -3.5t-26 -1.5
q-13 -4 -23.5 -8t-24.5 -4q-9 0 -15 4.5t-11 11.5l-10 14t-12 12v4q5 1 15 2.5t15 3.5q14 2 28 -1t29 -3q2 0 9 3t9 3q14 0 29 2t21 2h22q3 0 4 -4.5t1.5 -9.5t2 -9.5t4.5 -4.5t6 3q2 1 4 3q-3 11 5.5 17.5t18.5 10.5q3 39 2.5 80t-0.5 91q0 1 -0.5 2.5t-0.5 3.5q-1 2 -1 3
q-8 2 -12 -3.5t-12 -5.5q-5 0 -9 1.5t-9 1.5t-6 -3.5t-6 -5.5q-14 0 -25 -4t-21.5 -9.5t-20.5 -9.5t-21 -4q-6 0 -6 6q0 9 2.5 12.5t9.5 5.5q27 2 43.5 11.5t26.5 12.5q6 -2 10.5 2t9.5 10q1 1 7.5 4l14 6.5l13.5 6.5t7 4q8 5 17.5 14t24.5 13h6t9.5 1t8.5 3t4 5q0 9 -5 18
t-5 18q0 7 3.5 9.5t8.5 2.5t11.5 -4t12.5 -8.5l11.5 -9t10.5 -5.5q10 3 22 -4.5t22.5 -17.5t18 -19t7.5 -10q0 -5 -4 -7.5t-9 -4.5t-10 -2.5t-7 -0.5q-9 0 -13 -1.5t-8.5 -3t-12 -3t-22.5 -1.5q-11 -10 -21.5 -16.5t-10.5 -22.5q3 -6 9 -9.5l12 -7t10.5 -7t4.5 -9.5
q0 -7 -1 -12.5t-15 -14.5q1 0 -2 -3.5t-6.5 -10t-6.5 -17t-3 -23.5q0 -26 11 -34t35 -8q9 0 19.5 1.5t16.5 10.5q8 5 13 13.5t13 8.5t10 7t12 7q4 0 8.5 -5.5t8 -13t5.5 -15.5t2 -12t-5 -6t-12.5 -3.5t-16.5 -2t-16 -0.5q-8 0 -16 -4t-20 -4q-6 -4 -16.5 -4t-21.5 -1
t-20 -4.5t-12 -14.5q0 -14 -0.5 -24.5t-0.5 -18.5t1.5 -16t5.5 -17q1 -10 -1.5 -14t-2.5 -8t4 -8v-184q4 -4 4 -9q0 -3 -1 -6.5t-1 -5.5t2 -13.5t2 -13.5q0 -7 -1 -19l-2 -24t-2 -22t-1 -13q0 -2 1 -10.5t1 -10.5q1 -13 0.5 -19.5t-1 -11t-1 -8.5t-0.5 -12q-3 -2 -7 -8
l-8.5 -13t-11 -12.5t-13.5 -5.5q-5 0 -9.5 5.5t-8.5 12.5t-7 14.5l-5 12.5v322zM694 324q-2 3 -2.5 7t-1.5 8t-3 6.5t-8 2.5t-9.5 -5.5t-5.5 -12.5q-3 -8 -3 -18l-12 -6q5 -5 5.5 -6t0.5 -6q0 -12 -5.5 -24.5t-12.5 -21.5q0 -2 -7.5 -7t-7.5 -7q0 -5 -5 -13.5t-12 -19
t-15 -20.5t-13 -17q-8 -9 -12 -17t-16 -19q-3 -2 -12 -8.5t-18 -15.5q0 -7 -2.5 -11t-5.5 -7l-6 -6t-4 -6q0 -5 -10.5 -9.5t-15.5 -11.5q-8 -5 -17.5 -14.5l-19 -19t-19 -16.5t-16.5 -7q-9 0 -12 3q0 13 11 17.5t25 15.5q6 -2 8 7.5t10 13.5l14 3.5t6 11.5q8 6 12.5 12
t7.5 12l6 12t8 12q11 14 22.5 27t25.5 25q5 23 12.5 42.5t19.5 41.5q5 6 4.5 11t1.5 13q11 32 20 62.5t10 69.5h10q1 2 -0.5 5t-2.5 7q0 14 3 17.5t3 10.5q0 2 -1.5 2.5t-1.5 3.5q0 2 1.5 9.5t3.5 15.5t4 14.5t3 8.5v32l3 4q-5 9 -5.5 21t-0.5 23q0 14 4.5 27.5t4.5 27.5
q0 16 -1.5 30t-1.5 30q0 6 3 9q0 2 -3 13.5t-3 13.5q1 12 -7 18.5t-8 17.5q0 9 7 12.5t16 5t18 1.5t13 2q10 1 22.5 -2t22.5 -9t17 -13.5t7 -14.5l-3 -3q0 -7 4.5 -7t4.5 -5q-2 0 -5.5 -0.5t-3.5 -2.5q0 -5 3 -9q1 -6 -2 -10t-7.5 -7t-9 -5.5t-5.5 -4.5l-6.5 -24.5
t-2.5 -26.5q0 -2 -3 -9t-3 -9v-34q0 -20 -6 -28t-6 -16q-2 -4 0.5 -5t2.5 -5q0 -3 -0.5 -8.5t-1.5 -10.5q-1 -6 -1 -13l-6 -6q-1 -7 -2 -13q-1 -5 -1 -11v-10v-12q0 -8 -2 -15t-10 -9q4 -2 5.5 -7.5t2.5 -11t3.5 -9.5t9.5 -4q21 0 41.5 16t33.5 32q2 7 3 11t9 15
q-3 1 -1.5 4t4.5 7t6 8.5t3 8.5q6 14 12.5 31t8.5 31l-6 6q-2 13 6.5 17.5t17.5 4.5q11 0 20 -11.5t20 -18.5q1 -5 4.5 -11.5t8 -13l8 -11.5t3.5 -6q0 -18 -8.5 -24.5t-25.5 -17.5h-9q-2 -3 -12 -9.5t-12 -8.5q-7 -5 -14 -11t-16 -11t-19.5 -7.5t-19.5 -10.5
q-5 -7 -13 -11.5l-15.5 -8.5t-13.5 -10t-9 -16q0 -12 -3 -26t-3 -16q0 1 2.5 -3.5t5.5 -11.5t5 -15t2 -14q2 -9 7.5 -17t10.5 -17q7 -11 12 -20.5t12 -21.5q5 -8 16 -19.5t11 -22.5q7 1 10 -2t5 -6.5t3.5 -6.5t5.5 -3q14 -16 30 -30.5t37 -23.5v-9q7 0 14 -4.5l16 -10.5
q-2 -1 1 -3t8.5 -4.5t11 -5.5t9.5 -5q2 0 7 -7.5t7 -7.5q5 -5 8.5 -3.5t3.5 -5.5t-5 -10t-12 -4.5t-14 -2t-11 -1.5q2 0 -2.5 -1.5t-11.5 -3t-15.5 -3t-14.5 -1.5q-21 0 -34 -6t-21 -6q-11 -2 -17.5 1.5t-10 9.5t-6.5 13t-8 12q-15 2 -24 27t-21 54q-22 33 -32.5 77
t-10.5 89q0 12 0.5 24t0.5 24zM487 354q0 14 1.5 21.5t4 12.5t6 9t6.5 11q-2 14 1 15.5t7 6.5q-3 14 4.5 26.5t7.5 27.5q0 3 8 10.5t8 15.5q0 9 -1 17.5t-1 16.5q0 10 3 19.5t6 16.5t5 11t0 4v6q0 7 6 9q5 -7 4 -14t2 -16q3 -8 5.5 -19.5t2.5 -22.5q0 -9 -3 -17t-3 -17
q0 -5 0.5 -8.5t3.5 -5.5q0 -20 -0.5 -39.5t-5.5 -36.5q-2 -5 0 -9t2 -9q0 -9 -6 -18q2 -16 -5.5 -26t-17.5 -16t-19.5 -8t-11.5 -2q-9 0 -14.5 10t-5.5 18zM353 396q0 5 2.5 5.5t7.5 0.5q6 0 8 -6.5t10 -11.5q11 -5 15 -7t8.5 -5.5t13.5 -12.5l29 -29q0 -6 3.5 -12t8 -12
t8.5 -12t4 -12q0 -14 -2 -19t-6 -7t-9.5 -4.5t-12.5 -11.5q0 -3 -7 -5t-7 -7q-11 0 -18.5 6t-7.5 8q0 3 1 5t1 6v5q-6 8 -8 16t-2 20q-2 -2 -2.5 5t-1 16.5t-2.5 18t-6 10.5q0 8 -4.5 14t-9.5 12t-9.5 12t-4.5 14z" />
    <glyph glyph-name="cid19971" unicode="&#x8d77;" 
d="M216 294q0 12 -3 19.5t-3 16.5q0 17 9.5 20.5t23.5 3.5q6 0 15 -3.5t17.5 -8.5t15 -11.5t6.5 -12.5q0 -27 -4.5 -59.5t-13.5 -54.5v-4q4 -13 6 -26.5t8.5 -25t19.5 -19t38 -7.5q4 9 5.5 21.5t2.5 25.5t1 24.5v18.5q0 14 -1.5 30t-1.5 34q0 2 -1.5 9t-1.5 9
q-3 14 1.5 33.5t4.5 36.5q-2 8 -2 18t-0.5 19t-2 16t-7.5 9q-25 0 -47 -1.5t-43 -6.5q-11 -3 -22.5 -6.5t-22.5 -5.5q-8 0 -14.5 -0.5t-12.5 -3.5q-8 -2 -12.5 -0.5t-7 4t-4 4.5t-3.5 2h-3l-24 24q-3 2 -3.5 5.5t-0.5 8.5q0 3 4 7.5t9 4.5h63l6 4v-6q16 2 31 2.5t23 5.5
q12 2 21 4t16.5 3.5t14.5 2t17 0.5l4 27t2 27q0 11 -4.5 24.5t-13.5 20.5q-31 0 -60.5 -4.5t-59.5 -4.5q-18 0 -23.5 11l-12.5 25q-5 7 -7 10.5t-2 10.5q0 5 2 8.5t7 3.5q7 0 11.5 -3t9.5 -3q6 -2 17 0.5t19 2.5q5 0 10.5 -0.5t7.5 -5.5q22 -2 40 -1q15 1 28 5t13 15v8
q2 3 2 14v24t0.5 22.5t3.5 9.5q0 5 -2.5 14t-6.5 18t-9.5 16t-11.5 8q-8 0 -19 3t-11 9q-5 4 5 10.5t24 12.5t27.5 11t15.5 6q26 0 42.5 -8.5t35.5 -25.5q4 -2 4 -6q-2 -10 -7.5 -19.5t-8.5 -18.5v-17.5t-1 -25.5t-2 -23.5t-3 -11.5v-7.5t1.5 -16t4.5 -15.5t10 -7q11 0 16 4
l14 11q11 5 15.5 10l7.5 8.5t7 6t14 2.5q7 -3 15 -9t15 -13.5t11.5 -14.5t4.5 -11q0 -11 -5.5 -16.5t-12.5 -13.5h-33.5h-19t-10 0.5t-7.5 2.5h-2q-2 0 -7 -1t-12 -3q-8 -2 -17 -5l-6 -6v-36q2 -2 4 -7.5t2 -7.5t-2 -10.5t-2 -10.5q3 -6 4.5 -10.5t4 -7.5t6.5 -4.5t13 -1.5
q20 0 34 9t28 9q9 0 14.5 -8t13.5 -13q6 -7 15 -10.5t9 -19.5q0 -9 -13 -10.5t-21 -1.5q-6 0 -13 1t-13 1q1 0 -6.5 -0.5t-16.5 -1.5t-17 -2.5t-8 -3.5l-6 2h-15t-7 -8q0 -10 1.5 -14.5t4 -6.5t6.5 -3t10 -4q0 -32 -6 -54t-6 -36q0 -12 3.5 -23t10.5 -11q10 0 24 6.5
t22 13.5q0 3 4 9t9.5 12t11.5 10.5t10 4.5q0 -1 6 -6.5t13 -13.5t13 -17.5t5 -18.5q-25 -12 -40 -14t-32 -6q-12 -3 -23 -8l-23 -10q-6 -3 -10 -3.5t-4 -12.5q0 -9 1 -18t1 -18q0 -18 -1 -21t-1 -11q0 -2 0.5 -6.5t0.5 -9.5t0.5 -9t0.5 -5q0 -8 -0.5 -14t-0.5 -12
q0 -17 5 -26t12.5 -13t15.5 -4.5t14 -0.5q22 0 49.5 -7.5t60.5 -7.5q12 0 22 -4.5t21 -4.5q5 0 7.5 1.5t7.5 1.5q11 0 16 -2.5t11 -6.5q9 3 19.5 6t19.5 3q7 0 12 -3t12 -3q9 0 16.5 3t16.5 3q6 0 7.5 -0.5t4.5 -2.5q16 3 27.5 4.5t14.5 1.5l3 -3h3q2 0 13.5 4.5t13.5 4.5h6
q2 0 10.5 -1.5t10.5 -1.5l10 3q15 0 25.5 -4t10.5 -10q0 -3 -6 -9t-13.5 -12.5l-13.5 -12t-7 -6.5h-6q-5 -1 -9.5 -9.5l-9.5 -18.5t-12 -18t-17 -8q-9 0 -18.5 3t-20.5 3q-5 -3 -18.5 -3h-27.5t-24.5 -0.5t-10.5 -2.5q-3 0 -11.5 1t-20 2t-24.5 2t-25 1q-18 0 -28.5 -0.5
t-16 -1t-8.5 -1t-7 -0.5q-3 0 -12.5 3t-11.5 3l-29 4t-29 2q-5 0 -8 -2t-10 -1q-2 0 -8.5 3t-9.5 3q0 -2 -11.5 5t-20.5 7q-2 -1 -5 1.5t-7 6.5l-8.5 8.5l-7.5 7.5q-1 1 -5 3t-9.5 4.5l-10 4.5t-5.5 3q-1 0 -9 6.5t-17.5 16t-19 20.5t-14.5 20q-3 7 -6 16t-7 17t-11 13.5
t-18 5.5q-6 -5 -12 -13l-12 -16.5t-15 -22.5q1 -5 -2 -11t-7.5 -12t-8 -12.5t-3.5 -12.5q0 -3 -11.5 -12.5t-18.5 -17.5q-4 -4 -14 -15t-22.5 -22.5t-25.5 -20.5t-23 -9v19q0 7 3.5 7t8.5 5q15 11 17.5 19.5t10.5 22.5q5 8 12.5 14t11.5 19q0 2 7.5 9t7.5 9q8 11 13.5 23.5
t10.5 26.5l10.5 30.5t13.5 36.5q-2 11 3.5 41.5t5.5 78.5v10zM595 180q0 4 -1 14.5l-2 21.5l-2 21t-1 15q-1 5 2.5 9.5t3.5 14.5q0 20 -1.5 34.5t-3.5 26.5t-3.5 23t-1.5 24q0 5 2 8.5t2 9.5q0 17 -5 49.5t-5 77.5q0 2 2 7.5t2 7.5v36l-4 6q-2 4 -2 16t0.5 24.5t-0.5 24
t-4 14.5q-2 15 7.5 16.5t20.5 1.5q8 0 14.5 -4t12.5 -8.5t12.5 -8t14.5 -3.5q18 0 33 -0.5t29 1.5t27.5 8.5t27.5 20.5q0 3 4 8.5t11 10t14 8t13 3.5q2 0 7.5 -2t7.5 -4q2 -7 7.5 -10.5t11 -6.5t10 -7.5t4.5 -11.5t-3 -12l-6 -10t-5 -11.5t-1 -15.5q-10 -13 -11 -33t-1 -36
q0 -14 1 -31.5t1.5 -34l1 -31.5t-0.5 -24l-12 -30q-8 -3 -14.5 -8l-13 -10t-14.5 -8.5t-18 -3.5q-16 0 -20.5 8.5t-6 18.5t-5 18.5t-16.5 8.5q-9 0 -14.5 -4t-12.5 -4l-9 2q-5 0 -12 -1t-13.5 -3.5t-11.5 -7.5t-5 -12v-5q0 -5 3 -9q0 -2 -0.5 -7t-2.5 -9q0 -10 4.5 -21.5
t4.5 -22.5v-15t3 -9q-1 -9 0 -13t3.5 -6l4.5 -3.5t4 -5.5q0 -18 8 -26t19.5 -10.5t24 -1t20.5 1.5q4 1 15 3.5t48 2.5q6 6 14 6h9q10 0 16.5 10t12 22l10.5 22t13 10q11 -18 13.5 -37.5t2.5 -38.5l12 -29t6 -29q0 -9 -6.5 -16t-15.5 -11.5t-18 -6.5t-15 -2h-3q-2 0 -13.5 2
t-13.5 2q-9 -2 -27 -7t-33 -5q-53 0 -84 0.5t-48 4.5t-24 12.5t-12 24.5zM637 475q2 -5 8 -7t13 -2q0 -2 12 0t21 2q14 0 32 1.5t25 17.5q2 8 3 13.5t3 10.5q0 20 2 39t-0.5 33.5t-12.5 23.5t-34 9q-9 0 -20.5 -3t-24.5 -3q-4 0 -7.5 -5.5t-7 -12.5l-6.5 -12.5t-6 -5.5
q-1 -11 1 -18.5t2 -14.5q0 -18 -1.5 -34t-1.5 -32zM790 194q0 -2 2 -4t4 -2h6.5t9 1t8 3t3.5 6q0 6 -5 7t-10 1t-11.5 -2t-6.5 -10z" />
    <glyph glyph-name="cid7346" unicode="&#x51ac;" 
d="M-6 131q0 10 6 16t14 9.5t16.5 6.5t13.5 7q1 1 7 5l13 8.5t12.5 8.5t7.5 6q16 4 24.5 11.5t19.5 14.5q11 10 21 17l20.5 14l22 15t24.5 20q8 8 24 16t30 30q23 15 42 34t30 35q28 20 56 45t49 54q-2 15 -8 28.5t-10 31.5q-3 0 -6 8t-7.5 17.5t-11.5 17.5t-17 8
q0 3 -4 0.5t-8.5 -7l-9.5 -9.5l-8 -8q-10 -7 -12.5 -11t-4 -6t-5 -3.5t-14.5 -3.5q-19 -23 -44 -40t-49 -35q-2 0 -10.5 -6.5t-10.5 -8.5l-30 -20t-32 -20.5t-30 -16t-23 -6.5q-2 0 -4 2t-2 7q5 11 12 16.5t18 7.5q2 2 7.5 6.5t11 9.5t11 9t7.5 5q5 5 12 7.5t12 7.5
q7 9 14 14t14 9t13 9t10 13l66 66q5 11 13.5 21t16.5 21q4 7 11 16t13 18.5t10.5 17.5t4.5 12q-1 7 2 12t7.5 9t8.5 8t4 9q-2 2 0 7t5 11l6 12.5t3 11.5q0 2 2 6l2 4q0 10 -2.5 15.5t-5.5 9.5l-6 8t-4 11q0 9 10.5 12.5t19.5 3.5q9 3 12.5 4t7 1.5t10 0.5h20.5q4 -2 11 -9
l15 -14.5l15 -14t11 -8.5q10 -7 16 -17t4 -27l-20 -42q0 -8 2 -12t10 -4q15 0 34 -3t22 -3q23 0 37 9.5t33 24.5q7 0 13.5 4t12.5 9t13 9t15 4q12 0 21 -9.5t15 -14.5l26 -20t14 -28q0 -14 -6.5 -22.5t-17.5 -13.5q-2 3 -8 1t-13.5 -6t-16 -8t-14.5 -5q-10 -12 -28 -27
l-36 -29l-31 -25t-13 -15q-2 -4 -8.5 -9t-13.5 -11t-12.5 -13t-5.5 -15q0 -11 11.5 -21.5t29 -21t37 -19.5l34.5 -16q8 -2 16 -4.5l14 -4.5l38 -17.5t38 -9.5l61.5 -14t61.5 -13l24 -6.5t27 -3.5q5 0 11 2t13 2t13.5 -0.5t13.5 -5.5q-3 -4 -10.5 -9t-15.5 -9l-14 -7t-5 -3
q-2 0 -12 -6t-12 -6q-7 -2 -11.5 -10t-24.5 -22q-2 -3 -8 -9t-13.5 -12t-16.5 -10.5t-16 -4.5q-2 0 -11.5 2t-20 4.5l-19 4.5t-9.5 3q-3 0 -8 8t-8 8q-2 1 -10.5 2.5t-19.5 4.5t-23 9t-21 16q-8 8 -16.5 13t-16.5 8t-16 6.5t-15 8.5q-12 9 -23 20t-23 20q0 -3 -12 9l-24 24
q-9 9 -19.5 22.5t-24.5 13.5q-17 0 -28.5 -12.5t-25.5 -23.5q-4 -1 -16 -11.5t-20 -18.5q-3 0 -13 -8t-15 -11q-11 -2 -15 -11.5t-12 -14.5q-5 -5 -10.5 -6t-10.5 -6q-6 0 -10.5 -9t-19.5 -9q-23 -26 -51 -42.5l-57 -33.5q-12 -7 -24.5 -18t-23.5 -12q-2 0 -8 -3.5t-13 -8
l-12 -7.5t-6 -1q-6 0 -12.5 -5.5l-13.5 -11.5t-13.5 -10.5t-12.5 -2.5q-5 1 -11.5 -3l-14.5 -9t-17 -9t-19 -4q-3 0 -4.5 0.5t-1.5 5.5zM465 -106q0 2 -4 12t-4 12q-1 9 2.5 13t3.5 17q0 7 -0.5 15t-3.5 15q0 1 -2 5.5t-5 9.5t-5 9.5t-2 5.5q-2 5 -3.5 10.5t-2.5 10.5
q2 9 8.5 9.5t11.5 5.5q12 7 21.5 14.5t20.5 12.5q1 0 6 1.5t11 3.5t10.5 4t6.5 3q6 2 13 13t17 11q17 11 30.5 24t33.5 21q4 2 12.5 8l17.5 12l17 11t13 5l2 -2q-5 -7 -14.5 -18.5t-9.5 -15.5q-14 -24 -30 -39t-28 -36q0 -7 -3 -11.5t-6.5 -9l-6.5 -8.5t-4 -10q0 -8 -5 -14
t-5 -13q-14 -15 -19 -33.5t-13 -35.5q-2 -3 -9 -11t-16.5 -17t-21.5 -16t-23 -7q-2 0 -5.5 0.5t-6.5 2.5zM463 324q0 2 6 2q3 0 13.5 -5.5l25 -13l30.5 -15.5l29 -14q13 -7 21 -12.5t12.5 -12.5t6.5 -16.5t2 -24.5q0 -2 -0.5 -7.5l-1 -11.5t-2 -11t-2.5 -6l-26 -18.5
t-16 -9.5t-13.5 -3.5t-18.5 -0.5q-9 0 -20 1.5t-14 12.5q-6 26 -5 49t-7 47q-6 12 -13 32t-7 38zM477 564q5 -5 6 -5.5t6 -0.5q16 -1 24 11.5t16 21.5q11 12 18.5 27.5t17.5 32.5q-1 12 -1 17t-9 7q-25 0 -42.5 -0.5t-30 -0.5t-21.5 -0.5t-16 -0.5q-1 -1 -4.5 -3.5l-8 -6
t-8 -7t-3.5 -5.5q0 -15 5.5 -24t14.5 -18q2 -2 7 -8.5l11 -14l11 -14t7 -8.5z" />
    <glyph glyph-name="cid18060" unicode="&#x843d;" 
d="M391 -96q-5 3 -8 14t-4 25.5t-1 30.5v28v4l7 8q-8 14 -6 23.5t-4 24.5l3 10q0 9 -1.5 19.5t-1.5 22.5v13.5t3 10.5l-3 9q-2 5 0.5 12.5t2.5 14.5q2 2 -1 4.5t-5 4.5l3 9q-1 5 0.5 13.5t-3.5 13.5q0 3 0.5 4.5t0.5 2.5q0 4 -4 5q-8 5 -11 5.5t-4 0.5q-10 0 -16 -6t-17 -6
q-5 0 -6 0.5t-3 5.5q0 -2 -2 -6q-1 -2 -1 -3h-9t-3 6q0 3 7 9l16.5 13.5l20.5 15.5t19 16l3 -3q5 2 4.5 6t1.5 6q7 9 16.5 13.5t17.5 10.5q9 14 24 25t20 15q12 8 21 16q8 6 14 12.5t7 9.5q0 5 -2.5 15.5t-6.5 21.5t-9.5 19t-11.5 8t-13.5 -3.5t-12.5 -6.5l-34 -32
q-11 0 -22 -13.5t-20 -20.5q-8 0 -13 4t-5 12q-2 6 7.5 11l13.5 7q1 17 13.5 31.5t19.5 28.5q-2 6 5.5 13.5l16 16.5t15.5 20t5 25q8 13 10 25t4 21t7 14.5t19 5.5q2 -3 8.5 -7.5t11.5 -4.5q-2 -3 0.5 -4.5t7 -3t9 -4t7.5 -9.5q0 -4 2.5 -7.5l5.5 -7.5q4 -4 8 -9h30l2 6
q2 19 0 35t-2 34q0 -1 0 3t0.5 9l1 10.5t0.5 7.5q2 7 -5 9.5t-13 2.5q-5 0 -7 -1t-5 -1q-15 0 -29.5 2t-14.5 18q5 11 12 11.5t18 0.5q2 0 8.5 3t9.5 3q9 0 16.5 0.5t13.5 5.5v82q-3 6 -4 15.5t-6 14.5l-11 9t-7 5q0 9 8.5 12.5t13.5 3.5q15 0 32 -5t32 -7q1 -7 9 -7
q2 0 4.5 0.5t4.5 0.5q10 -6 21 -8.5t11 -19.5q-2 -2 -5.5 -11.5t-6.5 -12.5q-7 -1 -8 -8q-14 3 -16 -6.5t-2 -15.5q2 -8 2 -16t1.5 -14t7.5 -10t21 -4q-1 0 3 1t10.5 2l13.5 2t13 1l6 2q2 0 6 -0.5t9 -0.5q15 0 20 3.5t6 9t1.5 10.5t5.5 8q7 9 9 15.5t11 6.5t13.5 -3.5
t10.5 -6.5l34 -32q8 0 13 -5t5 -13q0 -9 -7 -8t-15 -2q-5 -5 -9 -5.5t-15 -0.5l-2 6l-4 -6q-2 4 -14 4q-3 0 -9.5 -5t-8.5 -5q-4 -1 -9.5 -0.5t-11 1.5t-10 2t-5.5 1l-4 -6h-7q-9 0 -18.5 -2t-18.5 -2h-15t-9 4q-17 0 -28.5 -12.5t-11.5 -27.5l-2 -6q-2 -5 2 -11.5t4 -12.5
q-3 -2 -6.5 -10.5t-5.5 -10.5l-11 -12.5t-5 -14.5t8 -9q7 0 11.5 3.5t8.5 7l8 7t10 3.5h2q3 13 9.5 19l18.5 17q1 4 13.5 -6t30.5 -27q3 -2 11 -10.5t11 -10.5q4 -8 -2.5 -18t-18.5 -22t-28.5 -26t-32.5 -31q-17 -17 -29.5 -25t-34.5 -13q4 -4 4 -6q0 -3 -5 -6t-5 -12
q0 -11 4.5 -16t11.5 -7.5t15 -3.5t15 -3q4 -2 6 -4.5t6 -2.5l4 1q10 -6 20.5 -9t21 -5t20 -5t18.5 -9q3 -2 5.5 1t10.5 3q5 0 9 -3t9 -3q3 2 8.5 1t13 -2.5t16 -3t16.5 -1.5q15 -3 26.5 -1.5t27.5 -4.5l6 2h45q12 0 12 -8q0 -12 -5.5 -14.5t-12.5 -7.5q-16 -11 -21.5 -19.5
t-17.5 -16.5q-7 -12 -14 -16t-13.5 -5.5l-13 -3t-11.5 -8.5q-5 0 -8 6q0 -5 -6.5 -8.5t-9.5 -3.5q-12 0 -23 2t-25 10q-2 0 -7 -1.5t-7 -1.5q12 -7 11 -14.5t3 -12.5q2 -6 0 -12t-5.5 -12l-7 -11.5t-3.5 -9.5q0 -7 4 -13.5t4 -13.5t-3 -10.5t-3 -10.5q2 -22 2 -45.5t6 -41.5
q0 -11 -1.5 -16.5t-4 -9.5t-5.5 -6.5t-7 -7.5q-2 -12 -10 -22.5t-18.5 -19t-23 -13.5t-22.5 -5q-15 0 -20 9.5t-5.5 21.5t-0.5 22.5t-4 12.5q-5 3 -12.5 3.5t-27.5 0.5h-24.5t-42 -1.5t-41.5 -7t-22 -15.5q2 -15 -4.5 -29t-17 -24.5t-22 -16.5t-18.5 -6q-10 0 -12 4z
M291 676q-16 -16 -40 -16q-2 0 -4 0.5t-4 0.5q-10 -1 -15.5 -3.5t-9.5 -5t-8.5 -4.5t-11.5 -2q-2 -2 -3.5 1l-2.5 5l-12 -3q0 -1 0.5 -1t0.5 -2q0 -5 -8.5 -8t-20 -5.5t-23.5 -3.5t-19 -1q-6 0 -15.5 7.5t-18 18t-14.5 21.5t-6 17q-1 7 6 8q10 0 17.5 -3t16.5 -3h6
q0 -8 8 -8q0 9 7 13t17.5 5t23 0.5t22.5 -0.5q9 0 18 3t18 5q7 0 19 1l24.5 2t21.5 2t10 1l3 -2q6 5 7.5 14t7.5 12q-6 5 -6 13.5v16.5q-5 3 -7 9t-3 12t-2.5 11t-5.5 8q1 2 -1.5 3.5t-6 4t-7 7t-3.5 11.5q0 6 9 6h9q5 0 9 3t9 3q4 -2 15 -2q9 -11 15.5 -10.5t14.5 -1.5
q9 -5 18.5 -9.5t16.5 -10t11.5 -13t4.5 -19.5q0 -2 -2 -9t-6 -5v-11q0 -4 -0.5 -6.5t-3.5 -6.5q5 0 18 -3t18 -3t9 1q3 0 7 1q18 3 18 -14q0 -5 -0.5 -6t-3.5 -4q-6 0 -15 -7t-11 -5q-8 4 -14.5 -1.5t-9.5 -10.5l-6 4q0 -24 -5 -38.5t-5 -25.5q0 -12 -6 -21t-14.5 -16
t-16.5 -10.5t-11 -3.5q-9 0 -17 6t-8 17q0 3 0.5 6t0.5 7q-2 6 -5.5 19.5t-3.5 22.5q-5 0 -9 7.5t-6 7.5zM141 -82q0 26 -1 42.5t-4.5 28.5t-9.5 22.5t-16 24.5q-5 5 -11.5 7.5t-6.5 10.5q0 6 9 8t20 3t20.5 2.5t11.5 6.5q0 7 3.5 12.5t8 10.5l8.5 9.5t4 9.5v10
q0 9 5.5 15.5t9.5 29.5q0 2 6 9t6 9q1 13 3 24q2 9 4.5 17t5.5 8q1 0 1 -0.5t1 -0.5q0 7 5 19.5t10 19.5q8 6 8.5 12t3.5 13q0 2 4.5 11l11 21l13.5 25t13 23q3 7 7.5 20t10.5 26t13.5 22.5t16.5 9.5q0 -1 1 -3q2 -4 2 -5q2 -12 -4.5 -23t-10.5 -23q-6 -18 -10 -26
t-6.5 -12.5t-3.5 -9.5t-1 -18l-10 -18.5t-6.5 -14.5t-3.5 -15.5t-1 -20.5q-9 -23 -14.5 -35t-9 -21t-5 -18t-1.5 -25q0 -9 -2.5 -15t-5 -10.5l-4.5 -8t0 -8.5q0 -2 -2 -9.5t-4 -16t-4 -16t-2 -9.5q0 -14 -2 -29.5t-4 -16.5q0 -5 0.5 -9t0.5 -7q0 -7 -10 -16q0 -4 1 -5.5
t2 -4.5q0 -5 -0.5 -13.5t-5.5 -8.5q-1 0 -1 1t-2 1q2 -3 2 -5.5v-4.5q0 -12 -8 -18t-15 -18q-5 -5 -5.5 -10.5t-9.5 -13.5l-9 10q0 -7 -5 -8.5t-7 -1.5zM459 60l9.5 -15t12.5 -9q29 0 51 2.5l47 5.5q30 0 47 9t17 31q0 5 -0.5 7.5l-1.5 7.5q0 4 1 6q0 2 1 3v87q0 2 -7.5 4.5
t-12.5 4.5q-21 -2 -41.5 -2.5t-40.5 -0.5q-7 -5 -12 -5q-3 0 -5.5 1t-4.5 1q-25 0 -40.5 -9t-15.5 -30v-30.5v-31.5t-1 -25.5t-3 -11.5zM409 273q0 -10 2 -17.5t10 -9.5q2 0 7 -7.5t7 -7.5q3 0 11 -3.5t13 -5.5q11 -2 18.5 3.5t17.5 5.5q5 0 9 -1.5t9 -1.5q12 0 24.5 2
t23.5 4q23 0 43.5 5t36.5 13q1 7 4 9.5t6 3.5t5.5 2t2.5 6q0 1 -4 6.5t-10 12.5t-13 13.5t-13 9.5q-3 0 -14 6t-14 6q-11 8 -22.5 18t-25.5 10q-8 0 -19.5 -5.5t-23.5 -14t-24 -18t-19 -16.5q-4 -2 -12 -5t-16 -6.5t-14 -8t-6 -8.5zM102 321h-4q-2 0 -8 7t-13 17.5
t-13.5 21.5t-9.5 20q2 5 5.5 5.5t8.5 0.5q4 0 10.5 -3t13 -7.5l12.5 -9t10 -6.5q8 -3 11.5 -5.5t5.5 -5t3.5 -5t6.5 -6.5q7 -6 16 -7.5t14 -6.5l18 -15l13 -11.5t8 -7.5v-27q0 -1 -4.5 -11t-12.5 -21.5t-19 -21t-24 -9.5q-9 0 -14 4t-8 10t-4.5 13.5t-3.5 14.5q-3 9 -8 21
t-8 21q3 3 -1.5 11t-4.5 13zM201 453q2 5 -4 11t-8 11q1 7 -2.5 14.5t-8 15.5t-9 15t-4.5 12q0 1 -2 5t-4 8.5t-4 8.5t-2 5q-5 10 -13 19t-8 20q0 2 5 4t7 2q3 0 6.5 -2t10 -6.5t17.5 -13t29 -20.5q6 -3 18 -12t24 -20t21 -22t9 -18q0 -11 -2.5 -23t-9.5 -20q-2 -2 -9 -8.5
t-9 -9.5q-2 2 -3.5 0t-4 -5t-7.5 -6t-12 -3q-4 -2 -8 2t-7.5 9.5t-6 11.5t-2.5 9zM481 490q0 -14 6 -23t14.5 -14t17.5 -6.5t16 -1.5l7.5 6.5t17.5 16t20.5 20.5t16.5 20q-6 4 -16.5 5.5t-21 2t-18 1.5t-6.5 6q-6 -7 -14 -9t-15.5 -4.5t-14 -6t-10.5 -13.5zM351 508
q0 7 4.5 18.5t13.5 11.5q2 0 4 -0.5t2 -5.5q2 -10 -7 -22.5t-17 -19.5q-3 -8 -5 -11t-3.5 -4.5t-3 -3.5t-3.5 -6q-2 7 -0.5 14t4.5 13t7.5 10t9.5 3l-3 3h-3z" />
    <glyph glyph-name="space" unicode=" " horiz-adv-x="500" 
 />
    <glyph glyph-name="cid13321.001" unicode="&#x6de1;" 
d="M261 -60q2 2 10.5 8.5t10.5 9.5q1 1 6.5 3t11.5 5l11.5 5.5t6.5 4.5q6 2 18 12.5t24 17.5q14 0 18.5 9.5t6.5 10.5q5 8 12 14t12 14q0 1 2 6t5 10.5t6.5 11t6.5 8.5q13 13 20 25.5t22 28.5q3 5 8 8t8 10q0 7 2 18t5 21t6 18t5 9q0 28 5 43.5t5 31.5v9t-2 9q5 15 5 26
t5 22v26v16t-1 9.5t-3 8.5q-2 7 1 10.5t8.5 5t11.5 2t9 0.5l6 4q11 -2 21.5 -9.5t19.5 -15.5l16.5 -14.5t12.5 -6.5q0 -2 -4.5 -5.5t-9.5 -11t-9.5 -20t-4.5 -31.5q0 -9 -6.5 -17.5t-5.5 -12.5q1 -5 4 -13.5t7.5 -17t11 -15t15.5 -6.5t21 8.5t23 20.5t20.5 25t13.5 22
q3 7 6.5 16t8 17.5t8.5 14.5t9 6q6 0 11 -5.5t9.5 -12t9 -12t10.5 -4.5q-2 -7 3.5 -11t13 -7.5t14.5 -8t7 -11.5q-6 -10 -11 -10t-13 -2q-2 0 -11.5 -6t-12.5 -6q-2 -2 -7.5 -4t-11.5 -4.5l-11 -4.5t-6 -3q-12 0 -22 -5t-19.5 -12l-19 -14t-19.5 -11q-4 -3 -4 -12
q0 -19 17 -35l35 -34q-1 1 2.5 -2l9 -7.5t11.5 -10.5t9 -10q8 -7 13.5 -7t16.5 -8q9 -8 14 -11t8 -4.5t5.5 -3.5t6.5 -6q9 -6 19 -7.5t19 -4.5q8 -6 17 -11t32 -3q3 0 12 -2.5t18.5 -5.5t16.5 -6t7 -4q0 -2 -9.5 -7t-20.5 -5q-14 -9 -28.5 -13.5t-28.5 -10.5
q-9 -5 -18.5 -11.5t-21.5 -6.5l-2 2l-6 -2q-12 0 -17.5 3t-8.5 6t-5.5 6t-8.5 3l-42 42l-2 6l2 6q-14 0 -19 6.5t-11 17.5q-5 7 -9 11.5t-9 9.5q-12 12 -19.5 30t-16.5 30q-1 1 -4 6.5l-6.5 12l-7.5 13.5t-6 10q-2 1 -6 8.5l-8.5 16.5t-9 16t-6.5 7q-4 0 -9 -9t-10 -21.5
t-9.5 -25.5l-7.5 -22q0 -3 -2 -8.5l-4.5 -12t-5.5 -12.5t-6 -9q-6 -6 -8 -9.5t-8 -5.5q-5 -14 -9.5 -19t-8.5 -7t-7.5 -4.5t-6.5 -11.5q1 0 -3 -8t-10.5 -18t-15.5 -18t-19 -8l-4 4v-10q-15 -6 -27.5 -20t-23.5 -16q-11 -14 -21 -18.5t-24 -11.5q-2 -3 -10 -7l-17.5 -8.5
t-19 -7.5t-13.5 -3q-5 0 -18 -9t-30 -9q-3 -1 -9 -5t-13.5 -8.5t-16.5 -8t-18 -3.5v7q14 10 28.5 18.5t28.5 13.5q8 4 17 13.5t19 9.5q2 0 3 -0.5t3 -0.5zM369 219q0 4 0.5 12.5t1.5 17t2 15t2 6.5q0 2 -1.5 9t-1.5 12v12q0 8 -2 15t-10 7q-14 0 -25.5 -6.5t-22.5 -11.5
q-12 -1 -13 -6t-8 -6v12q12 8 24 15t24 15q2 0 11 9t19 9q26 20 47.5 44.5t42.5 53.5q6 21 12 31.5t11 16.5l9.5 11.5t7.5 16.5q6 17 7 29t1 23q0 1 1 5t2 9t2 9.5t1 6.5q0 39 5 74.5t5 57.5q1 4 0.5 12t-1.5 16t-2.5 15t-1.5 11q0 2 0.5 4.5t0.5 4.5h-2q0 6 -3 11t-6 9.5
t-6 10.5t-3 14q-3 14 8.5 20.5t23.5 6.5q10 0 20 -4t19.5 -9.5t18.5 -9.5t18 -4q2 0 8.5 -2.5t13.5 -5.5t12.5 -6t5.5 -4q0 -6 -5.5 -8.5t-12.5 -3.5t-13 -2t-7 -4q0 -2 -4 -6t-4 -6q-2 -3 -4 -11.5t-4 -18.5t-4.5 -18.5t-3.5 -11.5l-2 -9q3 -1 1.5 -6l-4.5 -14.5t-6 -23
t-3 -31.5q-8 -29 -16 -62.5t-26 -61.5q-6 -15 -10.5 -29t-10.5 -27.5t-15 -28t-24 -29.5l-49 -41.5t-45 -46.5q0 -2 1 -4l2 -4l33 -34q2 -1 6 -1q2 -1 5 -1h5q9 -2 15.5 6.5t14.5 13.5q2 -2 2 -4v-4q-2 -14 -3.5 -20t-4.5 -14q-3 -7 -2 -16t-8 -14q4 0 4 -7
q0 -15 -11.5 -31.5t-22.5 -27.5q-23 -1 -32.5 10t-9.5 32v6zM701 475q0 3 0.5 3.5t1.5 2.5l-2 4l-6 -4q-2 1 -6 5l-8.5 8.5t-9 8.5t-6.5 6q-2 1 -6.5 4t-9.5 6t-9 6t-5 4q-6 6 -17.5 15.5l-23 19t-19.5 17.5t-8 12q33 2 54.5 15.5t39.5 34.5q6 10 15.5 14.5t18.5 22.5
l15 19.5t12 20.5t8 24.5t3 31.5q18 2 26.5 -3.5t14 -13.5t11.5 -15.5t18 -9.5q0 -5 6.5 -8.5l14.5 -7.5t14.5 -9t6.5 -14q0 -3 -5 -6.5t-12 -6t-13.5 -4t-9.5 -1.5q-9 -8 -19.5 -12.5t-20.5 -8t-20 -8t-18 -11.5l-25.5 -11.5l-32.5 -15t-28 -14t-12 -9.5q0 -6 6 -10.5
t14.5 -8t16.5 -6t13 -3.5q1 0 7 -2t12 -5t11 -5t6 -2t6 -1.5t11 -3.5l10.5 -3.5t6.5 -1.5t11.5 -6t12.5 -6q8 -1 11.5 -3l7.5 -4.5t10 -4.5t19 -2l8 -3.5t17.5 -9.5t17.5 -14t8 -17q0 -11 -6 -22.5t-15 -19.5q2 2 -11 -7.5t-37 -24.5q-3 0 -14 7.5t-14 10.5q-1 5 -4.5 8
t-9.5 7.5t-13.5 11.5t-16.5 21q-2 2 -7 4t-10 3.5t-9 4t-4 6.5zM66 147q-1 11 5.5 13t14.5 2h12q3 0 11 3t11 3q20 0 36 7.5t24 25.5q0 17 9.5 37t9.5 37q0 16 7.5 35t12.5 35q2 15 2 26.5t10 27.5q0 25 3.5 40l8.5 36q0 10 4 17t11 7q0 -9 -1.5 -14l-3 -10.5t-3 -14
t-1.5 -25.5q0 -1 -1 -7.5t-2 -14.5t-2 -14.5t-1 -7.5q-2 -23 -2.5 -50t-0.5 -50l-6 -6v-36q0 -7 -1.5 -17.5l-3 -21.5t-3 -20.5t-1.5 -15.5q-2 -23 -1.5 -43.5t-4.5 -43.5q-2 -10 -4 -16.5t-2 -14.5q0 -6 1.5 -12.5t1.5 -11.5q0 -19 -1 -29.5t-5 -18.5t-12.5 -15.5
l-23.5 -20.5q-15 0 -22.5 7.5t-10 18.5t-2.5 23t-1 21q0 2 -3 8.5t-3 9.5q-9 31 -24.5 63.5t-41.5 47.5zM363 575q0 3 1 9t3 12.5t5 12.5t6 8l-3 2q-3 14 -3 41v77q4 0 8.5 -6t9.5 -13.5t11 -13.5t14 -6q2 -2 13.5 2.5t18.5 12.5q5 7 10 16t14 11q2 -6 -3.5 -15.5
t-8.5 -17.5q0 -3 -1.5 -12t-4 -18.5t-5.5 -18t-7 -11.5q-1 -20 -4.5 -42t-10.5 -40.5t-17 -31t-24 -12.5q-9 3 -13.5 9t-6.5 14t-2 16v15zM198 719l-15 36t-18 30q0 1 -2 5.5t-4 9.5t-4 9.5t-2 5.5q0 2 -4.5 9t-4.5 9q-4 6 6.5 7.5t17.5 1.5h9l53 -32t46 -37q0 -5 1.5 -19.5
t1.5 -19.5q-1 -14 -14 -28t-28 -14q-10 0 -15 4t-9 9.5l-7 9.5t-8 4zM68 611q12 0 19.5 -6.5t16.5 -11.5q17 -11 37.5 -22t29.5 -26q-2 -1 2 -2.5t8.5 -4t9 -7.5t4.5 -14q-2 -7 -5 -16t-7 -17t-8 -13.5t-7 -5.5q-2 0 -7 5q-3 2 -5 5q-7 5 -15 8.5t-13 9.5q-5 8 -7 20.5
t-7 21.5q-10 26 -21 40.5t-27 31.5z" />
    <glyph glyph-name="cid8919.001" unicode="&#x5982;" 
d="M597 30q0 20 0.5 35.5t3.5 36.5q-3 5 -3.5 7t-0.5 7q0 27 2 53t2 53q0 19 -0.5 31t-1.5 21.5t-1.5 18t-0.5 19.5v30.5t-0.5 48l-1 55.5t-1 52.5t-1.5 39t-2 15.5q-2 6 -2 20t-6 22q-3 2 -6 5q-6 6 -6 7q-2 10 2.5 16t12 9t16 4t13.5 1l50 -24q32 -2 62 4t60 6
q1 -1 4.5 1.5l7.5 5.5t8.5 7t7.5 6q10 8 20 15q8 6 15 12t9 9q12 0 23.5 -12t19.5 -18q6 -5 14 -10t15.5 -11t13 -13t5.5 -16q0 -8 -4 -13t-8.5 -9.5t-8 -9.5t-3.5 -12q0 -5 -0.5 -16t-1 -24t-1 -24.5t-0.5 -15.5l9 -112q0 -36 4.5 -70.5t4.5 -70.5q0 -14 -6.5 -34
t-17.5 -38.5t-25 -32t-29 -13.5q-19 3 -25 14t-8.5 23l-5 23t-13.5 16h-48q-6 0 -19.5 -1t-27 -3.5t-23.5 -7t-10 -12.5q0 -23 1 -44t1 -44q0 -21 -1.5 -35t-6 -24.5t-13.5 -20t-23 -22.5q-3 -2 -7 -7t-9 -5q-12 0 -18 9.5t-8 22.5t-2 25.5v18.5zM48 -28q0 9 10.5 11t15.5 5
q1 0 6 2t10 5t9 5t5 2q4 0 12 5t17 12l19 15t19 14q13 3 20.5 8t12 11.5t8.5 14t10 16.5q2 4 8.5 7.5t12.5 8.5t17 15t22 23t19 28t8 30q0 8 -3.5 17.5t-8.5 17t-10.5 12.5t-10.5 4q-6 -3 -18 -24l-39 -39q-2 -2 -6 -2.5t-6 -0.5q-8 0 -11.5 5t-5 11.5t-1.5 14.5v14
q0 16 6.5 28.5t11.5 28.5q0 24 9 40.5t9 28.5q2 25 8.5 49.5t6.5 49.5q0 16 -12 16q-10 0 -22.5 -2t-24.5 -4.5t-22 -5t-15 -4.5l-6 4q-8 -3 -13.5 -6.5t-14.5 -3.5q-11 0 -15.5 11.5t-10.5 18.5q-5 8 -13.5 15t-8.5 19q-1 1 0 3q0 3 4 3q40 0 68 3t61 3q5 0 11 -0.5
t11 -0.5q22 0 35 9q8 6 11.5 20.5t5.5 30l3.5 27.5t6.5 14q0 7 -0.5 12.5t-0.5 11.5t3.5 14t3.5 16q0 3 -0.5 10t-1 15t-1 15t-0.5 10q0 6 -4 9.5t-8.5 6.5l-8 5.5t-3.5 6.5q0 9 5 13.5t11.5 6t13.5 2t12 2.5q9 2 15.5 7t17.5 5q4 0 12.5 -6t18 -15l19 -18t16.5 -15
q1 -11 -2 -19.5t-9 -16.5t-13 -15.5t-12 -14.5q0 -1 -2.5 -7.5t-5 -15.5t-5 -19t-2.5 -18q-2 -12 -4 -22t-2 -22q0 -11 4.5 -18.5t28.5 -7.5q12 4 23.5 6.5t22 6.5t21 10t21.5 17q2 1 5.5 5l7.5 8.5l7.5 8.5t5.5 4q7 0 16 -9t18 -20t15.5 -20t8.5 -9q0 -5 -4.5 -12
l-9.5 -14.5t-9.5 -15.5t-4.5 -15l-14 -47l-34.5 -111.5t-41.5 -111.5q-1 -7 2.5 -13.5t8.5 -12t10.5 -10.5t8.5 -9q-1 -1 3 -5.5l10 -11t13.5 -13.5l13.5 -13q2 -2 7.5 -11t10.5 -18.5l9 -17t3 -7.5v-48q-3 -1 -6.5 -10t-8.5 -19t-12.5 -18.5t-18.5 -8.5q-14 5 -20 19
t-12 25t-14 29t-18 35t-22 29.5t-25 12.5q-5 0 -11.5 -5.5t-13.5 -13t-13.5 -15.5t-9.5 -12q1 -5 -4.5 -7t-10.5 -5q-2 0 -7.5 -7t-7.5 -7q-5 -7 -15 -10t-18 -6q-10 -18 -29 -29t-37 -19q-5 0 -17 -7t-28.5 -15t-36.5 -15t-39 -7q-6 0 -16 2.5t-10 11.5zM671 519
q0 -38 1.5 -77.5t4.5 -78.5q0 -54 1 -81t5.5 -37.5t14.5 -10.5h29h21.5t32 2.5t29.5 9.5t13 21q0 57 -3.5 111.5t-8.5 110.5q-1 9 -1 22t-1.5 25t-5 20.5t-10.5 8.5q-12 0 -40.5 -3t-67.5 -3q-5 -3 -7.5 -5t-4 -5.5t-2 -10.5t-0.5 -19zM285 297q4 -7 15 -13.5t22.5 -11.5
t20.5 -8t8 -3q9 -2 11 5.5t4 12.5q23 39 37.5 80t25.5 86q4 14 10 28.5t6 31.5q3 10 -5 12t-13 2q-23 0 -51.5 -5t-39.5 -13q-6 -3 -11 -19t-9.5 -37t-8.5 -44l-7 -41q-7 -16 -10 -30.5t-5 -32.5z" />
    <glyph glyph-name="cid8740.001" unicode="&#x58a8;" 
d="M78 -64q0 2 1.5 8.5t6.5 6.5h48l7 3h69q7 -5 12 -5.5t12 -0.5q5 0 9.5 0.5t11.5 1t16.5 1t25.5 0.5l12 6q6 0 15 1t17 2t13.5 2l5.5 1q11 1 21.5 -1t21.5 -2q7 0 17.5 0.5t20.5 3t17 7.5t7 13q0 2 -1 10.5t-1 10.5q-2 3 -1 9t3 12l3.5 10.5t0.5 4.5q-3 -2 -3.5 5.5t0 17
t-0.5 17.5t-6 8q-6 0 -11.5 -1.5t-14.5 -1.5h-14.5t-7.5 3q-23 0 -43.5 -2t-43.5 -4q-2 0 -9 -1.5t-9 -1.5q-11 -1 -20 4t-19 5q-18 0 -36 -6t-36 -6q-11 0 -17 7.5l-13 16.5q-3 5 0.5 8t8.5 5t11.5 3t9.5 2q2 -2 9.5 -2.5t17.5 -0.5t19 -1.5t14 -4.5h196l2 9l4 43
q0 5 -5 8.5t-7 3.5q-5 0 -10 -4l-11 -8.5t-12 -8t-13 -3.5h-5.5t-2.5 2q-2 6 -6 8.5l-8 5t-7.5 5.5t-3.5 9q0 24 -0.5 39.5t3.5 38.5l4 22t2 25q0 5 -6.5 12t-8.5 9q-18 2 -32 -5t-28 -7q-5 0 -10.5 2t-10.5 2q-9 0 -15 -4.5t-6 -13.5q0 -14 6.5 -25.5t8.5 -22.5
q-4 -5 1 -13.5t5 -16.5v-40q-11 0 -12.5 -7.5t-5.5 -15.5q0 1 -9.5 -7t-17.5 -8q-9 -5 -17 -12t-19 -7q-8 5 -17.5 16.5t-9.5 22.5q0 10 4 18.5t9.5 16t11.5 14.5t11 15l15 32q2 6 5.5 10t7 7.5t6 7.5t2.5 11q0 9 -6.5 15.5t-17.5 6.5q-2 0 -9 -2t-12 -2q-17 0 -31 -1.5
t-26.5 -3t-26 -2.5t-30.5 -1q-4 1 -9.5 5.5t-11 10.5t-9.5 12t-4 8q5 4 12 5t13 1h25q5 0 9 -0.5t7 -3.5h64q7 -2 12 -2h12q9 0 20 3t22 3q2 0 12.5 -3t17.5 -3q2 1 11.5 4t9.5 8h81q3 1 11.5 2t17.5 2.5t16.5 4t9.5 5.5q2 18 5 31t3 31q0 8 -8 8q-7 -2 -14 -3
q-6 -2 -13.5 -2.5t-12.5 -0.5h-126q-11 -5 -20.5 -5.5t-20.5 -0.5h-58q-9 3 -17.5 11.5l-16.5 16.5q-3 4 5 7t20.5 5.5t26.5 4t24 1.5q7 0 12 -2t12 -2q15 0 15 12q0 14 -11 22.5t-16 19.5q-2 3 -6 13q-2 4 -3 9q0 14 6 26.5t6 15.5q0 2 -0.5 4.5t-2.5 7.5q0 69 -2.5 104
t-9.5 52q0 11 -4.5 19t-9.5 15.5t-8.5 15.5t-1.5 19q11 5 19.5 6t19.5 6q10 2 20 -1t20 -8.5l19.5 -11t18.5 -9.5q12 -2 18.5 -5.5t12 -7t12 -6t17.5 -2.5t22.5 4.5t25.5 4.5q8 0 13.5 -1.5t14.5 -1.5q32 0 61 6t61 6q9 0 18.5 -1.5t21.5 -1.5q9 0 16.5 3t16.5 3
q2 0 7.5 -1.5t7.5 -1.5l2 -1l1.5 0.5t5.5 2t15 4.5q10 0 19.5 9t18 19.5l16.5 19.5t15 9q5 0 9 -0.5t6 -2.5l66 -66q-1 -2 -2 -5q-2 -5 -4 -7q0 -2 -7.5 -9t-7.5 -9q-6 -9 -9 -24.5t-3 -26.5q0 -2 1.5 -10.5t1.5 -10.5q0 -9 -3 -16.5t-3 -16.5q-2 -5 0.5 -10.5t2.5 -10.5
q0 -16 -6 -32t-6 -34q0 -11 -9 -19.5t-9 -16.5q-3 -6 -15 -12t-18 -6q-17 -1 -23 2.5t-8 9t-3 12.5t-8 12q-20 0 -37 0.5t-33 5.5q-1 0 -5 -0.5t-9 -1.5t-10 -1.5t-6 -0.5q-21 0 -32.5 -1t-16.5 -4.5t-6 -9.5t-1 -15q0 -19 3.5 -31.5t14.5 -12.5q9 0 15.5 1t14.5 1h7t7 -2
q32 0 56.5 1.5t52.5 1.5h12t12 -1q8 4 13.5 9t10 9.5t9.5 8t12 3.5q7 3 12 7.5t12 4.5t14.5 -5t12.5 -13q1 -8 6 -12t10 -7t9.5 -6.5t4.5 -10.5q0 -14 -5 -17t-19 -3q-9 0 -18 1t-18 1q-21 0 -39 -6h-72q-7 -5 -12.5 -5.5t-14.5 -0.5q-7 0 -12 2t-12 2h-28t-34 -2.5
t-29 -7.5t-12 -14q2 -9 3.5 -18t4.5 -16t9 -11.5t17 -4.5h87q5 0 9 4t9 4q7 0 10.5 -7t10.5 -7t12 2t12 2q9 0 11.5 -0.5t6.5 -3.5q5 2 9.5 7t8.5 9h36q11 3 22.5 12.5t25.5 9.5v2q0 12 12 18.5t21 9.5l12.5 -12t15.5 -12q2 -2 6.5 -9l9.5 -14.5l9.5 -14t6.5 -8.5
q6 -11 11 -14.5t9 -5t6 -3t2 -7.5t-5.5 -12t-10.5 -4q-2 0 -10.5 0.5t-17.5 1.5t-17.5 1.5t-10.5 0.5q-18 0 -38.5 -0.5t-37.5 -1.5t-29 -2t-13 -2v-4q8 -7 15 -18.5t12 -13.5q6 0 14 -5.5t16.5 -13.5t17 -17l15.5 -16q5 -5 11.5 -5.5t6.5 -12.5q0 -8 -4 -16.5t-10 -16
t-13.5 -13.5t-14.5 -8t-13 -2h-11q-7 0 -20.5 1t-15.5 7q-8 14 -7 29.5t1 30.5q-2 5 -7 8.5t-5 9.5q0 10 -0.5 15t-2 11t-5 14.5l-10.5 25.5v5q0 8 -5 10.5t-13 2.5q-11 0 -24 -3t-24 -3t-21 2t-21 2q-7 0 -17 -0.5t-10 -11.5q0 -8 4.5 -18.5t9.5 -15.5q16 -9 20.5 -17.5
t16.5 -14.5q8 -12 8.5 -25t0.5 -23l-4.5 -3.5t-9.5 -8t-10.5 -8.5t-8.5 -4q-15 0 -27 6q-5 5 -9.5 -12t-14.5 -34q5 -14 23.5 -16t36.5 -2h3l4.5 4.5l7.5 7.5l7.5 7.5l4.5 4.5t5.5 3.5t9.5 4.5t9.5 4t5.5 4q-1 2 4 4t12 4t14.5 3t11.5 1q6 0 9 -4q10 -10 16 -16.5l11 -12
l9.5 -10.5t11.5 -12q0 -7 -8 -14t-13 -7h-75q-5 0 -6.5 3t-8.5 3q-6 0 -11 -3t-10 -3q-7 0 -16 -1t-17 -2t-14 -2t-7 -1q-5 -9 -13.5 -12t-17 -5.5t-15 -6.5t-6.5 -15q0 -7 3 -7.5t3 -7.5v-11t-2 -7q2 -5 2 -13.5v-16.5q8 -9 23.5 -12t24.5 -3q12 0 20.5 3t19.5 3
q24 0 41 1.5t30 4.5t23.5 9t22.5 15q5 3 13 9.5l16 13t15.5 11.5t12.5 5q2 0 8 -5.5l12 -11.5l11 -11l5 -5v-9l3 3q3 -5 11 -9.5t16.5 -10t14.5 -12.5t6 -16q0 -5 -0.5 -7.5t-5.5 -4.5q-8 0 -19 -0.5t-21 -1.5t-17.5 -2t-8.5 -2q-11 -1 -23.5 1t-24.5 2q-7 0 -14 -1.5
t-16 -1.5q-7 0 -13.5 1.5t-13.5 1.5q-2 0 -6 -3t-6 -3h-84l-9 3q-13 0 -30 -0.5l-33.5 -1t-30.5 -2.5t-21 -5h-74l-6 -3h-15.5h-16.5t-14 -1t-6 -2q-6 0 -17 -1l-22 -2q-13 -2 -27 -3q-5 -1 -12 1t-15 2q-2 0 -10 -0.5t-19 -1l-22.5 -1t-20.5 -0.5q-14 -9 -25 -12.5t-21 -5
t-19 -3t-19 -6.5q-3 0 -10 3.5t-14.5 9t-14 12.5t-9.5 14v6zM421 308q0 -15 7 -24t13 -20q0 -3 5 -9.5t5 -8.5q7 -11 19.5 -17.5t26 -11.5t27.5 -9.5t25 -9.5q3 0 9.5 -6t8.5 -6q4 -2 6.5 1t4 8t3 9.5t2.5 5.5q-8 11 -10.5 32t-7 42t-14.5 36.5t-34 15.5q-5 0 -6.5 -2l-3 -4
t-4.5 -4t-10 -2q-8 0 -14 1t-14 1q-4 -2 -13 -2t-17.5 -1t-13.5 -4t0 -11zM285 480q0 -5 2 -8.5t7 -3.5q15 0 24.5 1t22 2t32 2t54.5 1q13 0 18.5 17.5t5.5 34.5q0 15 -2.5 22.5t-21.5 7.5h-4q-1 0 -7 -0.5t-13.5 -1.5t-14 -1.5t-7.5 -0.5q-5 -2 -14.5 1t-18.5 3
q-7 0 -16 -2t-14 -4q-1 0 -3.5 -7.5l-5.5 -16.5t-6.5 -17.5t-5.5 -10.5q-5 -5 -8.5 -7.5t-3.5 -10.5zM318 580q2 0 9 -3t9 -3h3q1 0 5.5 1t9.5 2t9.5 2t5.5 1q2 0 16 0.5t29.5 1.5t27.5 3.5t11 6.5q0 6 0.5 16t0 20.5t-2 20.5t-6.5 15q-8 -2 -12 -5t-6 -10l-42 -43
q-12 0 -14.5 0.5t-7.5 9.5q0 2 -6 9t-6 9q-1 19 2.5 40.5t3.5 43.5q0 11 -2 22t-16 11q-9 0 -14 -4.5t-7.5 -11.5t-3.5 -14.5l-2 -14.5q-2 -2 -1.5 -4.5t4.5 -13.5v-3q0 -1 -0.5 -6l-1 -10.5l-1 -10.5t-0.5 -6q0 -3 0.5 -13t1 -21.5t1 -21.5t0.5 -14zM567 604q0 -8 1 -12
t9 -4q11 0 24 3t27 3q5 0 11 -1t13 -1q8 1 22.5 4.5t16.5 15.5v12q0 29 4.5 58t4.5 60q0 14 -5 17.5t-19 3.5q-9 0 -15 -0.5t-15 -5.5q-1 -10 1 -15t6.5 -9.5t11 -10t14.5 -16.5q1 -10 -2.5 -16.5t-10 -11t-14.5 -8.5t-15 -9q-18 -11 -33.5 -26.5t-36.5 -24.5v-6zM537 661
q3 -5 4.5 -10.5t1.5 -10.5q10 6 18.5 18t14.5 26t9.5 29.5t3.5 28.5q0 17 -10 19t-24 2q-9 0 -13.5 -7.5t-4.5 -16.5v-78zM372 745q0 -16 12 -30.5t27 -14.5q26 0 40 8t14 31q0 13 -14 15.5t-25 2.5q-9 0 -18.5 0.5t-17.5 -0.5t-13 -3.5t-5 -8.5z" />
    <glyph glyph-name="cid6618.001" unicode="&#x4e0e;" 
d="M525 4q11 0 21.5 -1t20.5 -1q20 0 37.5 3t32.5 17q6 6 13 16t13 20.5t10 20t4 13.5v10q0 17 4 27.5t4 16.5q0 28 6 53t6 41q3 11 3.5 23.5t2.5 24.5q0 11 3 20.5t3 33.5q0 2 1 11t2 19t2 19t1 11q0 14 -2.5 25t-17.5 11q-89 -7 -176.5 -7.5t-173.5 -10.5q-2 0 -9.5 -1
t-16 -2t-16 -2t-9.5 -1h-60q-3 2 -9 10.5t-12 18.5t-10.5 19t-4.5 13h39q2 -3 12 -5t12 -2h6q-1 0 9 1l25 2.5t32.5 2.5t32.5 1q12 0 24 2t22.5 7.5t18 16t10.5 28.5q0 6 -1 8t-1 12q-2 6 0.5 9t5.5 5t6 5.5t2 10.5l-18 18v106q-2 0 -4.5 9.5t-4 22t-2.5 23.5t-1 14
q0 8 -5 15.5t-11 14t-11 13.5t-5 14q0 3 5 6.5t11 6.5t11 5t5 3q13 1 29 -1t30.5 -6t26 -8t16.5 -6q1 -3 4.5 -5t8 -4t8 -5t3.5 -10q0 -2 -1 -3.5t-2 -3.5q-2 -3 -3 -5q-14 -14 -18 -29t-8 -28q0 -32 3 -51t21 -24h106q2 -3 5.5 -3.5t6.5 -0.5q11 0 10 7.5t4 14.5q7 2 14 7
l14 10t12 9t8 4q14 0 20.5 -8.5t15.5 -15.5q4 -3 12 -7.5t15.5 -10t13 -11.5t5.5 -13q0 -10 -9 -14t-22.5 -5t-28.5 0t-28 1q-33 0 -64 -6t-48 -6q-29 0 -46 -2t-25.5 -9.5t-10.5 -23t-2 -41.5q1 -3 0.5 -14t0 -23t5 -21.5t16.5 -10.5h94q0 -3 6 -3q25 5 46.5 5t39.5 17
q6 5 17 15.5t20 10.5q-1 0 4 -0.5t11 -5.5q5 -5 15 -10.5t20.5 -12t18.5 -16t8 -21.5q0 -11 -11.5 -21.5t-20.5 -20.5q-4 -4 -5.5 -12.5t-2 -18l-1 -18.5t-1.5 -14q0 -5 -1.5 -10.5t-4.5 -10.5q0 -45 -2.5 -71.5t-6 -44.5t-7 -31t-4.5 -30q-4 -33 -11 -66.5t-19 -63.5
q-9 -15 -22.5 -33.5t-31 -34.5t-39.5 -27t-47 -11q-12 0 -19 10t-12.5 23.5l-11 26t-13.5 18.5q-3 0 -9.5 6t-8.5 6q-4 4 -4 6zM186 164q-2 9 -7.5 21t-10.5 21q-2 6 -7 10.5t-5 11.5q7 7 17 5.5t13 0.5l3 -4h21q2 0 9 -6t9 -6q5 -1 10 3t8 9h30q58 8 116.5 10t118.5 8
q2 3 8.5 8t9.5 8q10 10 14 18q0 -4 2 -2.5t4.5 4.5l5.5 6.5t6 3.5h4q7 -8 17.5 -15.5t20 -15.5t16 -16t6.5 -17q0 -15 -21 -19.5t-55 -4.5h-41.5t-42.5 -2q-27 -8 -55 -9.5t-56 -6.5q-23 -5 -45 -7t-45 -7q-19 0 -37.5 -8t-28.5 -8q-2 0 -7 2t-5 4z" />
    <glyph glyph-name="cid12957.001" unicode="&#x6c34;" 
d="M-16 -76q-1 3 5.5 8.5t9.5 9.5q2 2 13.5 11l24 19l24 19t13.5 11l48 54q0 2 7.5 7t7.5 7q25 31 46 69l36 67q8 17 17 32.5t15 33.5q0 1 1.5 5.5t3.5 9t3.5 8.5t1.5 5q9 11 15 28.5l11 31.5q3 19 13.5 36t10.5 39q2 11 -3.5 15.5t-13 6t-14.5 2t-7 3.5q-5 -2 -14 -4
t-20 -2l-2 -3q-12 0 -34.5 -9t-49.5 -9q-6 -2 -9 5t-3 10q0 19 -8.5 36t-16.5 31q-1 5 2.5 8.5t6.5 3.5q8 0 23 -1t23 -5l66 2h66q9 0 16.5 9.5t14 20.5l12.5 20.5t13 9.5q6 0 9 -3t8 -10.5t15 -20.5t30 -32q5 -5 9.5 -13t10.5 -13q8 6 7.5 19.5t2.5 22.5v85.5t-4 82.5
q0 7 -1.5 12t-3 11t-2.5 14.5t-1 22.5q-2 9 -7 16.5t-11 14t-10 14t-2 18.5q17 3 33 10.5t33 7.5q6 0 7.5 -0.5t6.5 -2.5q3 0 9.5 -7.5t8.5 -7.5l10 -3q1 0 11 -5t21 -13.5t20.5 -18.5t9.5 -20q0 -9 -4.5 -15t-10.5 -11l-12.5 -10t-10.5 -12q-8 -17 -9 -30.5t-1 -30.5
q0 -24 3 -46.5t3 -45.5v-25v-39t-0.5 -36t-1.5 -15q0 -7 1 -12t1 -12q0 -49 -2 -98.5t0 -99.5l2 -6v-148q-2 -5 -2 -12v-17q0 -12 -4 -28t-13.5 -31.5t-24.5 -28.5t-36 -19q-2 0 -5.5 -0.5t-7.5 -0.5q-4 -1 -9 -1q-14 4 -18.5 13.5t-7.5 20.5t-9 21.5t-23 18.5q-2 6 -6.5 9
t-10 5t-9.5 5t-4 9q0 2 0.5 4t5.5 2q21 0 41.5 -3t28.5 -1l10 10q0 23 4 44t4 40q5 32 5.5 63.5t0.5 66.5q0 16 -0.5 28t-0.5 22t-0.5 19.5t-0.5 20.5q0 2 -0.5 6t2.5 9q0 17 -3 43t-3 56l-2 7q-9 0 -17 -10t-11 -15q-12 -39 -26 -75.5l-28 -71.5v-2q0 -8 -5 -15l-7 -10
q-8 -12 -11.5 -23t-10.5 -23t-18.5 -27t-11.5 -23q1 0 -5 -8.5l-13.5 -19.5t-15 -20t-8.5 -10l-114 -114q-1 -2 -8.5 -8l-17.5 -13.5l-20 -15t-17 -11.5q-1 -2 -6.5 -5.5l-12 -8l-12.5 -8.5t-8 -6q-9 -6 -22 -12t-23 -6q-2 0 -4 3.5t-2 6.5zM589 432q0 29 0.5 53t0.5 45.5
t0.5 43t0.5 45.5q0 9 -0.5 19.5t0 20.5t3 16.5t8.5 6.5q1 -1 3 -2q1 -1 2 -1.5t2 -2.5q0 -25 2 -47t2 -46q0 -6 0.5 -14.5t2.5 -16t6 -12.5t12 -5q7 0 19.5 5t25 14t21.5 21t9 26q0 13 -5.5 23t-12.5 21q0 6 8 8t19 3l22 2t17 6q7 0 16.5 -5t18 -13t16 -17t12.5 -16
q11 -3 16 -14t5 -22q0 -14 -3.5 -20.5t-10 -9.5t-14.5 -4.5t-17 -5.5q-13 -5 -28 -11.5t-29 -12t-24.5 -9t-14.5 -3.5q1 0 -2.5 -1.5t-9.5 -3.5t-12.5 -5.5t-11.5 -7.5q-2 0 -8 -1.5t-12 -4t-11 -6.5t-5 -9q0 -25 8 -50.5t22 -48.5q7 -11 10.5 -22.5t10.5 -22.5
q5 -9 9.5 -12t11.5 -12q19 -24 39.5 -43t41.5 -34.5t43.5 -29.5l47.5 -29q6 -5 12 -8.5t8 -5.5q6 -4 14.5 -8t16 -7l12.5 -5l5 -2q20 -6 41 -11t37 -23q-9 -6 -19.5 -7t-21.5 -1h-24q-11 0 -30 -4t-40 -11t-41 -15.5t-31 -17.5h-9q-8 5 -26 23l-37 37q-11 7 -18.5 15
t-13 16.5l-10.5 17t-12 17.5q-38 45 -56.5 101t-27.5 113q3 5 -1.5 13.5t-4.5 16.5q-3 9 -2 16t-4 14z" />
    <glyph glyph-name="cid6847.001" unicode="&#x4f55;" 
d="M219 -12q0 38 6 73.5t6 64.5q1 46 3 71t3 44.5t2 41.5t1 62q0 9 0.5 32.5t-0.5 48.5t-3.5 44t-8.5 19q-4 0 -10.5 -6t-14 -14.5l-15 -17.5t-14.5 -16q-7 -9 -12.5 -20.5t-14.5 -17.5q-14 -14 -28.5 -26t-28.5 -26q-9 -5 -24.5 -19l-31 -28.5t-29 -25.5t-17.5 -11
q-5 0 -8.5 2t-3.5 7q0 6 2 9l58 57.5t56 60.5l27.5 36l27.5 36q7 4 9.5 10t5.5 14q1 1 4 5.5t6.5 10.5t6.5 10.5t4 5.5q11 19 20 40.5t17 43.5t16.5 43t18.5 39q1 12 6 23l10 22t9.5 22t4.5 23q0 14 -9 24t-9 24q0 5 5 7.5t10 2.5t22.5 -6t34.5 -6q26 0 38 -3.5t20 -18.5
q0 -2 7 -7t7 -7q3 -5 3.5 -9t0.5 -9q0 -15 -8.5 -27t-19 -23t-19 -22t-8.5 -24q0 -8 7 -13t14 -5q34 0 65.5 1t66.5 1q3 0 8 -1t8 -1h159q3 2 12 2h7.5t4.5 -2q2 2 16.5 2h25.5q3 0 11 1t17 2l17.5 2t11.5 1q1 -1 4 2t7 7.5l8.5 9.5t7.5 9l31.5 28.5l32.5 27.5q6 8 10.5 18
t15.5 10q2 3 9.5 -6t12.5 -12q0 -2 5 -9t12 -16t15.5 -18.5t15.5 -16.5q2 -7 6.5 -12t9 -9.5t7.5 -10.5t3 -14q0 -5 -3.5 -12.5t-9 -14.5t-12 -12t-13.5 -5q-14 0 -27 4t-27 4q-3 -2 -15.5 -1t-27 1.5t-25.5 -1.5t-11 -11q6 -9 10.5 -17t4.5 -19q0 -14 -7.5 -24t-7.5 -24
q0 -23 -1.5 -46.5t-1.5 -37.5q0 -36 3 -65.5t3 -59.5v-26q0 -17 0.5 -37t1 -37.5t1.5 -29.5t3 -13q0 -25 -2 -52.5t-7 -50.5q-1 0 -2 -5t-2.5 -11.5t-2.5 -13t-2 -8.5q-9 -23 -20 -43t-31 -35q-8 -4 -18 -10q-3 2 -5 5t-4 1v-8q-18 0 -31.5 12t-13.5 26q0 9 -10 16t-21.5 13
l-21.5 11.5t-10 11.5t12 9t27 5.5t28.5 6t16.5 9.5q0 22 3 43t3 35q0 6 0.5 21l1 31.5l1 31.5t0.5 21q0 39 -3 74t-3 64q0 36 1.5 75.5t0.5 73.5t-5 57.5t-15 25.5q-25 0 -43.5 0.5t-39.5 0t-48 -2.5t-67 -8q-6 0 -12 -1t-15.5 -2t-24 -2t-36.5 -1q-7 -5 -15.5 -5.5
t-16.5 -0.5h-18q-2 0 -5 -0.5t-6 -0.5q-8 0 -12.5 6.5l-9.5 14t-10.5 14t-14.5 6.5q-13 0 -19.5 -14t-8.5 -32.5t-2 -38v-29.5q0 -36 2 -71.5l4 -70.5q4 -59 5.5 -100.5t1.5 -80t-0.5 -80.5t-0.5 -100l-3 -6q0 -5 3 -8q0 -11 -4 -25t-11.5 -26.5t-18.5 -21.5t-26 -9
q-20 0 -28.5 14t-8.5 29q0 7 0.5 13.5t0.5 13.5zM417 138q0 73 -1 133.5t-1 113.5q0 2 -2 11.5t-2 12.5q0 5 0.5 10.5t0.5 12.5q0 12 -7 23t-16 21t-16 19t-7 16q0 2 11 5t24 6t24.5 5t13.5 2q16 0 19 -9t13 -21h40.5h28t19.5 0.5t14 1.5l30 46q3 2 6.5 2h5.5q17 -11 33 -26
t16 -36q0 -23 -4.5 -42t-4.5 -40q0 -5 1 -21t2 -34.5t2 -35t1 -20.5q1 -10 -2.5 -23.5t-10.5 -25.5t-17 -20.5t-22 -8.5q-14 0 -16.5 5t-7.5 13q-6 20 -12.5 23.5t-23.5 3.5q-7 -3 -18.5 -3.5t-22 -1.5t-18 -3t-7.5 -7v-90q-4 -11 -9 -22q-5 -9 -12 -17.5t-17 -12.5
q-8 8 -18 15t-10 19zM475 397q0 -12 -0.5 -27t0.5 -28.5t5 -24t13 -14.5q34 0 53 1t28.5 7t12 18.5t2.5 36.5v3q0 2 -2 9t-2 9q-1 9 -1 20t-1.5 22t-4 20.5t-7.5 15.5q-14 2 -29 -2t-29 -6q-5 0 -16 -1t-16 -9q-3 0 -4.5 -5.5t-2 -13t0 -16.5t0.5 -15z" />
    <glyph glyph-name="cid7765.001" unicode="&#x53bb;" 
d="M216 -16q0 10 0.5 19t5.5 15.5t16 10t32 3.5q6 0 9.5 2.5t9.5 8l16 14t28 19.5l42.5 53l41.5 51q11 7 19 20.5t15 17.5q0 18 7 26t7 22v13.5t-2.5 11t-9 7t-18.5 2.5q-6 0 -10.5 -1.5t-9.5 -1.5q-8 0 -12 3q-4 -2 -10.5 -4t-11.5 -2q-27 -2 -54 -7.5t-54 -8.5
q-9 0 -19.5 -3t-19.5 -3q-2 2 -0.5 4.5t3.5 5.5l-6 2q-2 0 -6 -4t-9.5 -8.5t-11 -8t-9.5 -3.5q-20 0 -35.5 -9t-33.5 -9q-3 3 -9.5 8t-8.5 8q-7 19 -16 31t-18 26q-15 0 -17.5 5.5t-2.5 12.5q0 2 4.5 4t7.5 2q9 0 18 -3t18 -3q6 0 10.5 3t13.5 3t18 -3t18 -3q2 0 10.5 1.5
t13.5 1.5q49 9 102 9q9 0 19.5 -1.5t19.5 -1.5q8 0 13 1.5t11 1.5q2 -1 12 -0.5t21.5 1t21 0t9.5 -3.5q20 5 33.5 7.5t20.5 16.5q1 37 4.5 78.5t1.5 78.5l-6 6q-23 2 -56 -1.5t-62 -8.5q-11 -2 -24 -2.5t-24 -3.5q-14 -2 -28.5 -7t-28.5 -7q-11 6 -14.5 16.5t-9.5 19.5
q-8 10 -18.5 16t-11.5 14l3 6q8 0 13.5 0.5t15.5 0.5t28 0.5t51 0.5q2 0 13.5 2t13.5 2q25 1 50.5 -1.5t48.5 -2.5q22 0 30.5 2.5t11 7t2 12t4.5 18.5q-1 4 -1 8q-1 3 -1 6.5v5.5q0 15 1 28l2 26t2 27.5t1 33.5q-3 11 -9.5 19.5t-15 15.5t-17.5 13t-16 12q0 5 8 10t10 5
q21 0 37.5 6t32.5 15q3 0 9.5 1t14 1t15 -2.5t11.5 -8.5t13.5 -10t19.5 -9t17.5 -11.5t7.5 -17.5q0 -9 -4 -19.5t-10 -19.5t-13 -15t-13 -6q-3 -2 -5.5 -17.5t-4 -36.5t-2 -43.5t-0.5 -38.5q0 -9 7 -14t16.5 -7t19 -2.5t15.5 -0.5q11 0 18.5 7t14.5 15q5 1 13 7l17 13
t18 12.5t15 5.5q1 0 2.5 -0.5t3.5 -0.5q2 -1 3 -1q6 -9 14 -14.5t16.5 -9t16 -7.5t13.5 -11q0 -15 -1.5 -20.5t-4 -8t-5 -4.5t-4.5 -9q-11 0 -26.5 1l-31.5 2t-30.5 2t-22.5 1q-7 2 -21.5 -1t-23.5 -3q-9 -1 -17.5 -0.5t-16 -1t-13 -7t-7.5 -17.5v-25.5t0.5 -50t1.5 -51.5
t4 -30l12 -6q6 -1 17 -1.5t25 -1t28 -0.5h26q5 0 22.5 -2.5t39.5 -2.5q21 0 33 11.5t25 20.5q2 0 24 12.5t51 20.5q8 0 16 -9.5t8 -14.5q11 -16 24 -28t22 -29q2 -25 -10.5 -38.5t-35.5 -13.5q-11 0 -19.5 3.5t-19.5 6.5q-3 1 -13 2.5t-21.5 3.5t-22.5 3.5t-15 2.5
q-9 1 -17.5 1h-17.5q-18 0 -40 3.5t-36 4.5l-12 -3q-9 1 -17 -0.5t-13 6.5q-7 0 -11.5 -2t-9.5 -4h-42q-5 0 -7.5 -3.5t-2.5 -8.5q-2 -2 0 -5.5t5.5 -7.5t8.5 -8t8 -7q1 1 4.5 -1.5t8 -7.5t8 -11t3.5 -10q0 -7 -4 -10t-9.5 -5t-11 -3.5t-9.5 -5.5l-62 -62q-5 0 -4.5 0.5
t-1.5 1.5q-5 0 -5.5 -1.5t-0.5 -4.5q0 -2 1 -2.5t1 -3.5q0 -5 -6 -8.5t-8 -5.5q1 -2 -13.5 -14l-32.5 -27.5t-33 -31t-15 -25.5q0 -6 8 -9t10 -3q27 0 57 3t57 9h115q9 0 16.5 7t7.5 15q0 11 -6.5 22l-11.5 20q0 5 -6.5 21.5t-14.5 24.5q-5 7 -11 12t-11.5 10.5t-9.5 12
t-4 15.5q14 0 23.5 -6.5t18.5 -11.5q23 -11 39 -17.5t39 -20.5q11 -8 26.5 -16.5l33.5 -17.5q15 0 26 -6t19 -15t13 -19t8 -18q0 -29 -8 -57t-37 -41q-2 0 -12 -6t-12 -6q-9 -5 -13.5 -8.5t-13.5 -3.5t-23 4t-16 10t-4.5 17.5t-6.5 23.5t-9 20.5t-13 8.5q-9 0 -19.5 -5
t-19.5 -5q-5 0 -16 -1.5t-24 -3.5t-27 -4.5l-26 -4.5q-7 1 -15.5 -2t-20 -6.5t-27 -6.5t-37.5 -3q-10 0 -21.5 -5t-22.5 -5q-2 0 -8.5 -3t-15.5 -6t-19 -6t-18 -3q-14 -5 -27.5 -11.5t-29.5 -6.5q-3 -3 -6.5 -1t-8 6.5t-9.5 10t-9 8.5q-8 0 -13 5t-7.5 12t-3 15t-0.5 14z
" />
    <glyph glyph-name="cid11481.001" unicode="&#x6545;" 
d="M369 -74q1 1 6.5 4t12 6t11.5 5t6 3q7 4 15.5 14t18.5 10q9 5 15 11t15 11q2 0 10 6t10 6q7 0 15 9.5t19 16.5q13 4 17 11.5t9 12.5l42 40q5 9 9 13.5t13 6.5q0 1 -0.5 2.5t-0.5 2.5q0 9 6 18l12.5 18t12.5 18.5t6 19.5q0 5 -2 9t-4 9q-5 11 -6 24t-6 24q-4 17 -13 32
t-9 34q2 3 1 4.5t-2.5 4.5t-3 8.5t-1.5 15.5v22.5t-1.5 34.5t-4 32t-8.5 14t-12.5 -6.5t-12 -15l-10 -16t-7.5 -10.5l-34 -34q-1 1 -7 -4.5t-13 -15t-12.5 -21t-5.5 -22.5v-102l-6 -6q-2 -7 2 -19.5t4 -22.5q1 -14 -2.5 -25.5t-1.5 -22.5q-3 1 -4.5 -6.5t-4 -16.5t-6.5 -17
t-11 -8q-10 0 -12 2q-12 7 -18 15t-9 15t-5.5 12t-9.5 6q-15 -2 -25 6q-13 0 -24 -2t-22.5 -4.5t-24.5 -5t-28 -2.5q-19 -2 -23 -22.5t-4.5 -44.5t-2.5 -43.5t-18 -19.5q-12 0 -20 6t-12 14.5t-5.5 17.5t-1.5 16q0 18 1.5 36.5t1.5 39.5q-5 18 -5.5 37.5t-0.5 25.5v28.5
t1 15.5t1.5 11t0.5 14q0 2 -1.5 13.5l-3 24l-3 24t-1.5 13.5v57q-2 7 -5.5 14t-3.5 13h6l27 -21q3 -2 10.5 -9l15 -14.5t15 -13t10.5 -5.5q8 0 14.5 11t6.5 19v43l3 8q1 12 -1 28.5t-2 29.5v9v18t1.5 19.5t4.5 13.5q0 4 -1 11t-11 7q-14 0 -25.5 -3t-22.5 -3q-29 0 -69.5 -6
t-75.5 -6q-1 1 -3.5 2t-4.5 3q-3 2 -6 3q1 2 -1.5 5.5t-6 8t-7 10t-3.5 12.5h32q3 0 8 2t8 2q26 0 49 3t35 3q28 0 52 1t53 1q6 9 8.5 21t3.5 25t1 25.5t2 22.5l4 41t2 41q0 29 -5.5 54t-27.5 60v1l3 5q23 -6 44.5 -19t27.5 -21q4 2 13 -1.5t17 -10t14.5 -15t6.5 -17.5
l-6 -12q0 -9 -2.5 -14.5t-6 -10.5t-7.5 -10t-5 -11q-1 -2 -3 -13l-4.5 -24l-4.5 -24t-3 -13q0 -5 -2 -9t-4 -9q0 -18 0.5 -28t3 -15t8 -6t16.5 -1q16 0 27 2t14 2h7q22 2 33.5 18.5l22.5 33.5q9 3 19.5 -5t19.5 -19t15 -21t6 -13q0 -14 -8.5 -18t-27.5 -4q-1 0 -13.5 -2
l-29 -4.5t-34 -4t-27.5 -1.5h-19t-20.5 -2.5t-16.5 -9t-7 -19.5q0 -4 1 -7t1 -6q0 -6 -6 -10v-32q0 -8 -3 -19.5t-3 -28.5q-3 -14 -2 -29.5t-4 -22.5q-2 -14 6.5 -18t19.5 -4q12 0 20.5 0.5t22.5 0.5q8 6 14.5 14.5l12.5 17l11 15t10 8.5h10q2 -3 7 -8t7 -8q7 -3 10.5 -7
t6.5 -8t7 -6.5t10 -2.5q4 0 9.5 6t10.5 13.5t9.5 15t6.5 11.5q9 14 12.5 27t11.5 27q9 8 11 18t7 18q1 4 10.5 17t9.5 27q3 8 9.5 17t8.5 17q14 27 22.5 59t20.5 55q4 7 4.5 14.5t1 16t2 16.5t7.5 17v62q0 8 6 12q-2 0 -5.5 5.5t-7 13t-6 14.5t-2.5 9q6 0 13.5 -4t15 -9
l15 -10t13.5 -7q10 0 19.5 -6t17.5 -14t15.5 -16.5t13.5 -13.5q1 -9 -3.5 -14t-10.5 -8.5l-12.5 -7.5t-9.5 -10q-1 -4 -3 -8q-2 -3 -3.5 -5.5t-2.5 -4.5q-1 -1 -3 -6l-4.5 -11t-4.5 -12t-3 -7q-5 -14 -16 -34t-11 -34q0 -5 0.5 -9.5t5.5 -6.5q8 0 18.5 -7.5t11.5 -4.5
q6 -2 10 3t17 5q7 0 8 -1t1 -7q4 0 5.5 1t4 2.5t8.5 3t18 1.5q8 0 17 7t19 7l30 30q0 6 6 12t12 6q8 0 10 -2.5t2 -7.5q17 0 25 -12t17 -24t15.5 -22.5t6.5 -25.5q0 -12 -10.5 -15t-19.5 -3q-5 2 -5.5 10t-6.5 8h-46l-6 -4l-57 -6q-2 0 -2.5 -3t-0.5 -5q0 -5 5 -12.5
t11.5 -16t13 -15.5l9.5 -10q4 -1 10 -7.5t8 -8.5v-30q-13 -10 -20.5 -28t-12.5 -32q-1 -2 -8 -13.5t-7 -37.5q0 -5 -3 -10t-6.5 -9.5t-5.5 -9t0 -7.5q0 -2 -6 -9t-6 -9q-1 -1 -3.5 -6.5t-5.5 -11.5t-5.5 -11.5t-3.5 -6.5q-2 -7 -7.5 -12t-7.5 -12q-2 -1 -3.5 -10t-14.5 -11
l3 -9q1 3 2.5 1t3.5 -6t4 -9t5 -7q5 -5 10.5 -7.5t10.5 -7.5q8 -7 17 -17l18 -19.5l16 -17t12 -10.5q5 -5 10.5 -4t10.5 -4q2 -3 9 -9.5t9 -8.5q16 -5 27 -15t25 -19q2 -2 9.5 -5.5l15 -7t13.5 -7t6 -6.5q0 -7 -6.5 -11t-16.5 -7l-21.5 -6.5t-21.5 -9.5q-2 -5 -11 -8.5
t-15 -3.5q-8 0 -12.5 6.5t-9.5 9.5q-2 0 -12 6t-12 6l-8 6q-8 6 -10 8q-6 4 -14 14t-16 10q-6 4 -19 15.5l-27.5 23.5t-27.5 21.5t-19 9.5q-8 0 -19 -10.5l-20 -19.5q-15 -16 -35.5 -27t-33.5 -31l-20 -12t-13.5 -9.5t-11 -9.5t-13.5 -11q-10 0 -17.5 -4t-13.5 -10l-12 -12
t-13 -10l-29 -14l-21.5 -11t-18.5 -8t-19 -5q-1 0 -5.5 -2t-9.5 -4t-9.5 -4t-5.5 -2h-3q0 2 1 4t3 2h2zM240 170q2 -16 4.5 -24.5t22.5 -8.5q8 0 22 6t35 6h24q13 8 21.5 9.5t14.5 4t9.5 11t5.5 29.5q-2 15 -4 25.5t-2 19.5l4 6l-4 6q0 1 2 10t2 14l-6 6q0 4 0.5 6.5
t0.5 6.5q0 10 -4.5 18.5t-15.5 13.5q-34 1 -57.5 -5.5t-50.5 -6.5q-9 0 -19.5 -12t-10.5 -21l3 -9q0 -5 -1.5 -21t-1.5 -21v-3q0 -5 3.5 -12t5.5 -12q0 -4 -0.5 -11.5l-1 -14.5t-1 -12t-0.5 -4zM637 405q9 -5 11 -14.5t7 -16.5q4 -6 7 -16t7 -21t9 -20.5t13 -14.5
q19 16 25 32.5t6 21.5t-0.5 9t-0.5 9q0 10 5 19t7 18q0 20 7.5 38.5t7.5 29.5q1 18 4 28.5t6 18l5.5 14t2.5 17.5l-15 18q-26 0 -46.5 -6t-46.5 -6q-8 -1 -12.5 -6t-7 -12.5t-3.5 -15.5t-1 -14q0 -20 0.5 -42t5.5 -32q0 -13 -0.5 -19.5t-2.5 -16.5zM276 -122q0 2 4 6t9 7.5
t10 6t7 2.5h21q0 -11 -11.5 -15t-18.5 -13q-7 1 -14 0.5t-7 5.5zM427 332v-5.5t2 -3.5q10 10 10 18q-8 0 -10 -1t-2 -8zM216 323q0 -5 4 -7t7 -2q-2 -1 -2 -4q0 -2 3 -2q2 0 2 2q0 4 -2 4v9h-12z" />
    <glyph glyph-name="cid18525.001" unicode="&#x5904;" 
d="M-16 -106q0 2 6 8l13.5 13t15 13t11.5 8l43.5 31.5t38 35t32.5 45.5t27 62q2 7 7.5 12t7.5 12q4 20 9.5 37t8.5 35q1 10 2 22.5t2.5 24.5t4 21.5t6.5 13.5q-1 19 0.5 33.5t3.5 26t3.5 21t1.5 19.5q0 6 -1.5 13t-1.5 13t3 10q0 23 -1.5 38.5t-1.5 27.5q4 9 -1 16.5
t-5 15.5t1.5 12t1.5 16q0 5 -1.5 16.5t-6 24.5t-12.5 25t-22 18q-1 7 3 8t9 1q9 -5 19 -7t20.5 -3t21 -2.5t20.5 -5.5q7 -9 18 -9q5 0 8.5 -4.5t6.5 -10t5.5 -9.5t6.5 -4q10 0 17.5 2t14.5 3.5l14 3t17 1.5t26.5 -0.5t32 1t26.5 6t11 13.5v88l-2 9l2 6q0 1 -1 16.5t-1 22.5
q-3 0 -8 3.5l-8 5.5q3 0 6.5 3.5t3.5 5.5q0 15 -8.5 26.5t-18.5 21t-18.5 16t-8.5 11.5q0 7 1.5 8.5t6.5 3.5q11 0 19 -0.5t18.5 -1t26 -1t42.5 -0.5q3 -3 12.5 -10.5t17.5 -7.5q5 -2 7.5 -9t10.5 -9q24 -11 33 -17t9 -22q0 -9 -2 -13.5t-5.5 -7t-7.5 -4.5t-7 -8
q2 -5 -0.5 -7.5t-5.5 -7.5q0 -7 11.5 -11.5t16.5 -9.5q10 6 18 6h16q0 5 17 3t45 9q6 2 12 9t11.5 14.5t11.5 13t13 5.5q5 0 9 -4t8 -10t9.5 -12.5t13.5 -9.5q-2 -2 1 -5t7.5 -6t8 -6.5t3.5 -6.5q3 -5 3.5 -9t0.5 -9q0 -7 -2 -10t-4 -4.5t-4 -3.5t-2 -6q0 -6 4 -10.5
t9.5 -8.5t11 -7.5t7.5 -6.5q14 -9 32 -18.5t33.5 -20.5t26.5 -26t11 -34q0 -11 -8.5 -22.5t-18.5 -11.5q-14 0 -28.5 -4.5t-29 -10.5t-29.5 -10.5t-31 -4.5l-6 12v48q0 8 -5 19.5t-13 16.5q-26 0 -40 -0.5t-22 -0.5t-12.5 -0.5t-11.5 -0.5q-18 0 -39.5 1t-39.5 -1.5
t-30.5 -10.5t-12.5 -25q0 -3 0.5 -11l1 -16t1.5 -14t1 -7l2 -4q6 -1 13 -1q5 -1 11.5 -1h11.5q15 -2 26.5 6t21.5 17.5l19 18t19 8.5h4t4 -2l40 -40q1 -8 -3.5 -12t-11 -7t-12.5 -4.5t-9 -2.5q-41 0 -71 -4t-59 -12v-20q0 -4 4 -6t8.5 -3t8.5 -1h5q15 0 29.5 2t28.5 2
q11 0 17 -2t11 -2q7 3 13 3t11 0.5t10.5 2t13.5 6.5h38q2 -9 9 -16l14.5 -14t13 -14t5.5 -16q0 -8 -4 -13t-10 -5q-11 0 -21.5 4t-18.5 2q-1 0 -7.5 -0.5t-14.5 -1.5t-14.5 -1.5t-7.5 -0.5q-30 0 -52.5 -0.5t-45 -0.5t-49.5 -0.5t-65 -0.5q-3 2 -5.5 7.5t-2.5 6.5l-6 52
q-3 5 -4 12t-6 10q-21 0 -38 -3t-36 -3h-24.5t-15.5 -4q-15 -2 -23 2.5t-13 10.5l-9.5 11.5t-11.5 5.5q-5 0 -7 -5t-3.5 -11t-2.5 -12.5t-2 -9.5v-22q0 -30 -2.5 -55t-6.5 -53q0 -18 -6 -29.5t-6 -22.5v-26q0 -3 -3 -11t-3 -11h9q7 5 13 10q5 5 10.5 9.5t9.5 8.5
q6 6 7.5 13.5t7.5 12.5q14 18 28 39.5t24 42.5q2 3 2.5 8.5t2 10.5t4 9t9.5 4q2 0 8 -4t12 -9.5t11 -11t5 -7.5t-6 -12t-6 -16q-1 -3 3.5 -7.5t26.5 -4.5q8 4 14.5 6t15.5 0q7 9 13.5 12t12 4.5t10.5 2t8 5.5q7 0 14.5 -1.5t9.5 -4.5l40 -38v-6q-14 -8 -24.5 -22.5
t-11.5 -19.5q0 -3 -8 -9.5t-8 -8.5t-5 -9t-12 -15.5t-14.5 -15.5t-12.5 -8q-1 -3 -5.5 -8.5l-10 -12t-10 -14t-4.5 -14.5q0 -2 4.5 -13.5t9.5 -13.5q11 -1 19 -3.5l16 -5t16.5 -4.5t20.5 -2q11 -5 19 3.5t13 22t7.5 29t2.5 24.5q2 1 0.5 3.5t-2.5 4.5q8 8 10 31t2 45v86
q0 4 6 4q8 0 13.5 -3.5t8.5 -8.5q9 0 15.5 -2l12.5 -4l12 -4t14 -2q14 0 31.5 9.5t28.5 20.5q15 0 32.5 -6t17.5 -24q0 -9 -3 -14.5t-6 -10t-5 -10t0 -13.5q0 -3 -6 -14t-6 -14q-1 -15 0.5 -19t4.5 -4.5t8.5 -1t12.5 -7.5q23 0 33 12t19 30h2q8 -24 23.5 -44.5t28.5 -43.5
q0 -7 -8.5 -11.5t-19.5 -7.5t-22 -4t-16 -1q-20 0 -38.5 1t-34 2t-26 2t-13.5 1q-9 0 -13 6.5t-5.5 15.5t-1.5 19v17q0 18 3 33t3 33q-5 5 -9 8.5t-9 3.5q-17 0 -25.5 -5t-8.5 -19q0 -18 -6 -41.5t-20 -58.5q0 -1 -2.5 -4l-5.5 -6.5l-5.5 -6.5t-2.5 -4q-5 -8 -4.5 -13.5
t-7.5 -13.5q0 -14 1.5 -20.5t14.5 -6.5q6 0 13.5 1.5t16.5 1.5q2 0 5 -3.5t3 -5.5q6 0 13 0.5t15 0.5q7 0 14.5 -1t11.5 -6h66q3 0 9.5 3t8.5 3q14 0 25.5 -1.5t22.5 -1.5q8 0 12.5 1.5t9.5 1.5q7 0 11.5 -1.5t9.5 -1.5q9 0 19.5 1l20.5 2t18.5 2t13.5 1q1 -2 9.5 -0.5
t17.5 2t16.5 -1.5t7.5 -9q0 -4 -5 -7t-12 -5.5t-13 -4t-9 -1.5q0 -1 -5 -4.5t-13 -8t-16 -9.5t-14 -11q-18 -9 -31 -24t-23 -15q0 2 -21 3t-53.5 2t-71 1h-73.5q-3 0 -14 1.5t-14 1.5q-4 0 -8.5 -0.5t-9.5 -0.5q-9 0 -16 4q-12 17 -31.5 24t-36.5 18q-3 7 -15 10t-21 11
q-14 12 -24 16.5t-24 16.5q-11 1 -18.5 -3.5t-13.5 -11t-11 -13.5t-11 -11q-10 -5 -20.5 -13t-19.5 -17q-5 -2 -9 -3t-9 -3q-13 -6 -20.5 -10t-13 -8t-11 -8.5t-12.5 -9.5q-5 0 -15.5 -8.5t-26.5 -18.5t-35 -18.5t-40 -8.5v3l15 15l63.5 40t59.5 44q14 11 22.5 25.5
t19.5 25.5q7 6 15 14l15.5 15l12.5 12t5 7q0 7 -5 13l-10.5 12t-8.5 12t0 12l-18 18h-15l-57 -58q-4 -4 -11 -5t-14 -2.5t-12 -5t-5 -11.5q-8 -14 -11 -17t-1 -10q-12 -6 -23 -17t-22 -24.5t-24 -28t-30 -26.5q-2 -2 -9 -7.5l-15 -12l-15 -12t-9 -7.5q-9 -2 -18.5 -8.5
l-19.5 -13.5t-19.5 -12t-18.5 -5zM306 490q10 2 17.5 -5t9.5 -5h64l2 4q2 0 6 -2l4 -2h54q5 2 9 4q8 3 11 8v21.5t-2 21t-7 15.5t-15 6q-3 -4 -13.5 -4h-18.5q-19 0 -37 -6t-27 -6q-19 0 -29.5 -0.5t-16 -4t-7 -12.5t-1.5 -25q-4 -7 -3 -8zM583 649v-6t2 -6l28 -19
q5 1 19.5 2.5t28.5 1.5q1 0 6 1l10 2t9 2t5 1q17 0 31 1.5t21 1.5q26 0 40.5 11t13.5 19q-3 5 -10.5 10t-13.5 5q-3 1 -11 -1t-13 -2q-6 2 -11 2.5t-7 0.5q-4 0 -16 -0.5t-25.5 -1t-25 -1t-15.5 -0.5h-15t-22 -1.5t-20 -7t-9 -15.5zM354 210q0 -7 5.5 -16t13.5 -17
t16.5 -13.5t15.5 -5.5q14 0 22 12.5l14 21.5q5 6 13.5 13t8.5 17q0 2 6 8.5t6 9.5q0 5 -0.5 9t-3.5 9q-20 0 -32.5 -2t-29.5 -2q-4 -5 -12 -8.5t-16.5 -8t-16 -10.5t-10.5 -17z" />
    <glyph glyph-name="cid6617.001" unicode="&#x4e0d;" 
d="M529 -16q0 14 -0.5 32t-1.5 34t-1.5 27.5t-0.5 14.5q0 -1 0.5 6.5t1.5 18t1.5 21t0.5 15.5l2 9q-2 2 -2 11v16q0 4 -0.5 21.5t-1.5 37t-1.5 37t-0.5 22.5q0 13 0.5 24t0.5 23v12.5t-1.5 14t-4 11.5t-7.5 5q-9 0 -17.5 -12t-14.5 -18q-26 -21 -44 -41t-40 -41
q-7 -6 -12.5 -9.5t-15.5 -10.5t-27 -21.5t-45 -42.5q-14 -5 -24 -12.5t-21 -14.5q-14 -9 -28.5 -14t-28.5 -13l-38.5 -19.5t-40.5 -17.5q-21 -12 -40 -21t-40 -9q0 4 5 7.5t12 6.5t14 5.5t11 4.5q6 3 12.5 10t16.5 8q2 1 10.5 8t20 15.5l23 17l19.5 14.5q18 5 30.5 18
t26.5 24q3 2 8.5 6.5l10.5 9l9 8t5 3.5q12 2 25 16l26 29q7 13 23 21t28 25q1 4 7 9.5l12.5 11.5t12 12t5.5 11q13 8 19 17l13 19q8 9 12 11t6 13l36 37v3q0 7 3.5 11t8 8.5t8.5 11t4 17.5q0 16 -3 30t-3 30q0 5 0.5 8.5t5.5 3.5q10 -4 20 -12.5t16 -17.5q10 -2 17 3.5
t11.5 14.5t7.5 19.5t6 16.5q6 9 11.5 21t10 23t7 19.5t2.5 11.5q-5 10 -13 12q-38 0 -70.5 -4.5t-67.5 -7.5q-54 0 -98 -6.5t-82 -11.5q-18 -2 -36 -8t-36 -6q-6 0 -10.5 5t-8.5 12.5t-8.5 14.5t-8.5 12q-7 8 -15.5 16.5t-8.5 13.5v3q0 3 3 3q16 0 28.5 2t28.5 2q26 0 53 -3
t52 -3q16 0 29.5 3t27.5 3t27 -2t27 -2q3 0 6.5 0.5t5.5 3.5h48q5 5 9 5.5t9 0.5q14 0 27 -3t27 -3q4 0 22 0.5t42.5 0.5t51 0.5t47.5 0.5q16 0 27.5 2.5t20 6t16.5 7.5t17 6q5 1 9.5 2t5.5 6q10 4 15 8l8.5 7t7 5t11.5 2q5 0 8 -0.5t8 -3.5q4 -7 14 -14.5t20.5 -16.5
t19 -19t8.5 -22q0 -5 -1 -11.5t-7 -6.5q-26 0 -45.5 3t-39.5 3h-26t-16 4h-10.5t-26.5 -0.5t-34.5 -1.5t-35 -2t-27 -3t-10.5 -5q0 -6 7.5 -14l13.5 -14q6 0 13 -7t12.5 -16.5t9.5 -18.5t4 -12q0 -9 -7.5 -15.5t-16.5 -11.5t-17.5 -8.5t-9.5 -6.5q0 -6 -4 -10.5t-9.5 -8.5
t-9.5 -7.5t-4 -6.5q-10 -10 -17 -22t-23 -23q0 2 -1 -3.5t-2 -15l-2 -19.5t-1 -17v-120q0 -2 -1 -8.5t-1 -9.5q0 1 0.5 -7.5t0.5 -20t0.5 -22t0.5 -13.5q1 -13 -0.5 -22t-1.5 -17q-1 -28 3.5 -52.5t4.5 -50.5l-2 -6q1 -22 5 -41.5t4 -42.5q0 -13 -11 -24.5t-14 -19.5
l-32 -22q-12 -2 -23.5 9t-12.5 21zM784 309q-9 9 -16 20t-14 20q-15 16 -28 27t-23.5 18.5t-17.5 14t-9 14.5q6 0 14 -3t17 -7t17.5 -8.5l14.5 -7.5l21.5 -9.5t20.5 -12.5q5 -5 11.5 -7t13 -3.5t13 -4.5t10.5 -9q14 0 19 -7t14 -13q15 -6 23 -11.5t13.5 -10.5t9 -10.5
t8.5 -10.5q18 -11 33 -24t15 -36q0 -8 -1.5 -10.5t-6.5 -7.5q0 -2 -2.5 -6.5l-5.5 -9.5l-5.5 -9.5t-2.5 -7.5q0 -2 -7 -9t-7 -9q-2 -9 -16.5 -18t-31.5 -9q-12 0 -20 10.5t-14 25t-10.5 29t-7.5 22.5q-2 4 -4.5 7t-4.5 8q0 7 -4 15.5t-9.5 18.5l-11 20.5t-8.5 20.5z" />
    <glyph glyph-name="cid13344.001" unicode="&#x6e05;" 
d="M613 -46q0 6 9 8.5t22 4.5t29 4t29 7t22 13t9 23q0 6 -1.5 13t-1.5 13t3 10v78l-6.5 13t-23.5 9q-2 0 -10.5 -2t-10.5 -2q-8 0 -28 -0.5t-41.5 -1.5t-38.5 -2.5t-19 -3.5q-5 0 -20 0.5t-31 -0.5t-28.5 -5t-12.5 -13v-100q2 -8 2 -13v-11q0 -20 -1 -31.5t-1 -26.5
q-2 -5 -6 -13.5t-10 -16.5t-12.5 -14t-13.5 -6q-12 0 -18.5 8.5t-9 22t-2.5 31v34.5v8l2 10q0 2 -1 7t-1 7q0 7 1.5 20t4.5 14v2q0 3 -2 16t-2 16l4 8q0 18 -0.5 44t-1.5 51.5t-1.5 48t-0.5 34.5l-2 8v85q0 1 1 3q3 3 5 3q6 0 14 -4.5t24 -7.5q2 0 7.5 -4l12 -9t14 -10
t14.5 -7q16 0 32.5 -0.5t37.5 3.5h90q6 2 12.5 2.5t12.5 0.5h23q5 0 12 2t12 7q0 4 5.5 11t12.5 13t13.5 9.5t7.5 2.5q1 3 4 1.5t7 -4.5t9 -6t10 -3q15 -8 25.5 -15t10.5 -27q0 -10 -3 -17.5t-6 -13.5l-6 -12.5t-3 -14.5q0 -68 4.5 -135t4.5 -135q0 -14 -5.5 -27t-12.5 -25
q-6 -6 -14.5 -17t-18 -22t-20.5 -19t-22 -8q-3 0 -9 10t-16 22t-23.5 22t-29.5 10h-9q-7 0 -12.5 2t-5.5 10zM315 411q0 2 0.5 5.5t2.5 3.5q1 0 17 2t38.5 4t48 4t47.5 2q9 0 22 -1t25.5 0.5t21.5 6t9 15.5q0 2 -0.5 10.5t-1.5 18.5q-1 11 -2 25l-8 10h-52q-6 -5 -17 -5
q-3 0 -6.5 0.5t-6.5 0.5l-12 -2q-20 -1 -35.5 3t-24.5 23q-2 5 4 8t16.5 5t24 2.5t25.5 0.5q2 0 20.5 3t45.5 3q12 0 18.5 5t9.5 13.5t3.5 19t0.5 22.5q0 6 -4 12t-10 8q-22 0 -34.5 -0.5t-19 -0.5t-10 -0.5t-8.5 -0.5h-15q-5 0 -8 -0.5t-7 -3.5h-58l-24 28q0 8 2 13t10 5
q9 0 17 -0.5t18.5 -1.5t25.5 -1.5t39 -0.5q13 0 28 -1t28 0t21.5 6.5t8.5 19.5q0 7 0.5 23t1.5 34t1.5 34t0.5 23q2 7 3 9.5t9 2.5q5 0 19.5 -3.5t29.5 -9t26.5 -12.5t11.5 -13t-4 -16t-11 -15q0 -8 -0.5 -14.5t-1.5 -13t-1.5 -15t-0.5 -20.5q0 -5 2.5 -10t7.5 -5h120
q5 0 7 3.5t2 8.5q1 1 9 -3q4 -1 10.5 7.5l14 18.5t16 18t16.5 7q1 -2 8.5 -8.5t16 -16t15 -20.5t6.5 -21q0 -12 -13.5 -15t-20.5 -3q-23 0 -43 -3t-41 -3q-1 0 -7 0.5t-12.5 0.5t-12.5 0.5t-7 0.5q-2 0 -4.5 -0.5t-4.5 -0.5q-3 -1 -6 -1q-14 0 -25.5 1t-22.5 1h-9.5
t-13 -0.5t-11.5 -3t-5 -8.5v-54q0 -6 5.5 -12t12.5 -6h81q12 0 21 6t17 13.5t16 14t18 6.5q1 0 10 -5t19.5 -13t19 -17.5t8.5 -18.5q0 -5 -0.5 -10.5t-5.5 -7.5h-99q-2 0 -10.5 -2t-13.5 -2q-11 -2 -26 -2.5t-29.5 -2t-27 -5t-16.5 -10.5q0 -4 -0.5 -14l-1 -20.5t-1 -19
t-0.5 -10.5q-1 -1 1 -8t2 -13q0 -9 -5.5 -13t-14.5 -5t-19 -0.5t-19 0.5q-2 0 -8.5 -3t-9.5 -3q-34 0 -67.5 -6t-70.5 -6q-9 -2 -15 0.5t-11 2.5t-12 -1l-14 -2t-13 -2t-7 -1l-24 21v3zM189 -116q-6 21 -9 42t-5 40.5t-6 36.5t-13 31q-5 8 -14.5 19.5t-9.5 16.5v6.5t2 3.5
l34 6q5 0 10 9.5t5 12.5q0 1 1 6.5t3 13.5t3.5 17t1.5 17q0 11 4 22t9.5 23t9.5 25t4 28q2 17 6 31l9 30q0 10 5 31t13 50q7 12 9 24.5t3 25.5t3.5 26t11.5 27q4 7 4.5 13t0.5 11t1 11t6 15q0 2 3 9t6 16t6 19.5t3 19.5q0 8 9 8q2 -5 2.5 -11.5t0.5 -8.5l-18 -76l-3 -6
l-15 -81q0 -2 -3 -7.5t-3 -7.5q-5 -18 -9 -43.5t-7 -49l-5 -39.5t-3 -15q0 -5 1.5 -6t1.5 -4q0 -6 -3 -14t-3 -16q0 -11 -0.5 -21t-1 -26.5t-1 -43t-0.5 -71.5l-3 -10q0 -11 1.5 -22t1.5 -14q0 -5 -0.5 -19.5t-1 -31t-1 -31t-0.5 -20.5q0 -2 -4 -10.5t-10.5 -18t-15.5 -17.5
t-18 -8q-8 0 -7.5 1.5t-1.5 4.5zM234 730q0 2 -3 7.5t-3 7.5q-14 38 -40.5 68.5t-55.5 57.5v9q9 0 19 -6t19 -14.5t16.5 -16.5t11.5 -11q7 -5 13.5 -6t13.5 -6q9 -6 16 -13.5t15 -14.5t17.5 -12t23.5 -5q6 -1 11 -9t9.5 -18t7 -20t2.5 -16q0 -7 -3.5 -17.5t-9.5 -20.5
t-13.5 -17.5t-15.5 -7.5q-18 0 -25 4t-10 9t-5.5 10t-10.5 7v51zM42 643q0 2 6 2q12 0 24 -5t24 -11l24.5 -12t26.5 -8q7 -9 17 -11t19 -7q8 0 18 -6t18.5 -15t14.5 -20t6 -21q0 -9 -4.5 -19.5t-11 -20t-13.5 -15.5t-13 -6q-9 0 -24 5.5t-15 13.5q0 2 -6 13t-6 13
q-6 14 -16.5 28.5t-10.5 25.5q-8 13 -17.5 22t-20 16.5l-20.5 15t-20 18.5v4zM628 176q11 -3 15 -2.5t15 0.5q1 0 7 0.5t12.5 0.5t12.5 0.5t7 0.5q2 0 4 -0.5t4 -0.5q11 0 16.5 11.5t5.5 19.5q0 74 -3 91l-9 9h-69q-14 0 -21.5 -8t-2.5 -10v-6.5t1 -11.5t1.5 -11.5t0.5 -6.5
q0 -9 -2 -21t-2 -32q0 -7 1 -12.5t6 -10.5zM459 218q-2 -4 1 -9.5t3 -10.5q0 -4 -0.5 -7.5t-0.5 -7.5q0 -11 8 -16t19 -5q28 0 42 2.5t19.5 8t6 14.5t2.5 23q0 2 1 13t1 13q0 26 -1.5 42t-18.5 16q1 0 -7 -1t-20.5 -2l-26 -2t-22.5 -1q0 -26 -3 -41t-3 -29zM658 417
q0 7 5 10.5t11.5 5t13.5 2t12 0.5q20 0 39 -1.5t39 -1.5q18 0 34 6t32 15q6 3 10.5 10t10 14t12 12t15.5 4q1 0 11.5 -7.5t22.5 -18t22 -22t10 -19.5q0 -5 -3.5 -10t-8.5 -5q-2 0 -11.5 1.5t-12.5 1.5q-9 0 -24.5 -0.5l-32 -1t-30.5 -1t-21 -0.5q-7 -1 -14.5 1t-15.5 2
q-11 0 -24 -3t-24 -3q-5 0 -16 1.5t-20 1.5q-1 0 -5.5 -0.5t-9.5 -1t-9.5 -1t-5.5 -0.5q-12 -3 -12 9z" />
    <glyph glyph-name="cid13344.001" unicode="&#x6df8;" 
d="M613 -46q0 6 9 8.5t22 4.5t29 4t29 7t22 13t9 23q0 6 -1.5 13t-1.5 13t3 10v78l-6.5 13t-23.5 9q-2 0 -10.5 -2t-10.5 -2q-8 0 -28 -0.5t-41.5 -1.5t-38.5 -2.5t-19 -3.5q-5 0 -20 0.5t-31 -0.5t-28.5 -5t-12.5 -13v-100q2 -8 2 -13v-11q0 -20 -1 -31.5t-1 -26.5
q-2 -5 -6 -13.5t-10 -16.5t-12.5 -14t-13.5 -6q-12 0 -18.5 8.5t-9 22t-2.5 31v34.5v8l2 10q0 2 -1 7t-1 7q0 7 1.5 20t4.5 14v2q0 3 -2 16t-2 16l4 8q0 18 -0.5 44t-1.5 51.5t-1.5 48t-0.5 34.5l-2 8v85q0 1 1 3q3 3 5 3q6 0 14 -4.5t24 -7.5q2 0 7.5 -4l12 -9t14 -10
t14.5 -7q16 0 32.5 -0.5t37.5 3.5h90q6 2 12.5 2.5t12.5 0.5h23q5 0 12 2t12 7q0 4 5.5 11t12.5 13t13.5 9.5t7.5 2.5q1 3 4 1.5t7 -4.5t9 -6t10 -3q15 -8 25.5 -15t10.5 -27q0 -10 -3 -17.5t-6 -13.5l-6 -12.5t-3 -14.5q0 -68 4.5 -135t4.5 -135q0 -14 -5.5 -27t-12.5 -25
q-6 -6 -14.5 -17t-18 -22t-20.5 -19t-22 -8q-3 0 -9 10t-16 22t-23.5 22t-29.5 10h-9q-7 0 -12.5 2t-5.5 10zM315 411q0 2 0.5 5.5t2.5 3.5q1 0 17 2t38.5 4t48 4t47.5 2q9 0 22 -1t25.5 0.5t21.5 6t9 15.5q0 2 -0.5 10.5t-1.5 18.5q-1 11 -2 25l-8 10h-52q-6 -5 -17 -5
q-3 0 -6.5 0.5t-6.5 0.5l-12 -2q-20 -1 -35.5 3t-24.5 23q-2 5 4 8t16.5 5t24 2.5t25.5 0.5q2 0 20.5 3t45.5 3q12 0 18.5 5t9.5 13.5t3.5 19t0.5 22.5q0 6 -4 12t-10 8q-22 0 -34.5 -0.5t-19 -0.5t-10 -0.5t-8.5 -0.5h-15q-5 0 -8 -0.5t-7 -3.5h-58l-24 28q0 8 2 13t10 5
q9 0 17 -0.5t18.5 -1.5t25.5 -1.5t39 -0.5q13 0 28 -1t28 0t21.5 6.5t8.5 19.5q0 7 0.5 23t1.5 34t1.5 34t0.5 23q2 7 3 9.5t9 2.5q5 0 19.5 -3.5t29.5 -9t26.5 -12.5t11.5 -13t-4 -16t-11 -15q0 -8 -0.5 -14.5t-1.5 -13t-1.5 -15t-0.5 -20.5q0 -5 2.5 -10t7.5 -5h120
q5 0 7 3.5t2 8.5q1 1 9 -3q4 -1 10.5 7.5l14 18.5t16 18t16.5 7q1 -2 8.5 -8.5t16 -16t15 -20.5t6.5 -21q0 -12 -13.5 -15t-20.5 -3q-23 0 -43 -3t-41 -3q-1 0 -7 0.5t-12.5 0.5t-12.5 0.5t-7 0.5q-2 0 -4.5 -0.5t-4.5 -0.5q-3 -1 -6 -1q-14 0 -25.5 1t-22.5 1h-9.5
t-13 -0.5t-11.5 -3t-5 -8.5v-54q0 -6 5.5 -12t12.5 -6h81q12 0 21 6t17 13.5t16 14t18 6.5q1 0 10 -5t19.5 -13t19 -17.5t8.5 -18.5q0 -5 -0.5 -10.5t-5.5 -7.5h-99q-2 0 -10.5 -2t-13.5 -2q-11 -2 -26 -2.5t-29.5 -2t-27 -5t-16.5 -10.5q0 -4 -0.5 -14l-1 -20.5t-1 -19
t-0.5 -10.5q-1 -1 1 -8t2 -13q0 -9 -5.5 -13t-14.5 -5t-19 -0.5t-19 0.5q-2 0 -8.5 -3t-9.5 -3q-34 0 -67.5 -6t-70.5 -6q-9 -2 -15 0.5t-11 2.5t-12 -1l-14 -2t-13 -2t-7 -1l-24 21v3zM189 -116q-6 21 -9 42t-5 40.5t-6 36.5t-13 31q-5 8 -14.5 19.5t-9.5 16.5v6.5t2 3.5
l34 6q5 0 10 9.5t5 12.5q0 1 1 6.5t3 13.5t3.5 17t1.5 17q0 11 4 22t9.5 23t9.5 25t4 28q2 17 6 31l9 30q0 10 5 31t13 50q7 12 9 24.5t3 25.5t3.5 26t11.5 27q4 7 4.5 13t0.5 11t1 11t6 15q0 2 3 9t6 16t6 19.5t3 19.5q0 8 9 8q2 -5 2.5 -11.5t0.5 -8.5l-18 -76l-3 -6
l-15 -81q0 -2 -3 -7.5t-3 -7.5q-5 -18 -9 -43.5t-7 -49l-5 -39.5t-3 -15q0 -5 1.5 -6t1.5 -4q0 -6 -3 -14t-3 -16q0 -11 -0.5 -21t-1 -26.5t-1 -43t-0.5 -71.5l-3 -10q0 -11 1.5 -22t1.5 -14q0 -5 -0.5 -19.5t-1 -31t-1 -31t-0.5 -20.5q0 -2 -4 -10.5t-10.5 -18t-15.5 -17.5
t-18 -8q-8 0 -7.5 1.5t-1.5 4.5zM234 730q0 2 -3 7.5t-3 7.5q-14 38 -40.5 68.5t-55.5 57.5v9q9 0 19 -6t19 -14.5t16.5 -16.5t11.5 -11q7 -5 13.5 -6t13.5 -6q9 -6 16 -13.5t15 -14.5t17.5 -12t23.5 -5q6 -1 11 -9t9.5 -18t7 -20t2.5 -16q0 -7 -3.5 -17.5t-9.5 -20.5
t-13.5 -17.5t-15.5 -7.5q-18 0 -25 4t-10 9t-5.5 10t-10.5 7v51zM42 643q0 2 6 2q12 0 24 -5t24 -11l24.5 -12t26.5 -8q7 -9 17 -11t19 -7q8 0 18 -6t18.5 -15t14.5 -20t6 -21q0 -9 -4.5 -19.5t-11 -20t-13.5 -15.5t-13 -6q-9 0 -24 5.5t-15 13.5q0 2 -6 13t-6 13
q-6 14 -16.5 28.5t-10.5 25.5q-8 13 -17.5 22t-20 16.5l-20.5 15t-20 18.5v4zM628 176q11 -3 15 -2.5t15 0.5q1 0 7 0.5t12.5 0.5t12.5 0.5t7 0.5q2 0 4 -0.5t4 -0.5q11 0 16.5 11.5t5.5 19.5q0 74 -3 91l-9 9h-69q-14 0 -21.5 -8t-2.5 -10v-6.5t1 -11.5t1.5 -11.5t0.5 -6.5
q0 -9 -2 -21t-2 -32q0 -7 1 -12.5t6 -10.5zM459 218q-2 -4 1 -9.5t3 -10.5q0 -4 -0.5 -7.5t-0.5 -7.5q0 -11 8 -16t19 -5q28 0 42 2.5t19.5 8t6 14.5t2.5 23q0 2 1 13t1 13q0 26 -1.5 42t-18.5 16q1 0 -7 -1t-20.5 -2l-26 -2t-22.5 -1q0 -26 -3 -41t-3 -29zM658 417
q0 7 5 10.5t11.5 5t13.5 2t12 0.5q20 0 39 -1.5t39 -1.5q18 0 34 6t32 15q6 3 10.5 10t10 14t12 12t15.5 4q1 0 11.5 -7.5t22.5 -18t22 -22t10 -19.5q0 -5 -3.5 -10t-8.5 -5q-2 0 -11.5 1.5t-12.5 1.5q-9 0 -24.5 -0.5l-32 -1t-30.5 -1t-21 -0.5q-7 -1 -14.5 1t-15.5 2
q-11 0 -24 -3t-24 -3q-5 0 -16 1.5t-20 1.5q-1 0 -5.5 -0.5t-9.5 -1t-9.5 -1t-5.5 -0.5q-12 -3 -12 9z" />
    <glyph glyph-name="cid13729.001" unicode="&#x6fc3;" 
d="M141 -152q5 7 18 13t21 11q2 0 9 8t9 8q35 23 53.5 49.5t36.5 58.5q5 9 6 19t6 19q4 6 9 14.5t6 13.5q0 23 9.5 41t14.5 37q-2 11 5 23t7 25q0 47 6 87t6 85q0 9 -2 17.5t-4 15.5q-7 5 -15 10t-15.5 11t-12.5 13t-5 17q0 2 0.5 5.5t2.5 3.5h31t20 3h60q6 -1 20 -1.5
l29 -1t28.5 -0.5h18.5q4 0 16.5 1t26.5 2t26 2t15 1h50q2 0 13 1l23 2l23 2t13 1q5 0 11 -0.5t13 -0.5q10 0 21 5.5t22 12t21.5 12t19.5 5.5q5 1 13 -4t15 -13t12 -17t5 -15q0 -8 -7.5 -11t-11.5 -3q-3 0 -6 1t-8 1q-23 0 -46.5 -1.5t-49.5 -1.5q-2 0 -7.5 -1l-11.5 -2
t-11 -2t-6 -1h-16t-12 -3h-30q-11 0 -22 -1.5t-20 -4.5q-20 0 -52 0.5t-63.5 -1t-54 -6.5t-22.5 -17q0 -18 10 -26.5t25 -12t32 -3.5h31q1 0 7 1t13 2t12.5 2t7.5 1q37 0 69 1.5t61 1.5q9 2 18 8l17.5 12l16 11t14.5 5q16 0 26 -11t10 -19q0 -17 -9 -20.5t-17 -3.5h-12
q-1 0 -15 -3t-25 -3q-20 0 -39 -1.5t-27 -1.5h-68q-24 0 -52 -3.5t-70 -11.5q-14 -2 -22.5 -5t-14.5 -8t-9.5 -14t-5.5 -24q-3 -14 16 -18q15 0 31 -0.5t29 -1.5t22 -1.5t10 -0.5t7 1.5t13 3.5l12.5 3.5t7.5 1.5h66q14 0 33.5 4t38.5 4q31 0 60 2t48 2q14 7 24.5 17.5
t27.5 15.5q14 -5 28 -21t14 -30q0 -5 -0.5 -7.5t-5.5 -4.5q-24 0 -51.5 1.5t-50.5 0.5q-2 0 -10.5 -1t-18.5 -2t-18.5 -2t-10.5 -1h-48q-14 0 -22 -4t-11.5 -10t-4 -12.5t-0.5 -11.5q0 -4 3 -12.5t9 -18t13.5 -18t16.5 -11.5q17 -3 32 8t27 25.5l21.5 26t17.5 8.5q6 0 18 -5
t12 -19q0 1 -1.5 -2t-4.5 -6.5t-6.5 -6.5t-7.5 -3q-7 -5 -18.5 -12l-23 -14.5t-20 -14t-8.5 -9.5q-2 -15 9.5 -25t28 -17t34 -13t28.5 -15q14 -6 29 -9t28 -5t24 -4t18 -6q-1 -8 -8.5 -12.5t-21.5 -17.5q-6 -6 -9.5 -11.5t-6.5 -9.5t-8 -6.5t-15 -2.5q-1 -3 -4.5 -1.5
t-8 4.5t-9.5 6t-8 3l-36.5 13.5t-33.5 18.5q-3 0 -8 4.5t-10 10.5l-10 11.5t-8 7.5q-2 2 -12 10t-22 16.5l-22 15t-12 6.5l-23.5 -15t-22.5 -25l-12.5 -8.5t-11.5 -9.5q-14 -11 -24 -25t-28 -17l-23.5 -24.5t-23.5 -23t-24.5 -17.5t-24.5 -7q-7 0 -15.5 2.5t-10.5 3.5
l-34 34q-1 8 4 12t11.5 5.5t14 2.5t12.5 4q-1 1 6.5 4l16.5 6.5t17 9t8 12.5v52q0 1 1 6t2 11t2 10.5t1 6.5q2 11 -0.5 30t-2.5 30q0 5 0.5 9.5t0.5 8.5q-5 12 -6 19t-3 11.5t-7 6t-18 1.5q-18 0 -28 -5t-14.5 -12.5t-5.5 -16.5t-3 -16q-6 -6 -7.5 -12.5t-1.5 -12t-1 -11
t-8 -10.5q1 -18 -1.5 -31.5t-6.5 -25.5t-7 -23.5t-3 -25.5q0 -3 -4.5 -7l-10.5 -9t-10.5 -11.5t-4.5 -14.5l-3 -2q-2 -4 -8.5 -11l-14 -15l-14 -15t-8.5 -11q-2 -8 -12.5 -16.5t-25.5 -17t-31.5 -16t-29.5 -12.5q-5 -3 -9 -6.5t-9 -3.5q-2 0 -4 0.5t-2 5.5zM339 787
q0 2 -0.5 4t-0.5 4q0 7 7 7q9 0 16 -6.5t14 -11.5q12 -9 26.5 -17.5t19.5 -24.5q9 -2 16 -2.5t16 -0.5q16 0 16 18v75q-2 9 -5 18q-2 8 -4 15t-3 12q0 7 -6.5 13l-11.5 11q-1 6 2 7.5t8 1.5q11 0 19.5 -4.5t14.5 -4.5q4 1 7.5 -1.5t6.5 -6l6.5 -7.5t7.5 -6q5 -5 14.5 -5
t9.5 -7q0 -11 -8 -20.5t-10 -18.5q-4 -11 -7 -18.5t-5 -13.5t-3 -12.5t-1 -15.5t1.5 -16.5t10.5 -7.5q8 0 21.5 0.5t26 3.5t21.5 9t9 17v90q0 9 -2 14.5t-5 10t-5 9t-2 11.5q0 5 3.5 5.5t8.5 0.5q6 0 13.5 -1t10.5 -8q-1 -1 -2 -3q-2 -4 -2 -6q6 0 8.5 1.5l7.5 4.5
q8 0 16 -7t12 -8q0 -8 -0.5 -17t-5.5 -16q-6 -3 -8.5 -8t-3 -10.5l-1 -10.5t-3.5 -7q0 -7 4 -12v-45q6 -5 13 -6t14 -1q5 0 14 -0.5t19 0t19 2t13 5.5q4 0 9.5 6t11 13.5t11 13.5t10.5 6q15 -9 30.5 -24.5t15.5 -35.5q0 -9 -3.5 -17.5l-7.5 -18t-7.5 -20.5t-3.5 -25
q0 -31 2 -62.5t2 -63.5q-2 -7 -10 -12.5t-17.5 -9.5t-19.5 -6t-17 -2t-10 4t-5 9t-5 8.5t-10 2.5q-4 0 -16.5 -0.5t-28 -1.5t-32.5 -1.5t-31 -0.5q-17 0 -34 -3t-32 -3q-8 0 -14 2t-14 2q-5 0 -21.5 -1t-28.5 -9q-11 0 -15.5 -4.5t-7.5 -10.5t-8 -12t-15 -9q-15 -1 -22.5 6
t-10.5 16.5t-3 19.5v16q0 1 -1 6t-2 11l-2 11.5t-1 7.5q-2 23 -1.5 46t-1.5 46q1 0 -0.5 6t-4 14.5t-5 18.5t-2.5 19q-2 16 -5.5 32t-3.5 34zM98 128q-3 5 2.5 7t13.5 3t17 2.5t13 5.5q23 20 35.5 46.5t21.5 55.5q2 8 3 14.5t6 13.5q-1 15 5.5 24.5t6.5 23.5q0 19 3.5 29.5
t2.5 24.5q0 2 2.5 5.5t5 11t5 20t2.5 32.5q0 10 6 23t6 23v20q0 1 1 6t2 11t2 10.5t1 6.5v20q0 12 6 29.5t6 36.5q0 2 2 10.5t4 18.5t4 18.5t2 10.5q0 -2 0.5 9.5t3 26t6.5 27t11 12.5q1 -23 -1.5 -48.5t-6.5 -51.5l-7.5 -50.5t-5.5 -44.5q0 -3 -1.5 -9.5t-1.5 -8.5v-25
q0 -8 -1 -15t-5 -14v-67q-5 -8 -6.5 -20t-2.5 -25.5t-1 -27t-2 -23.5q0 -1 -1 -6l-2 -10.5l-2 -10.5t-1 -6q-2 -11 -2.5 -22.5t-0.5 -22.5q-1 -27 -3.5 -41.5l-5 -28t-4.5 -31t-2 -49.5q0 -11 -3 -24.5t-3 -23.5v-21q0 -15 -4.5 -28t-22.5 -13q-4 0 -10 2t-12 5.5t-10 7.5
t-4 9q0 26 -4.5 43t-13.5 28t-22 17.5t-29 11.5zM511 80q0 -6 5.5 -18t8.5 -12q1 -2 7.5 0t15 6.5t18 10.5l17.5 11q5 7 11 10t11.5 7.5t9.5 12.5t4 26q0 27 -6 48t-12 46q-11 0 -25.5 -0.5t-27 -2.5t-21 -5.5t-8.5 -9.5q-2 -16 -2 -36t-6 -34l5.5 -9t2.5 -21q2 -8 -3 -15
t-5 -15zM168 883q12 0 23.5 -6t21.5 -14.5t19 -18.5t17 -18q9 -9 21 -17.5t12 -24.5q0 -6 -7.5 -11t-17.5 -9.5t-19.5 -7t-12.5 -2.5q-11 0 -17.5 3t-9.5 9t-4 13.5t-2 16.5q0 12 -3.5 23t-8 21.5t-8.5 21t-4 21.5zM78 669q0 5 9.5 7.5t14.5 2.5q14 0 27 -10l24 -18
q5 0 13.5 -5.5t16 -14t13 -19.5t5.5 -21q0 -7 -6 -12.5t-15 -9.5t-18 -6t-15 -2q-5 0 -9 5t-4 7q0 10 -1 17.5t-4.5 15t-11.5 16.5l-21 23q0 5 -9 10.5t-9 13.5zM689 727q-12 0 -18 -3t-12 -3q-5 0 -16.5 -1.5t-11.5 -10.5v-46q0 -6 13 -9t21 -3q9 2 18.5 3.5t17.5 4
t14.5 7.5t9.5 15q1 32 -9.5 39t-26.5 7zM629 565q5 -8 13.5 -9t16.5 -1q3 0 11 0.5t17 2t16.5 4t9.5 5.5l5.5 11.5t6.5 10.5v32q0 1 -3.5 2.5t-8 2t-8 1t-4.5 0.5q-10 0 -23 -1t-24 -4t-19 -9.5t-8 -17.5q0 -8 1 -15.5t1 -14.5zM499 657v-8.5t2 -5.5q2 0 16 0.5t30 2t29 3.5
t13 6v48q0 11 -10.5 14.5t-19.5 3.5q-18 0 -30 -6.5t-18.5 -16.5t-9 -21t-2.5 -20zM501 579q0 -9 1 -17t9 -13q29 0 44.5 0.5t23 4t9 10.5t1.5 19q0 11 -1.5 23.5t-16.5 12.5q-6 0 -16 -1t-20 -3t-18.5 -5.5t-11.5 -8.5t-3.5 -11t-0.5 -11zM421 651q0 -9 5 -10.5t13 -1.5
q24 0 27 16t3 37q0 8 -1.5 14.5t-8.5 8.5q-20 0 -31 -2t-11 -22q0 -9 3 -11.5t3 -10.5q0 -6 -1 -9.5t-1 -8.5zM423 571q0 -9 7.5 -16.5t16.5 -7.5q14 0 16 11.5t2 20.5q0 16 -3.5 22t-14.5 6q-18 0 -21 -10.5t-3 -25.5z" />
    <glyph glyph-name="cid13729.001" unicode="&#x6d53;" 
d="M141 -152q5 7 18 13t21 11q2 0 9 8t9 8q35 23 53.5 49.5t36.5 58.5q5 9 6 19t6 19q4 6 9 14.5t6 13.5q0 23 9.5 41t14.5 37q-2 11 5 23t7 25q0 47 6 87t6 85q0 9 -2 17.5t-4 15.5q-7 5 -15 10t-15.5 11t-12.5 13t-5 17q0 2 0.5 5.5t2.5 3.5h31t20 3h60q6 -1 20 -1.5
l29 -1t28.5 -0.5h18.5q4 0 16.5 1t26.5 2t26 2t15 1h50q2 0 13 1l23 2l23 2t13 1q5 0 11 -0.5t13 -0.5q10 0 21 5.5t22 12t21.5 12t19.5 5.5q5 1 13 -4t15 -13t12 -17t5 -15q0 -8 -7.5 -11t-11.5 -3q-3 0 -6 1t-8 1q-23 0 -46.5 -1.5t-49.5 -1.5q-2 0 -7.5 -1l-11.5 -2
t-11 -2t-6 -1h-16t-12 -3h-30q-11 0 -22 -1.5t-20 -4.5q-20 0 -52 0.5t-63.5 -1t-54 -6.5t-22.5 -17q0 -18 10 -26.5t25 -12t32 -3.5h31q1 0 7 1t13 2t12.5 2t7.5 1q37 0 69 1.5t61 1.5q9 2 18 8l17.5 12l16 11t14.5 5q16 0 26 -11t10 -19q0 -17 -9 -20.5t-17 -3.5h-12
q-1 0 -15 -3t-25 -3q-20 0 -39 -1.5t-27 -1.5h-68q-24 0 -52 -3.5t-70 -11.5q-14 -2 -22.5 -5t-14.5 -8t-9.5 -14t-5.5 -24q-3 -14 16 -18q15 0 31 -0.5t29 -1.5t22 -1.5t10 -0.5t7 1.5t13 3.5l12.5 3.5t7.5 1.5h66q14 0 33.5 4t38.5 4q31 0 60 2t48 2q14 7 24.5 17.5
t27.5 15.5q14 -5 28 -21t14 -30q0 -5 -0.5 -7.5t-5.5 -4.5q-24 0 -51.5 1.5t-50.5 0.5q-2 0 -10.5 -1t-18.5 -2t-18.5 -2t-10.5 -1h-48q-14 0 -22 -4t-11.5 -10t-4 -12.5t-0.5 -11.5q0 -4 3 -12.5t9 -18t13.5 -18t16.5 -11.5q17 -3 32 8t27 25.5l21.5 26t17.5 8.5q6 0 18 -5
t12 -19q0 1 -1.5 -2t-4.5 -6.5t-6.5 -6.5t-7.5 -3q-7 -5 -18.5 -12l-23 -14.5t-20 -14t-8.5 -9.5q-2 -15 9.5 -25t28 -17t34 -13t28.5 -15q14 -6 29 -9t28 -5t24 -4t18 -6q-1 -8 -8.5 -12.5t-21.5 -17.5q-6 -6 -9.5 -11.5t-6.5 -9.5t-8 -6.5t-15 -2.5q-1 -3 -4.5 -1.5
t-8 4.5t-9.5 6t-8 3l-36.5 13.5t-33.5 18.5q-3 0 -8 4.5t-10 10.5l-10 11.5t-8 7.5q-2 2 -12 10t-22 16.5l-22 15t-12 6.5l-23.5 -15t-22.5 -25l-12.5 -8.5t-11.5 -9.5q-14 -11 -24 -25t-28 -17l-23.5 -24.5t-23.5 -23t-24.5 -17.5t-24.5 -7q-7 0 -15.5 2.5t-10.5 3.5
l-34 34q-1 8 4 12t11.5 5.5t14 2.5t12.5 4q-1 1 6.5 4l16.5 6.5t17 9t8 12.5v52q0 1 1 6t2 11t2 10.5t1 6.5q2 11 -0.5 30t-2.5 30q0 5 0.5 9.5t0.5 8.5q-5 12 -6 19t-3 11.5t-7 6t-18 1.5q-18 0 -28 -5t-14.5 -12.5t-5.5 -16.5t-3 -16q-6 -6 -7.5 -12.5t-1.5 -12t-1 -11
t-8 -10.5q1 -18 -1.5 -31.5t-6.5 -25.5t-7 -23.5t-3 -25.5q0 -3 -4.5 -7l-10.5 -9t-10.5 -11.5t-4.5 -14.5l-3 -2q-2 -4 -8.5 -11l-14 -15l-14 -15t-8.5 -11q-2 -8 -12.5 -16.5t-25.5 -17t-31.5 -16t-29.5 -12.5q-5 -3 -9 -6.5t-9 -3.5q-2 0 -4 0.5t-2 5.5zM339 787
q0 2 -0.5 4t-0.5 4q0 7 7 7q9 0 16 -6.5t14 -11.5q12 -9 26.5 -17.5t19.5 -24.5q9 -2 16 -2.5t16 -0.5q16 0 16 18v75q-2 9 -5 18q-2 8 -4 15t-3 12q0 7 -6.5 13l-11.5 11q-1 6 2 7.5t8 1.5q11 0 19.5 -4.5t14.5 -4.5q4 1 7.5 -1.5t6.5 -6l6.5 -7.5t7.5 -6q5 -5 14.5 -5
t9.5 -7q0 -11 -8 -20.5t-10 -18.5q-4 -11 -7 -18.5t-5 -13.5t-3 -12.5t-1 -15.5t1.5 -16.5t10.5 -7.5q8 0 21.5 0.5t26 3.5t21.5 9t9 17v90q0 9 -2 14.5t-5 10t-5 9t-2 11.5q0 5 3.5 5.5t8.5 0.5q6 0 13.5 -1t10.5 -8q-1 -1 -2 -3q-2 -4 -2 -6q6 0 8.5 1.5l7.5 4.5
q8 0 16 -7t12 -8q0 -8 -0.5 -17t-5.5 -16q-6 -3 -8.5 -8t-3 -10.5l-1 -10.5t-3.5 -7q0 -7 4 -12v-45q6 -5 13 -6t14 -1q5 0 14 -0.5t19 0t19 2t13 5.5q4 0 9.5 6t11 13.5t11 13.5t10.5 6q15 -9 30.5 -24.5t15.5 -35.5q0 -9 -3.5 -17.5l-7.5 -18t-7.5 -20.5t-3.5 -25
q0 -31 2 -62.5t2 -63.5q-2 -7 -10 -12.5t-17.5 -9.5t-19.5 -6t-17 -2t-10 4t-5 9t-5 8.5t-10 2.5q-4 0 -16.5 -0.5t-28 -1.5t-32.5 -1.5t-31 -0.5q-17 0 -34 -3t-32 -3q-8 0 -14 2t-14 2q-5 0 -21.5 -1t-28.5 -9q-11 0 -15.5 -4.5t-7.5 -10.5t-8 -12t-15 -9q-15 -1 -22.5 6
t-10.5 16.5t-3 19.5v16q0 1 -1 6t-2 11l-2 11.5t-1 7.5q-2 23 -1.5 46t-1.5 46q1 0 -0.5 6t-4 14.5t-5 18.5t-2.5 19q-2 16 -5.5 32t-3.5 34zM98 128q-3 5 2.5 7t13.5 3t17 2.5t13 5.5q23 20 35.5 46.5t21.5 55.5q2 8 3 14.5t6 13.5q-1 15 5.5 24.5t6.5 23.5q0 19 3.5 29.5
t2.5 24.5q0 2 2.5 5.5t5 11t5 20t2.5 32.5q0 10 6 23t6 23v20q0 1 1 6t2 11t2 10.5t1 6.5v20q0 12 6 29.5t6 36.5q0 2 2 10.5t4 18.5t4 18.5t2 10.5q0 -2 0.5 9.5t3 26t6.5 27t11 12.5q1 -23 -1.5 -48.5t-6.5 -51.5l-7.5 -50.5t-5.5 -44.5q0 -3 -1.5 -9.5t-1.5 -8.5v-25
q0 -8 -1 -15t-5 -14v-67q-5 -8 -6.5 -20t-2.5 -25.5t-1 -27t-2 -23.5q0 -1 -1 -6l-2 -10.5l-2 -10.5t-1 -6q-2 -11 -2.5 -22.5t-0.5 -22.5q-1 -27 -3.5 -41.5l-5 -28t-4.5 -31t-2 -49.5q0 -11 -3 -24.5t-3 -23.5v-21q0 -15 -4.5 -28t-22.5 -13q-4 0 -10 2t-12 5.5t-10 7.5
t-4 9q0 26 -4.5 43t-13.5 28t-22 17.5t-29 11.5zM511 80q0 -6 5.5 -18t8.5 -12q1 -2 7.5 0t15 6.5t18 10.5l17.5 11q5 7 11 10t11.5 7.5t9.5 12.5t4 26q0 27 -6 48t-12 46q-11 0 -25.5 -0.5t-27 -2.5t-21 -5.5t-8.5 -9.5q-2 -16 -2 -36t-6 -34l5.5 -9t2.5 -21q2 -8 -3 -15
t-5 -15zM168 883q12 0 23.5 -6t21.5 -14.5t19 -18.5t17 -18q9 -9 21 -17.5t12 -24.5q0 -6 -7.5 -11t-17.5 -9.5t-19.5 -7t-12.5 -2.5q-11 0 -17.5 3t-9.5 9t-4 13.5t-2 16.5q0 12 -3.5 23t-8 21.5t-8.5 21t-4 21.5zM78 669q0 5 9.5 7.5t14.5 2.5q14 0 27 -10l24 -18
q5 0 13.5 -5.5t16 -14t13 -19.5t5.5 -21q0 -7 -6 -12.5t-15 -9.5t-18 -6t-15 -2q-5 0 -9 5t-4 7q0 10 -1 17.5t-4.5 15t-11.5 16.5l-21 23q0 5 -9 10.5t-9 13.5zM689 727q-12 0 -18 -3t-12 -3q-5 0 -16.5 -1.5t-11.5 -10.5v-46q0 -6 13 -9t21 -3q9 2 18.5 3.5t17.5 4
t14.5 7.5t9.5 15q1 32 -9.5 39t-26.5 7zM629 565q5 -8 13.5 -9t16.5 -1q3 0 11 0.5t17 2t16.5 4t9.5 5.5l5.5 11.5t6.5 10.5v32q0 1 -3.5 2.5t-8 2t-8 1t-4.5 0.5q-10 0 -23 -1t-24 -4t-19 -9.5t-8 -17.5q0 -8 1 -15.5t1 -14.5zM499 657v-8.5t2 -5.5q2 0 16 0.5t30 2t29 3.5
t13 6v48q0 11 -10.5 14.5t-19.5 3.5q-18 0 -30 -6.5t-18.5 -16.5t-9 -21t-2.5 -20zM501 579q0 -9 1 -17t9 -13q29 0 44.5 0.5t23 4t9 10.5t1.5 19q0 11 -1.5 23.5t-16.5 12.5q-6 0 -16 -1t-20 -3t-18.5 -5.5t-11.5 -8.5t-3.5 -11t-0.5 -11zM421 651q0 -9 5 -10.5t13 -1.5
q24 0 27 16t3 37q0 8 -1.5 14.5t-8.5 8.5q-20 0 -31 -2t-11 -22q0 -9 3 -11.5t3 -10.5q0 -6 -1 -9.5t-1 -8.5zM423 571q0 -9 7.5 -16.5t16.5 -7.5q14 0 16 11.5t2 20.5q0 16 -3.5 22t-14.5 6q-18 0 -21 -10.5t-3 -25.5z" />
    <glyph glyph-name="cid17166" unicode="&#x800c;" 
d="M655 -31q-2 0 -8.5 1t-13.5 3t-12.5 5t-5.5 6q0 5 7.5 7.5t12.5 4.5q28 8 48.5 12.5t34 11t20.5 16.5t7 29q0 1 1 7.5l2 13.5l2 13.5t1 7.5q3 32 3.5 60.5t0.5 63.5q0 42 -2.5 82.5t-2.5 81.5q0 9 0.5 17.5t0.5 16.5q-5 5 -10.5 11.5t-13.5 6.5q-12 0 -32 2t-40 2
q-2 -2 -4.5 -0.5t-6.5 1t-10 -5t-15 -19.5v-58q-3 -5 -3.5 -8t-0.5 -8q0 -9 0.5 -13t3.5 -13v-136q0 -2 2 -5.5t2 -6.5q0 2 -2 -8t-2 -16v-111q-4 -10 -5 -18.5t-3 -14.5t-7.5 -10t-18.5 -5q-7 0 -15.5 -0.5t-15.5 1t-12 7t-5 19.5q0 5 3 18.5t3 32.5q3 43 4.5 88t1.5 87
q0 6 -1 20l-2 29t-2 27t-1 14q0 31 3 39t3 9q-1 0 -1.5 6t-1 14.5t-1.5 16.5t-2 11l-6 6q-10 0 -25 3.5t-23 8.5q-8 0 -21 -1.5t-21 -6.5q-5 -3 -7.5 -6.5t-10.5 -5.5q0 -11 0.5 -20.5t-2.5 -15.5q-1 -7 0.5 -12.5t1.5 -13.5q1 -20 0 -47.5t-2.5 -56.5t-2.5 -55t-1 -41v-12
t4 -12l-10 -115q0 -6 -5 -12t-12.5 -11.5t-15 -9t-12.5 -3.5q-18 0 -24 14.5t-6 30.5q0 5 1.5 9.5t1.5 11.5l-3 9q0 2 1.5 6t1.5 6q5 44 7.5 88t2.5 88v31.5t-1 30.5q2 5 4 16t2 16l-3 12q-1 7 1 10.5t2 11.5q0 12 -0.5 21.5t-2.5 20.5t-11.5 12.5t-19.5 1.5t-18 3.5
t-8 18.5q30 2 44.5 5.5t21.5 9.5t10 15.5t9 23.5q0 2 3 5t3 11q3 5 -5 10.5t-8 15.5q0 6 4 9.5t9 6.5t9 6t5 8q0 17 6 30.5t6 21.5v27q0 11 5 21t5 21q0 8 -5 12t-12 6t-16 2.5t-16 0.5l-9 -3h-60q-7 -5 -17.5 -5h-14.5q-8 0 -13 5h-26t-22 -3h-114q-2 1 -6.5 3t-10 6.5
t-9.5 11t-4 15.5q0 2 4.5 5.5t7.5 3.5q14 0 26.5 -3t26.5 -3h30q10 0 19.5 -1.5t20.5 -1.5q2 -4 3.5 -0.5t17.5 3.5q5 -2 12 -3.5l12 -2.5q7 1 20 0.5t28 -1t30 0.5t27 6q4 -1 15 0.5t19 -3.5h66q2 2 5.5 2.5t6.5 0.5q6 0 14 -1.5t16 -1.5l6 3h56l6 -3q18 3 39 4.5t41 1.5
q5 0 7 -1t7 -2h25.5h10.5t4.5 0.5l7.5 2.5q4 0 6.5 -1t4.5 -1q10 0 12.5 10t10.5 16q-1 0 4 5l12 12.5l15 16.5t13 17q8 5 9.5 7.5t6.5 4.5q6 0 13 -6t15 -14.5l17 -18t18 -15.5q7 -11 17.5 -20l20 -16.5t16 -14t6.5 -12.5q0 -11 -8.5 -13t-15.5 -2h-9q-45 5 -92 8.5
t-92 3.5q-21 0 -43 -0.5t-41.5 -2t-34 -4t-19.5 -5.5q-22 -22 -37 -49.5l-29 -52.5q-5 -10 -11.5 -14.5t-6.5 -16.5q-8 -14 -17.5 -27.5t-17.5 -28.5t-13.5 -31t-5.5 -33q18 0 29 -1t25 -1l6 2q8 0 18.5 0.5t20 1.5t16.5 1.5l7 0.5h170q10 0 19 6.5t18 14.5t17.5 14.5
t17.5 6.5q7 0 10 -2.5t6 -6t7 -7t13 -6.5q1 1 4 -1.5t7 -7t8 -8t7 -3.5q14 -12 25.5 -20t11.5 -26q0 -8 -8.5 -12.5t-19 -9t-19 -10.5t-8.5 -16q0 -27 2 -52.5t2 -49.5q0 -14 -2 -18t-2 -12q0 -26 -1 -48t-1 -48v-4q0 -2 1 -4.5t1 -7.5q0 -45 -2 -75t-7 -50t-13 -33t-20 -25
q-4 -4 -11 -12t-15 -16t-17.5 -14t-18.5 -6q-18 0 -24 12.5t-12 23.5q0 6 -16.5 12.5t-29.5 14.5zM150 17q0 55 6 111v275q0 11 -4.5 27.5t-4.5 38.5q-1 7 -7 10t-12.5 4.5t-12 5t-5.5 12.5q-2 4 2.5 4.5t7.5 1.5q5 0 11 8t13 8q14 0 24.5 -3.5t20 -8t18.5 -9.5t21 -9
q1 0 7 -4.5t12.5 -11t11.5 -13.5t5 -11l-3 -3q-2 -2 -3.5 -3t-2.5 -2q-4 2 -8.5 -2.5t-8.5 -13t-7 -18.5t-3 -18q0 1 1 -14t2 -39.5t2 -54.5t1 -60q2 -5 4 -21t2 -21v-4q0 -1 -0.5 -5t-1 -9l-1 -10t-0.5 -6q0 -12 1.5 -25.5t1.5 -28.5q0 -2 -1.5 -9t-1.5 -9q3 -8 3 -17v-31
q0 1 -3 -6.5t-8.5 -17.5t-13 -18.5t-17.5 -8.5q-28 0 -38 14t-10 25z" />
    <glyph glyph-name="cid19908" unicode="&#x8d28;" 
d="M78 -104q0 3 4.5 7.5t7.5 4.5l47 25.5l36 18.5l28.5 14.5l26.5 13.5q9 5 16 11t14 11t15 9t15 9q3 3 11 9t16.5 13.5t14.5 15t6 12.5q0 9 -8 10.5t-13 1.5q-12 0 -18 -2.5t-9.5 -7.5t-7 -12t-10.5 -16l-30 -16q-13 -1 -20.5 6t-11 17.5t-4 22.5t-0.5 22q0 27 1.5 53
t1.5 55q0 24 -0.5 43t-1 36l-1 35t-0.5 39q0 20 -4.5 37.5t-4.5 31.5q0 3 1.5 4.5t10.5 1.5q1 0 7 -0.5l12.5 -1l12.5 -1t7 -0.5h13q5 0 9 -0.5t8 -2.5q7 -8 15.5 -8.5t14.5 -3.5q7 0 15.5 4.5t8.5 13.5q0 7 -3.5 12t-5.5 12q0 3 -0.5 12.5l-1 19.5t-1 19t-0.5 12
q-2 12 0.5 33.5t2.5 38.5q0 8 -1 12.5t-8 9.5q-11 0 -30 -3t-39 -3q-4 2 -9.5 -9t-5.5 -19l3 -12q0 -2 -1.5 -7t-1.5 -7q-16 -35 -39 -70t-51 -54q-3 -2 -9 -7.5l-12 -11t-11.5 -10t-9.5 -4.5q-4 -8 -13.5 -11.5t-14.5 -3.5q0 8 4.5 14t10.5 12t13.5 12.5t13.5 15.5
q9 8 13.5 17t8 18.5l7 18.5t11.5 16q1 0 2.5 5t4 11.5t5.5 12.5t6 9v3q0 8 5 19t7 18q0 22 3 47.5t3 51.5q0 34 -9 56t-27 49q-3 6 2.5 10.5t12.5 4.5q11 0 18 -2.5t12.5 -5.5l11.5 -6t15 -4h13.5t10.5 -6h3q20 7 39 5.5t39 3.5q4 -1 8.5 2t9.5 7.5t12 8.5t15 6q8 8 16 17.5
t10 9.5h13q4 -9 11.5 -16l14 -13t11.5 -12.5t5 -15.5t-7 -13t-17.5 -6.5t-22 -3.5t-21.5 -4q-3 0 -14.5 -4.5t-13.5 -4.5q-5 0 -9 1.5t-6 1.5q-5 0 -11.5 -1.5t-12.5 -1.5t-17 0.5t-22 0t-20 -4t-10 -11.5q-2 -11 -2.5 -19t-0.5 -15.5v-16.5v-22q5 -6 17 -7t19 -1h16.5
t10.5 2q2 1 5.5 0t9.5 -2q2 0 13.5 1t13.5 1q15 1 26.5 1.5t20.5 3t17.5 8.5t17.5 18q2 2 6 10t12 8q3 0 8.5 -7t10.5 -16t9 -18.5t4 -13.5q0 -13 -15 -15t-33 -2t-33 -4t-15 -21v-98q3 -8 3.5 -11t0.5 -11q0 -14 -6.5 -25.5t-6.5 -25.5q0 -2 3 -4t14.5 -3t34.5 -1.5
t63 -0.5q1 0 8 1t17.5 2l22 2t20.5 1q28 0 50 0.5t38.5 3.5t28.5 9t22 17q0 9 -6 20t-6 20v128q0 5 -3.5 7.5t-8.5 2.5q-14 0 -30 -0.5t-33 -5.5h-10q-11 0 -18.5 -16t-7.5 -36q0 -18 -11.5 -36t-25 -32t-26 -24t-13.5 -13q-14 -2 -24.5 -11.5t-25.5 -9.5q-10 0 -10 9
t7 11.5t15 7.5l20 20q0 6 6 13l13.5 15.5t14 19t6.5 22.5q0 29 6 58.5t6 55.5q0 17 -2 23t-2 16q0 17 -2 27t-5 16.5t-5 12.5t-2 16q0 5 5 8.5t13 3.5q9 0 18.5 -7.5t17.5 -7.5q19 2 40 4.5t41 7.5q2 0 9 1.5t9 1.5q11 0 17.5 2t11 5.5t9 7.5t12.5 9q-3 2 9.5 12t21.5 24
q7 -3 18 -9t22.5 -14.5t20 -18.5t11.5 -21q-1 -7 -1 -15.5t-11 -8.5q-7 0 -13 1.5t-8 1.5t-9 -3t-9 -3q-8 0 -12.5 -1t-11 -2t-16 -2t-26.5 -1q-2 0 -7.5 -1.5t-7.5 -1.5q-35 0 -54.5 -3.5t-28.5 -11.5t-11 -20.5t-2 -30.5q0 -2 0.5 -9t5.5 -9q16 -5 34.5 -7t34.5 -2
q6 3 21.5 3h29.5q2 2 9 4t9 2q5 -3 13 -3h14q1 0 9 0.5t16.5 1.5t15.5 2t7 2l36 36q3 3 12 3q15 0 28 -15q3 -2 9.5 -7.5l14 -11.5t13 -12.5t5.5 -11.5q0 -10 -7.5 -12.5t-16.5 -2.5q-5 0 -9.5 0.5t-8.5 0.5q-5 0 -15 -0.5t-21.5 -1.5t-22 -1.5t-14.5 -0.5q-9 -3 -16.5 -3
t-13 -3t-9 -11t-3.5 -25v-18q0 -15 -3 -26.5t-3 -33.5q2 -2 0 -5.5t-5.5 -8.5t-6.5 -10.5t-3 -11.5t-10.5 -14t-10.5 -16q0 -3 3.5 -8.5t8 -11t9 -9.5t6.5 -4q7 -7 17 -13t10 -17q0 -6 -2.5 -9.5l-5.5 -7.5t-6 -9t-4 -13q-5 -25 -5.5 -48t-0.5 -49q0 -29 1.5 -52.5
t1.5 -55.5q0 -21 -4 -39t-20 -33q-5 -5 -14.5 -12t-9.5 -12q0 -6 9 -11.5t21.5 -11.5t26.5 -12t24 -13q11 -2 16 -12t5 -18q0 -17 -7.5 -25.5t-16.5 -20.5q-11 -5 -17.5 -14.5t-18.5 -9.5q-16 0 -27 5t-18.5 12.5t-13 17t-10.5 19.5q4 -2 -8 7t-43 41l-9 6q-10 15 -27 21.5
t-31 14.5q-1 0 -7.5 5l-15 11l-16 11.5t-9.5 6.5h-66l-11 -2t-23.5 -4.5t-21 -5.5t-4.5 -4q0 -5 3 -9l6 -8t6 -8.5t3 -10.5q0 -11 -3.5 -14.5t-4.5 -11.5q-9 1 -16 -1.5t-13 -6t-12.5 -6.5t-13.5 -4q-8 0 -21 -6t-15 -10q-2 -2 -12 -7t-12 -5q-2 1 -6.5 0t-15.5 -6.5
t-30.5 -14.5t-52.5 -23q-2 1 -7 -2t-12 -6.5t-15.5 -6.5t-16.5 -3q-12 -5 -19 -10.5t-21 -5.5q-5 0 -11.5 0.5t-8.5 5.5zM285 164q0 -17 2 -30.5t10 -13.5h19t21.5 1t18 2t7.5 3q-1 0 6.5 -1t11.5 -3q19 -1 34.5 1.5t35.5 2.5q6 0 14 3t16 3q9 0 19 -2t19 -2q12 0 23 2t23 2
q5 0 7 -2t7 -2q7 4 21 3.5t27.5 -0.5t23.5 2t10 11q0 23 1.5 41.5t1.5 36.5q0 1 -0.5 7.5t-1 14.5t-1 14.5t-0.5 7.5q0 2 0.5 9t1 15.5t1 15.5t0.5 9q0 3 0.5 15t-0.5 25.5t-3.5 25.5t-8.5 15q-19 0 -29.5 -0.5t-17 -1t-11 -1t-11.5 -0.5q-29 -4 -57.5 -1.5t-56.5 -4.5
q1 0 -16.5 -1.5t-43.5 -3l-54.5 -3t-48.5 -1.5q-15 0 -20 -6.5t-5.5 -15t1 -17t0.5 -12.5l9 -9h84q2 0 6 1.5t6 1.5q18 0 34 4.5t24 4.5q13 0 23 -1.5t21 -1.5q21 0 42.5 3t41.5 3q9 0 16.5 -2t7.5 -13q2 -2 -2 -7t-6 -5q-5 1 -11 1h-11q-19 0 -37 -2.5t-37 -4.5
q-26 -3 -59 -1.5t-59 -7.5h-75q-14 0 -16 -12t-2 -21q0 -21 12 -25.5t30 -4.5q21 0 35.5 0.5t33.5 0.5t47 0.5t77 0.5q2 0 5.5 2t6.5 2q2 0 7 -2t7 -2q3 0 9.5 2t8.5 2q3 -1 9 0t12 0t10.5 -4t4.5 -12q0 -15 -15 -19.5t-27 -4.5h-108q-11 0 -19.5 5t-16.5 5q-11 0 -20 -3.5
t-19 -8.5q-14 0 -29.5 1t-28.5 -1t-21 -8t-8 -20zM613 86q11 0 19 -8t20 -8q5 0 5.5 3t0.5 9q0 15 -9.5 22t-20.5 12q-5 0 -16 -6.5t-11 -11.5z" />
    <glyph glyph-name="cid19908" unicode="&#x8cea;" 
d="M78 -104q0 3 4.5 7.5t7.5 4.5l47 25.5l36 18.5l28.5 14.5l26.5 13.5q9 5 16 11t14 11t15 9t15 9q3 3 11 9t16.5 13.5t14.5 15t6 12.5q0 9 -8 10.5t-13 1.5q-12 0 -18 -2.5t-9.5 -7.5t-7 -12t-10.5 -16l-30 -16q-13 -1 -20.5 6t-11 17.5t-4 22.5t-0.5 22q0 27 1.5 53
t1.5 55q0 24 -0.5 43t-1 36l-1 35t-0.5 39q0 20 -4.5 37.5t-4.5 31.5q0 3 1.5 4.5t10.5 1.5q1 0 7 -0.5l12.5 -1l12.5 -1t7 -0.5h13q5 0 9 -0.5t8 -2.5q7 -8 15.5 -8.5t14.5 -3.5q7 0 15.5 4.5t8.5 13.5q0 7 -3.5 12t-5.5 12q0 3 -0.5 12.5l-1 19.5t-1 19t-0.5 12
q-2 12 0.5 33.5t2.5 38.5q0 8 -1 12.5t-8 9.5q-11 0 -30 -3t-39 -3q-4 2 -9.5 -9t-5.5 -19l3 -12q0 -2 -1.5 -7t-1.5 -7q-16 -35 -39 -70t-51 -54q-3 -2 -9 -7.5l-12 -11t-11.5 -10t-9.5 -4.5q-4 -8 -13.5 -11.5t-14.5 -3.5q0 8 4.5 14t10.5 12t13.5 12.5t13.5 15.5
q9 8 13.5 17t8 18.5l7 18.5t11.5 16q1 0 2.5 5t4 11.5t5.5 12.5t6 9v3q0 8 5 19t7 18q0 22 3 47.5t3 51.5q0 34 -9 56t-27 49q-3 6 2.5 10.5t12.5 4.5q11 0 18 -2.5t12.5 -5.5l11.5 -6t15 -4h13.5t10.5 -6h3q20 7 39 5.5t39 3.5q4 -1 8.5 2t9.5 7.5t12 8.5t15 6q8 8 16 17.5
t10 9.5h13q4 -9 11.5 -16l14 -13t11.5 -12.5t5 -15.5t-7 -13t-17.5 -6.5t-22 -3.5t-21.5 -4q-3 0 -14.5 -4.5t-13.5 -4.5q-5 0 -9 1.5t-6 1.5q-5 0 -11.5 -1.5t-12.5 -1.5t-17 0.5t-22 0t-20 -4t-10 -11.5q-2 -11 -2.5 -19t-0.5 -15.5v-16.5v-22q5 -6 17 -7t19 -1h16.5
t10.5 2q2 1 5.5 0t9.5 -2q2 0 13.5 1t13.5 1q15 1 26.5 1.5t20.5 3t17.5 8.5t17.5 18q2 2 6 10t12 8q3 0 8.5 -7t10.5 -16t9 -18.5t4 -13.5q0 -13 -15 -15t-33 -2t-33 -4t-15 -21v-98q3 -8 3.5 -11t0.5 -11q0 -14 -6.5 -25.5t-6.5 -25.5q0 -2 3 -4t14.5 -3t34.5 -1.5
t63 -0.5q1 0 8 1t17.5 2l22 2t20.5 1q28 0 50 0.5t38.5 3.5t28.5 9t22 17q0 9 -6 20t-6 20v128q0 5 -3.5 7.5t-8.5 2.5q-14 0 -30 -0.5t-33 -5.5h-10q-11 0 -18.5 -16t-7.5 -36q0 -18 -11.5 -36t-25 -32t-26 -24t-13.5 -13q-14 -2 -24.5 -11.5t-25.5 -9.5q-10 0 -10 9
t7 11.5t15 7.5l20 20q0 6 6 13l13.5 15.5t14 19t6.5 22.5q0 29 6 58.5t6 55.5q0 17 -2 23t-2 16q0 17 -2 27t-5 16.5t-5 12.5t-2 16q0 5 5 8.5t13 3.5q9 0 18.5 -7.5t17.5 -7.5q19 2 40 4.5t41 7.5q2 0 9 1.5t9 1.5q11 0 17.5 2t11 5.5t9 7.5t12.5 9q-3 2 9.5 12t21.5 24
q7 -3 18 -9t22.5 -14.5t20 -18.5t11.5 -21q-1 -7 -1 -15.5t-11 -8.5q-7 0 -13 1.5t-8 1.5t-9 -3t-9 -3q-8 0 -12.5 -1t-11 -2t-16 -2t-26.5 -1q-2 0 -7.5 -1.5t-7.5 -1.5q-35 0 -54.5 -3.5t-28.5 -11.5t-11 -20.5t-2 -30.5q0 -2 0.5 -9t5.5 -9q16 -5 34.5 -7t34.5 -2
q6 3 21.5 3h29.5q2 2 9 4t9 2q5 -3 13 -3h14q1 0 9 0.5t16.5 1.5t15.5 2t7 2l36 36q3 3 12 3q15 0 28 -15q3 -2 9.5 -7.5l14 -11.5t13 -12.5t5.5 -11.5q0 -10 -7.5 -12.5t-16.5 -2.5q-5 0 -9.5 0.5t-8.5 0.5q-5 0 -15 -0.5t-21.5 -1.5t-22 -1.5t-14.5 -0.5q-9 -3 -16.5 -3
t-13 -3t-9 -11t-3.5 -25v-18q0 -15 -3 -26.5t-3 -33.5q2 -2 0 -5.5t-5.5 -8.5t-6.5 -10.5t-3 -11.5t-10.5 -14t-10.5 -16q0 -3 3.5 -8.5t8 -11t9 -9.5t6.5 -4q7 -7 17 -13t10 -17q0 -6 -2.5 -9.5l-5.5 -7.5t-6 -9t-4 -13q-5 -25 -5.5 -48t-0.5 -49q0 -29 1.5 -52.5
t1.5 -55.5q0 -21 -4 -39t-20 -33q-5 -5 -14.5 -12t-9.5 -12q0 -6 9 -11.5t21.5 -11.5t26.5 -12t24 -13q11 -2 16 -12t5 -18q0 -17 -7.5 -25.5t-16.5 -20.5q-11 -5 -17.5 -14.5t-18.5 -9.5q-16 0 -27 5t-18.5 12.5t-13 17t-10.5 19.5q4 -2 -8 7t-43 41l-9 6q-10 15 -27 21.5
t-31 14.5q-1 0 -7.5 5l-15 11l-16 11.5t-9.5 6.5h-66l-11 -2t-23.5 -4.5t-21 -5.5t-4.5 -4q0 -5 3 -9l6 -8t6 -8.5t3 -10.5q0 -11 -3.5 -14.5t-4.5 -11.5q-9 1 -16 -1.5t-13 -6t-12.5 -6.5t-13.5 -4q-8 0 -21 -6t-15 -10q-2 -2 -12 -7t-12 -5q-2 1 -6.5 0t-15.5 -6.5
t-30.5 -14.5t-52.5 -23q-2 1 -7 -2t-12 -6.5t-15.5 -6.5t-16.5 -3q-12 -5 -19 -10.5t-21 -5.5q-5 0 -11.5 0.5t-8.5 5.5zM285 164q0 -17 2 -30.5t10 -13.5h19t21.5 1t18 2t7.5 3q-1 0 6.5 -1t11.5 -3q19 -1 34.5 1.5t35.5 2.5q6 0 14 3t16 3q9 0 19 -2t19 -2q12 0 23 2t23 2
q5 0 7 -2t7 -2q7 4 21 3.5t27.5 -0.5t23.5 2t10 11q0 23 1.5 41.5t1.5 36.5q0 1 -0.5 7.5t-1 14.5t-1 14.5t-0.5 7.5q0 2 0.5 9t1 15.5t1 15.5t0.5 9q0 3 0.5 15t-0.5 25.5t-3.5 25.5t-8.5 15q-19 0 -29.5 -0.5t-17 -1t-11 -1t-11.5 -0.5q-29 -4 -57.5 -1.5t-56.5 -4.5
q1 0 -16.5 -1.5t-43.5 -3l-54.5 -3t-48.5 -1.5q-15 0 -20 -6.5t-5.5 -15t1 -17t0.5 -12.5l9 -9h84q2 0 6 1.5t6 1.5q18 0 34 4.5t24 4.5q13 0 23 -1.5t21 -1.5q21 0 42.5 3t41.5 3q9 0 16.5 -2t7.5 -13q2 -2 -2 -7t-6 -5q-5 1 -11 1h-11q-19 0 -37 -2.5t-37 -4.5
q-26 -3 -59 -1.5t-59 -7.5h-75q-14 0 -16 -12t-2 -21q0 -21 12 -25.5t30 -4.5q21 0 35.5 0.5t33.5 0.5t47 0.5t77 0.5q2 0 5.5 2t6.5 2q2 0 7 -2t7 -2q3 0 9.5 2t8.5 2q3 -1 9 0t12 0t10.5 -4t4.5 -12q0 -15 -15 -19.5t-27 -4.5h-108q-11 0 -19.5 5t-16.5 5q-11 0 -20 -3.5
t-19 -8.5q-14 0 -29.5 1t-28.5 -1t-21 -8t-8 -20zM613 86q11 0 19 -8t20 -8q5 0 5.5 3t0.5 9q0 15 -9.5 22t-20.5 12q-5 0 -16 -6.5t-11 -11.5z" />
    <glyph glyph-name="cid2" unicode="!" horiz-adv-x="328" 
d="M144 243q-2 60 -5 108t-9.5 97t-16.5 104t-26 129q-2 12 -4 25.5t-2 21.5q0 58 84 58q83 0 83 -58q0 -8 -0.5 -14t-2.5 -17l-6 -32t-12 -58q-18 -86 -28.5 -175t-13.5 -189h-41zM164 172q35 0 59 -24t24 -59t-24 -59t-59 -24t-59 24t-24 59t24 59t59 24z" />
    <glyph glyph-name="cid3" unicode="&#x22;" horiz-adv-x="379" 
d="M164 768l-30 -254h-60l-31 254h121zM336 768l-31 -254h-59l-31 254h121z" />
    <glyph glyph-name="cid4" unicode="#" horiz-adv-x="685" 
d="M75 272v49h123l29 183h-128v49h136l35 215h60l-35 -215h131l35 215h61l-35 -215h122v-49h-130l-29 -183h138v-49h-145l-41 -252h-60l40 252h-131l-41 -252h-60l41 252h-116zM390 321l29 183h-132l-28 -183h131z" />
    <glyph glyph-name="cid5" unicode="$" horiz-adv-x="640" 
d="M298 13q-52 2 -86.5 10.5t-66.5 28.5q-38 23 -58 53.5t-20 64.5q0 27 20.5 42t56.5 15t49 -18q2 -3 3.5 -5.5t2 -7.5t1 -13.5t1.5 -23.5q6 -106 97 -121v314q-60 25 -101 49.5t-66 50t-36 55t-11 65.5q0 55 26 100.5t71 69.5q23 13 50 19.5t67 11.5v55h42v-55
q52 -3 85.5 -10.5t62.5 -23.5q37 -20 56.5 -47.5t19.5 -59.5q0 -27 -19 -42t-54 -15q-38 0 -50 20q-3 4 -4 6.5t-2 7t-1 13v23.5q-1 26 -8.5 46.5t-21.5 34.5q-11 11 -24.5 16t-39.5 7v-284l55.5 -25.5l38 -18t26 -13.5t20.5 -13q90 -60 90 -169q0 -60 -26 -106t-74 -73
q-30 -17 -59 -24.5t-71 -9.5v-85h-42v85zM298 749q-26 -3 -43.5 -11t-31.5 -23q-34 -37 -34 -99q0 -23 5.5 -41.5t18 -34.5t33.5 -30.5t52 -29.5v269zM340 38q35 3 57.5 16.5t39.5 40.5q22 37 22 89q0 26 -6 47t-20 38.5t-36.5 33t-56.5 32.5v-297z" />
    <glyph glyph-name="cid6" unicode="%" horiz-adv-x="863" 
d="M37 574q0 95 49 151t133 56q85 0 134 -55t49 -151t-49.5 -152t-133.5 -56t-133 56t-49 151zM151 574q0 -97 16 -140.5t53 -43.5q36 0 52 43t16 140q0 99 -16 142t-53 43q-35 0 -51.5 -43.5t-16.5 -140.5zM729 759l-564 -757l-30 25l563 756zM461 212q0 95 49 151t132 56
q85 0 134.5 -55t49.5 -152q0 -47 -13 -85t-37 -65t-57.5 -42t-75.5 -15q-84 0 -133 56t-49 151zM575 214q0 -98 16 -141.5t53 -43.5q36 0 52 43t16 140q0 98 -16 141t-53 43q-35 0 -51.5 -43.5t-16.5 -138.5z" />
    <glyph glyph-name="cid7" unicode="&#x26;" horiz-adv-x="819" 
d="M789 440v-25q-26 -3 -41 -9t-28 -17l-10.5 -10.5t-10 -14t-13 -25.5l-20.5 -44q-12 -25 -26.5 -50.5t-29.5 -48.5l72 -75l37 -37.5t28 -22.5t25 -11.5t27 -4.5v-25h-202l-71 80q-56 -49 -110.5 -70.5t-124.5 -21.5q-54 0 -98 13.5t-73 39.5q-26 24 -40.5 61.5t-14.5 79.5
q0 75 42 127t134 90q-26 29 -44.5 53t-29.5 45t-16 41.5t-5 41.5q0 29 12 58.5t33 52.5q26 30 72 46t103 16q91 0 145 -40t54 -108q0 -59 -44.5 -102.5t-143.5 -80.5l210 -224q50 79 50 135q0 30 -19 43.5t-66 18.5v25h237zM357 465q26 15 40.5 25.5t27.5 24.5q39 43 39 113
q0 57 -26 89t-72 32q-45 0 -72.5 -31.5t-27.5 -83.5q0 -29 9.5 -54.5t32.5 -56.5l13 -16l15.5 -19.5t13.5 -16t7 -6.5zM267 389q-16 -12 -24.5 -20.5t-16.5 -20.5q-14 -21 -22.5 -51.5t-8.5 -63.5q0 -83 41.5 -132.5t111.5 -49.5q25 0 50.5 6.5t47.5 18.5q15 8 27 18t32 30z
" />
    <glyph glyph-name="cid8" unicode="'" horiz-adv-x="207" 
d="M164 768l-30 -254h-60l-31 254h121z" />
    <glyph glyph-name="cid9" unicode="(" horiz-adv-x="320" 
d="M296 771q-28 -39 -46 -74.5t-32 -80.5q-20 -66 -30.5 -142.5t-10.5 -167.5q0 -198 50 -335q13 -35 29 -65.5t40 -65.5l-19 -16q-45 39 -74 75t-55 82q-42 74 -64 156.5t-22 168.5q0 93 25 181t74 166q23 38 49.5 69t66.5 66z" />
    <glyph glyph-name="cid10" unicode=")" horiz-adv-x="320" 
d="M24 -160q62 86 90.5 198t28.5 268t-28.5 267.5t-90.5 197.5l19 17q44 -39 74 -75t56 -82q85 -150 85 -325q0 -94 -25 -181.5t-73 -165.5q-24 -38 -51 -69t-66 -66z" />
    <glyph glyph-name="cid11" unicode="*" horiz-adv-x="402" 
d="M218 635q10 9 16 15l12.5 12.5l16 16.5l26.5 28q16 17 30 17q20 0 37 -33q10 -17 10 -30q0 -12 -14 -18q-2 -1 -4.5 -2t-7.5 -2.5t-14 -4.5t-24 -7l-32.5 -10l-39.5 -13l20.5 -8t14 -5l15 -4.5l22.5 -6.5q21 -6 34 -10.5t20 -8.5t9 -7.5t2 -9.5q0 -10 -4.5 -21t-11 -20
t-14.5 -15t-15 -6q-15 0 -37 23l-33.5 35t-31.5 31q4 -20 10 -44.5l14 -55.5q4 -12 4 -24q0 -13 -13 -20t-35 -7q-21 0 -33.5 7t-12.5 19q0 5 4 22t10 39q5 20 7.5 32.5l6.5 31.5l-19 -19.5l-49 -52.5q-18 -19 -31 -19q-19 0 -37 31q-10 18 -10 30q0 14 19 21q4 1 22.5 7.5
l51.5 17.5q2 0 8.5 2.5l16.5 6.5q7 2 17 6q-35 14 -56.5 20.5t-38.5 10.5q-25 6 -33 11.5t-8 16.5q0 10 4 21t11 20t14.5 15t15.5 6q4 0 7.5 -1t9 -5t13.5 -12l22 -22l48 -48q-1 8 -2 14t-3 15.5t-6 26l-11 46.5q-2 8 -3 13.5t-1 8.5q0 11 13 18t34 7q20 0 32.5 -6.5
t12.5 -17.5q0 -5 -1 -11t-3 -14q-7 -23 -14 -51.5t-10 -48.5z" />
    <glyph glyph-name="cid12" unicode="+" horiz-adv-x="685" 
d="M373 31h-61v252h-241v57h241v233h61v-233h240v-57h-240v-252z" />
    <glyph glyph-name="cid13" unicode="," horiz-adv-x="320" 
d="M78 -99q85 44 85 94q0 11 -5.5 16.5t-22.5 9.5q-62 17 -62 73q0 35 23.5 57.5t59.5 22.5q42 0 66.5 -28t24.5 -75q0 -64 -39.5 -116t-108.5 -80z" />
    <glyph glyph-name="cid14" unicode="-" horiz-adv-x="339" 
d="M52 354h235v-84h-235v84z" />
    <glyph glyph-name="cid15" unicode="." horiz-adv-x="320" 
d="M160 173q35 0 59.5 -24.5t24.5 -59.5q0 -18 -6.5 -33.5t-18 -27t-27 -18t-32.5 -6.5q-35 0 -60 25t-25 60t24.5 59.5t60.5 24.5z" />
    <glyph glyph-name="cid16" unicode="/" horiz-adv-x="394" 
d="M309 768h60l-333 -925h-60z" />
    <glyph glyph-name="cid17" unicode="0" horiz-adv-x="614" 
d="M40 386q0 174 73 284q32 47 82.5 72.5t111.5 25.5q60 0 110.5 -25.5t82.5 -72.5q36 -54 54.5 -125.5t18.5 -158.5t-18.5 -158.5t-54.5 -124.5q-32 -48 -82.5 -73.5t-110.5 -25.5q-61 0 -111.5 25.5t-82.5 73.5q-35 54 -54 126t-19 157zM173 386q0 -96 7.5 -161.5
t24.5 -108.5q33 -87 102 -87q75 0 108 104q14 42 20 103t6 150q0 98 -7.5 162.5t-24.5 107.5q-32 87 -102 87t-102 -85.5t-32 -271.5z" />
    <glyph glyph-name="cid18" unicode="1" horiz-adv-x="614" 
d="M142 48q34 1 49 3t26 9q17 9 23.5 31.5t6.5 70.5v460q0 19 -0.5 29.5t-0.5 16t-0.5 8.5t-1.5 6q-3 17 -16.5 22t-51.5 5h-27v28q72 6 128 13.5t106 16.5q-9 -107 -9 -252v-353q0 -46 5 -67.5t19 -32.5q10 -8 24.5 -10.5t52.5 -3.5v-28h-333v28z" />
    <glyph glyph-name="cid19" unicode="2" horiz-adv-x="614" 
d="M50 20q8 60 23.5 106t43.5 89q14 22 31 42.5t39.5 43.5t53.5 50.5l74 63.5q35 29 53.5 49.5t29.5 42.5q21 43 21 92q0 66 -32 105t-86 39q-70 0 -93 -67q-3 -9 -5 -16.5t-3 -17t-1.5 -23t-1.5 -34.5q-2 -29 -16.5 -42t-47.5 -13q-71 0 -71 53q0 41 21.5 77.5t61.5 63.5
q67 45 166 45q114 0 177.5 -48.5t63.5 -136.5q0 -74 -45 -126q-16 -19 -44 -39.5t-66 -42.5l-82 -46.5t-54.5 -33.5t-38.5 -27.5t-33 -28.5q-30 -27 -46.5 -51t-32.5 -62h290q31 0 52.5 5.5t36 19t24 35.5t16.5 56l34 -7l-35 -216h-478z" />
    <glyph glyph-name="cid20" unicode="3" horiz-adv-x="614" 
d="M324 403q230 -18 230 -193q0 -97 -69.5 -151.5t-191.5 -54.5q-53 0 -98 11.5t-77.5 32t-51 49t-18.5 62.5q0 29 20 44.5t55 15.5q38 0 51 -19q2 -3 3.5 -5.5t2 -8t1 -15.5t1.5 -27q1 -21 8.5 -43.5t18.5 -36.5q12 -16 34 -25t48 -9q63 0 96.5 47.5t33.5 135.5
q0 105 -55 145q-20 14 -54.5 23t-75.5 9h-30v31h28q172 2 172 173q0 73 -27 111t-81 38q-57 0 -79 -42q-18 -34 -20 -81q-1 -25 -3 -33.5t-9 -16.5q-15 -15 -52 -15q-70 0 -70 49q0 35 18 65t50 52.5t75 35t93 12.5q54 0 100 -14.5t78 -40.5q26 -22 40.5 -54.5t14.5 -68.5
q0 -74 -54.5 -120.5t-155.5 -59.5v-8z" />
    <glyph glyph-name="cid21" unicode="4" horiz-adv-x="614" 
d="M457 146q0 -31 3 -50t13 -29.5t27.5 -14.5t46.5 -4v-28h-301v27q35 2 48 4t22 10q21 15 21 85v71h-323v48l350 497h93v-500h107v-45h-107v-71zM337 658l-278 -396h278v396z" />
    <glyph glyph-name="cid22" unicode="5" horiz-adv-x="614" 
d="M128 392q46 43 91 62t102 19q55 0 98.5 -15.5t74.5 -45t47.5 -71t16.5 -93.5q0 -56 -19 -101t-54.5 -77t-85.5 -49t-112 -17q-49 0 -91.5 11t-74 30.5t-49.5 46t-18 57.5q0 58 71 58q36 0 50 -17q5 -6 7 -14.5t3 -30.5q1 -54 28 -82q14 -16 34.5 -24.5t43.5 -8.5
q62 0 98 51q18 28 28 67.5t10 86.5q0 95 -37 147t-105 52q-50 0 -94 -29t-74 -80l-33 8l33 420h409l-18 -112h-360z" />
    <glyph glyph-name="cid23" unicode="6" horiz-adv-x="614" 
d="M183 422q40 38 76 53t86 15t91.5 -16.5t71 -47t45.5 -73t16 -94.5q0 -57 -18.5 -104t-52.5 -80.5t-81 -52t-105 -18.5q-128 0 -195 91t-67 266q0 102 20.5 182t58.5 131q71 95 203 95q45 0 84 -9.5t67.5 -26.5t44.5 -40t16 -50t-19 -42.5t-53 -15.5q-19 0 -33.5 5
t-21.5 14q-2 3 -3.5 5.5t-2 8t-1.5 14.5t-2 24q-2 43 -23 65.5t-56 22.5q-46 0 -77.5 -33.5t-47.5 -98.5q-10 -41 -15.5 -91.5t-5.5 -98.5zM312 457q-33 0 -62.5 -18.5t-48.5 -51.5q-11 -18 -15.5 -41.5t-4.5 -58.5q0 -51 8 -98t24 -84q15 -35 42 -55.5t59 -20.5
q57 0 89.5 60t32.5 167q0 94 -33 147.5t-91 53.5z" />
    <glyph glyph-name="cid24" unicode="7" horiz-adv-x="614" 
d="M193 646q-32 0 -48.5 -8.5t-30.5 -31.5q-9 -14 -15.5 -34.5t-14.5 -54.5l-33 4l31 232h478v-71q-54 -79 -93.5 -153t-65.5 -148q-16 -43 -28 -88t-20 -89q-3 -18 -4.5 -29.5l-3 -24t-2.5 -30.5t-2 -50q-1 -40 -20 -54q-21 -16 -64 -16q-66 0 -66 48q0 25 9.5 61.5
t27.5 82t43.5 97t57.5 106.5q15 27 31 53l35 56l42.5 64.5l53.5 77.5h-298z" />
    <glyph glyph-name="cid25" unicode="8" horiz-adv-x="614" 
d="M389 429q93 -41 134.5 -92t41.5 -123q0 -48 -19 -87t-53.5 -66t-84 -42t-110.5 -15q-117 0 -183.5 49t-66.5 136q0 44 19 81.5t55 65.5q18 14 38 24t52 23q-39 21 -66.5 41t-44.5 41.5t-24.5 46.5t-7.5 56q0 46 17 83t48.5 63t76 40.5t99.5 14.5q51 0 93 -12.5t71.5 -36
t46 -55.5t16.5 -71q0 -121 -148 -165zM359 442q20 11 30.5 19.5t21.5 22.5q16 22 23.5 48t7.5 61q0 24 -6 48.5t-17 42.5q-17 28 -46.5 43t-67.5 15q-60 0 -94 -34t-34 -92q0 -38 17.5 -66t55.5 -54q11 -7 26.5 -15l38.5 -19zM244 367q-23 -12 -35.5 -21.5t-23.5 -23.5
q-19 -22 -29 -53.5t-10 -67.5q0 -78 43.5 -124.5t115.5 -46.5q33 0 60 10.5t46.5 29.5t30 45.5t10.5 58.5q0 38 -16.5 66.5t-54.5 55.5q-15 11 -38.5 24t-53.5 27q-5 2 -12.5 5.5l-14.5 6.5l-12.5 5.5z" />
    <glyph glyph-name="cid26" unicode="9" horiz-adv-x="614" 
d="M430 351q-40 -38 -76.5 -53.5t-85.5 -15.5q-50 0 -91 17t-70.5 47.5t-46 73t-16.5 94.5q0 57 18.5 104t52.5 80.5t81.5 52t105.5 18.5q66 0 116.5 -25t82.5 -73q33 -49 48 -111t15 -148q0 -201 -71.5 -304.5t-210.5 -103.5q-46 0 -85 9.5t-67.5 26.5t-44.5 40.5t-16 50.5
q0 29 19 45.5t53 16.5q19 0 33.5 -5t21.5 -14q2 -3 3.5 -6t2 -8.5t1.5 -14.5t2 -25q6 -91 80 -91q45 0 76.5 33.5t47.5 98.5q10 40 15.5 91t5.5 99zM301 315q32 0 62 19t49 51q11 19 15.5 42.5t4.5 58.5q0 51 -8.5 98t-23.5 84q-15 35 -42 55.5t-59 20.5q-57 0 -89.5 -60
t-32.5 -167q0 -102 39 -156q34 -46 85 -46z" />
    <glyph glyph-name="cid27" unicode=":" horiz-adv-x="320" 
d="M160 173q35 0 59.5 -24.5t24.5 -59.5q0 -18 -6.5 -33.5t-18 -27t-27 -18t-32.5 -6.5q-35 0 -60 25t-25 60t24.5 59.5t60.5 24.5zM160 556q35 0 59.5 -24.5t24.5 -59.5q0 -36 -24.5 -60.5t-60.5 -24.5q-35 0 -59.5 24.5t-24.5 60.5q0 35 24.5 59.5t60.5 24.5z" />
    <glyph glyph-name="cid28" unicode=";" horiz-adv-x="320" 
d="M160 556q35 0 59.5 -24.5t24.5 -59.5q0 -36 -24.5 -60.5t-59.5 -24.5q-36 0 -60.5 25t-24.5 60t24.5 59.5t60.5 24.5zM77 -99q85 44 85 94q0 11 -5.5 16.5t-22.5 9.5q-62 17 -62 73q0 35 23.5 57.5t59.5 22.5q42 0 66.5 -28t24.5 -75q0 -64 -39.5 -116t-108.5 -80z" />
    <glyph glyph-name="cid29" unicode="&#x3c;" horiz-adv-x="500" 
d="M481 104v-70l-457 265v26l457 264v-70l-377 -207z" />
    <glyph glyph-name="cid30" unicode="=" horiz-adv-x="685" 
d="M613 434v-57h-542v57h542zM613 245v-57h-542v57h542z" />
    <glyph glyph-name="cid31" unicode="&#x3e;" horiz-adv-x="500" 
d="M18 519v70l457 -264v-26l-457 -265v70l377 208z" />
    <glyph glyph-name="cid32" unicode="?" horiz-adv-x="626" 
d="M269 236q-1 8 -1 14v11q0 27 4 49.5t13 44t24 42.5t38 45l24 27.5t17 20.5t11.5 17.5l9.5 17.5q19 42 19 90q0 66 -32 104.5t-86 38.5q-29 0 -53 -12t-36 -32q-10 -16 -16.5 -40.5t-6.5 -43.5l1 -39q0 -47 -64 -47q-74 0 -74 53q0 54 34.5 97.5t95.5 67.5q57 22 132 22
q112 0 176.5 -48t64.5 -132q0 -67 -43 -113q-8 -9 -16 -16t-18.5 -14.5t-25 -17t-35.5 -21.5q-35 -21 -57 -38.5t-35 -38t-18.5 -46.5t-7.5 -63h-39zM290 171q35 0 59 -24t24 -59t-24 -59t-59 -24q-17 0 -32.5 6.5t-26.5 18t-17.5 26.5t-6.5 33q0 34 24 58t59 24z" />
    <glyph glyph-name="cid33" unicode="@" horiz-adv-x="875" 
d="M730 99q-35 -25 -68.5 -43t-68.5 -29t-72.5 -16.5t-79.5 -5.5q-90 0 -162.5 25t-123 72t-77.5 113.5t-27 150.5q0 90 31.5 165.5t87.5 130.5t133 85.5t169 30.5q78 0 143 -24t111.5 -68t72.5 -105t26 -134q0 -61 -19 -114.5t-52.5 -93t-78.5 -62t-97 -22.5q-38 0 -60 17
t-22 46q0 5 0.5 11t1.5 13q-62 -83 -142 -83q-54 0 -84 38.5t-30 105.5q0 83 34.5 159t94.5 125q31 24 66 37t73 13q41 0 76 -33l6 23h100l-22.5 -80l-22 -83.5l-20 -80.5t-16 -71t-10.5 -54.5t-4 -31.5q0 -26 25 -26q51 0 100 54q70 78 70 195q0 63 -20.5 117t-61.5 96
q-43 44 -102.5 68.5t-124.5 24.5q-60 0 -113 -19.5t-95 -57.5q-60 -54 -92 -131.5t-32 -169.5q0 -79 24 -145t71 -114q79 -81 213 -81q36 0 68 4.5t62.5 14.5t61.5 25.5t65 37.5zM399 200q19 0 42 22t43 60q13 25 26.5 60.5t24 73t17 72.5t6.5 58q0 67 -44 67
q-26 0 -53 -24.5t-50 -69.5q-26 -51 -40.5 -114.5t-14.5 -122.5q0 -39 11.5 -60.5t31.5 -21.5z" />
    <glyph glyph-name="cid34" unicode="A" horiz-adv-x="787" 
d="M194 197q-22 -56 -22 -92q0 -29 22 -43t72 -16v-26h-257v26q24 0 43.5 8.5t37 27t33 48.5t32.5 74l213 564l74 8l218 -613q17 -47 32.5 -72t32.5 -34q8 -4 18 -6t35 -5v-26h-326v26q48 2 67 12.5t19 35.5v3q-1 12 -4.5 29.5t-10.5 36.5l-38 110h-263zM358 637l-122 -325
h236z" />
    <glyph glyph-name="cid35" unicode="B" horiz-adv-x="704" 
d="M30 46q30 1 48 4.5t27.5 14t12 30.5t2.5 55v488q0 34 -3 54.5t-12 31.5t-27 14.5t-48 3.5v26h313q149 0 218 -41t69 -129q0 -80 -50 -120.5t-165 -53.5v-7q241 -12 241 -194q0 -54 -18.5 -92.5t-58.5 -63t-102.5 -36t-150.5 -11.5h-296v26zM333 435q78 0 118.5 39.5
t40.5 117.5q0 147 -166 147h-77v-304h84zM325 49q188 0 188 179q0 51 -16.5 89t-48.5 59q-20 13 -50.5 20t-67.5 7h-81v-354h76z" />
    <glyph glyph-name="cid36" unicode="C" horiz-adv-x="741" 
d="M633 517q-8 49 -20 81.5t-33 62.5q-31 45 -75 69t-93 24q-48 0 -89 -23t-66 -65q-58 -97 -58 -261q0 -83 16.5 -149.5t47 -113t74.5 -71.5t99 -25q57 0 107.5 26.5t87.5 76.5q13 17 23 35.5t21 46.5l29 -16q-41 -107 -114.5 -159t-185.5 -52q-72 0 -136 24.5t-110 69.5
q-51 50 -77 123.5t-26 164.5q0 90 25 163.5t71 125.5t111 80t145 28q19 0 34.5 -1t33.5 -4t40.5 -9l57.5 -15q21 -6 42 -6q11 0 20.5 2.5t33.5 10.5v-244h-36z" />
    <glyph glyph-name="cid37" unicode="D" horiz-adv-x="797" 
d="M30 46q30 1 48 4.5t27.5 14t12 30.5t2.5 55v488q0 34 -3 54.5t-12 31.5t-27 14.5t-48 3.5v26h301q86 0 151.5 -13.5t110.5 -41.5q75 -45 110.5 -120t35.5 -187q0 -122 -38.5 -206t-115.5 -127q-91 -53 -266 -53h-289v26zM321 49q65 0 116.5 18t82.5 51q39 41 59 109.5
t20 161.5q0 85 -16 147.5t-48 109.5q-65 93 -225 93h-60v-690h71z" />
    <glyph glyph-name="cid38" unicode="E" horiz-adv-x="660" 
d="M30 46q30 1 48 4.5t27.5 14t12 30.5t2.5 55v488q0 34 -3 54.5t-12 31.5t-27 14.5t-48 3.5v26h549l18 -213l-35 -1q-8 52 -22.5 87.5t-40 57t-62.5 31t-90 9.5h-98v-314h72q40 0 66.5 4.5t42.5 17.5t24 35.5t12 57.5h32v-261h-32q-5 36 -13 59t-23.5 36t-42 17.5
t-66.5 4.5h-72v-347h110q51 0 87.5 10.5t62.5 35t42.5 64t27.5 98.5l33 -4l-21 -233h-561v26z" />
    <glyph glyph-name="cid39" unicode="F" horiz-adv-x="624" 
d="M249 150q0 -34 3 -54.5t12.5 -31t28 -14t50.5 -4.5v-26h-313v26q31 1 49 4.5t27 14t11.5 30.5t2.5 55v488q0 34 -3 54.5t-12 31.5t-27 14.5t-48 3.5v26h549l15 -207l-35 -3q-9 51 -24.5 85.5t-41 55.5t-62.5 30.5t-89 9.5h-93v-316h77q40 0 66 5t42 17.5t24 35t12 57.5
h32v-261h-32q-5 36 -12.5 59t-23.5 36t-42 17.5t-66 4.5h-77v-244z" />
    <glyph glyph-name="cid40" unicode="G" horiz-adv-x="785" 
d="M761 369v-26q-27 -1 -41 -4.5t-22 -11.5q-9 -8 -12 -26.5t-3 -62.5v-85v-33.5t0.5 -24l1 -20.5t1.5 -22l-31.5 -3.5t-26.5 -4t-27.5 -6t-32.5 -8.5q-27 -8 -48.5 -13t-41 -8t-37.5 -4.5t-38 -1.5q-82 0 -146.5 25.5t-109.5 74t-68.5 118.5t-23.5 159q0 92 25.5 166
t72 126.5t112.5 81t147 28.5q19 0 34.5 -1t32 -3.5t37 -7l50.5 -11.5q22 -6 45 -6q14 0 27 2.5t32 10.5v-232l-37 -1q-8 45 -19 77t-31 59q-29 42 -71 63.5t-92 21.5q-59 0 -103.5 -28.5t-70.5 -83.5q-47 -99 -47 -243q0 -105 24.5 -189t68.5 -129q50 -50 127 -50q23 0 48 5
t50 16q14 5 22 10t19 15v171q0 31 -2.5 49t-12 27.5t-28 13t-49.5 4.5v26h295z" />
    <glyph glyph-name="cid41" unicode="H" horiz-adv-x="833" 
d="M250 150q0 -35 2.5 -55t12 -30.5t27.5 -14t49 -4.5v-26h-311v26q31 1 49 4.5t27 14t11.5 30.5t2.5 55v489q0 34 -2.5 54t-11.5 30.5t-26 14t-46 4.5v26h303v-26q-30 -1 -47 -4.5t-26 -14t-11.5 -30.5t-2.5 -54v-205h332v205q0 34 -2.5 54t-11.5 30.5t-26 14t-47 4.5v26
h304v-26q-30 -1 -47 -4.5t-26 -14t-11.5 -30.5t-2.5 -54v-489q0 -35 2.5 -55t11.5 -30.5t27 -14t49 -4.5v-26h-311v26q31 1 49 4.5t27.5 14t12 30.5t2.5 55v251h-332v-251z" />
    <glyph glyph-name="cid42" unicode="I" horiz-adv-x="389" 
d="M35 46q33 1 51.5 4.5t28.5 14t12.5 30.5t2.5 55v488q0 34 -2.5 54t-12 31t-27.5 14.5t-49 4.5v26h312v-26q-31 -1 -49 -4.5t-27.5 -14.5t-12 -31t-2.5 -54v-488q0 -35 2.5 -55t12.5 -30.5t29 -14t51 -4.5v-26h-320v26z" />
    <glyph glyph-name="cid43" unicode="J" horiz-adv-x="507" 
d="M477 768v-26q-31 -1 -49 -4.5t-27.5 -14.5t-12 -31t-2.5 -54v-320v-34.5t1 -46.5q1 -11 1 -19v-15q0 -91 -45 -140q-27 -29 -68 -44t-93 -15q-38 0 -69 7.5t-53.5 20.5t-35 31t-12.5 40q0 27 23 44.5t59 17.5q17 0 30.5 -5.5t18.5 -15.5q2 -3 3 -5.5t1.5 -6.5t1 -11.5
t1.5 -20.5q2 -33 14.5 -51t35.5 -18q31 0 43 34.5t12 122.5v450q0 34 -3 54t-12.5 31t-28.5 14.5t-51 4.5v26h317z" />
    <glyph glyph-name="cid44" unicode="K" horiz-adv-x="758" 
d="M250 150q0 -35 2.5 -55t11.5 -30.5t27 -14t49 -4.5v-26h-310v26q31 1 49 4.5t27 14t11.5 30.5t2.5 55v488q0 34 -2.5 54t-11.5 31t-26 14.5t-46 4.5v26h302v-26q-29 -1 -46 -4.5t-26 -14.5t-11.5 -31t-2.5 -54v-272l207 231q33 37 47.5 60.5t14.5 41.5q0 21 -16 30.5
t-58 12.5v26h276v-26q-27 -2 -50.5 -10t-48 -24.5t-52.5 -43.5t-64 -66l-99 -108l220 -346q32 -51 60 -73t64 -26v-25h-210q-5 11 -8 18.5t-8.5 16.5l-14 23l-23.5 39l-167 278l-70 -79v-166z" />
    <glyph glyph-name="cid45" unicode="L" horiz-adv-x="614" 
d="M30 46q32 1 51 4.5t28.5 14.5t12.5 31t3 54v488q0 34 -2.5 54t-12 31t-27.5 14.5t-49 4.5v26h312v-26q-31 -1 -49 -4.5t-27.5 -14.5t-12 -31t-2.5 -54v-589h92q63 0 106 19t70 58q16 25 26.5 54t20.5 79l35 -4l-23 -235h-552v26z" />
    <glyph glyph-name="cid46" unicode="M" horiz-adv-x="975" 
d="M162 219q0 -57 4 -87t14 -48q12 -20 30 -28t56 -10v-26h-249v26q31 2 51.5 10.5t32 28t16 52t4.5 82.5v421q0 41 -4.5 59t-17.5 28q-9 8 -22.5 11t-42.5 4v26h239l219 -564l222 564h229v-26q-30 -1 -47.5 -4.5t-26 -14t-11 -31t-2.5 -55.5v-488q0 -34 2.5 -54t11.5 -30.5
t27 -14t49 -4.5v-26h-309v26q30 1 48 4.5t27.5 14t12 30.5t2.5 54v552l-258 -662h-52l-255 654v-474z" />
    <glyph glyph-name="cid47" unicode="N" horiz-adv-x="805" 
d="M163 212q0 -50 4 -81t15.5 -49t32 -25.5t52.5 -9.5v-27h-251v27q32 1 52.5 9.5t32.5 27.5t16.5 52t4.5 84v397q0 37 -4 60t-14.5 37t-29.5 20t-49 8v26h209l408 -576v376q0 57 -4 87.5t-15 47.5q-11 20 -30 28t-57 10v27h253v-27q-36 -2 -54.5 -10t-30.5 -28
q-21 -34 -21 -128v-559h-74l-446 638v-442z" />
    <glyph glyph-name="cid48" unicode="O" horiz-adv-x="815" 
d="M55 394q0 79 21.5 148.5t63.5 122.5q44 57 113.5 87.5t154.5 30.5q84 0 153 -30.5t114 -87.5q42 -51 63.5 -121.5t21.5 -149.5q0 -80 -21.5 -150.5t-63.5 -121.5q-45 -57 -114 -87.5t-153 -30.5t-153.5 30.5t-114.5 87.5q-41 51 -63 122t-22 150zM201 394
q0 -88 12.5 -152.5t38.5 -116.5q49 -94 156 -94q106 0 155 94q26 51 38.5 115.5t12.5 153.5q0 88 -12.5 152.5t-38.5 115.5q-49 94 -155 94q-107 0 -156 -94q-26 -51 -38.5 -116t-12.5 -152z" />
    <glyph glyph-name="cid49" unicode="P" horiz-adv-x="653" 
d="M249 149q0 -34 3 -54t12.5 -30.5t28.5 -14t52 -4.5v-26h-316v26q31 1 49 4.5t27 14t11.5 30.5t2.5 54v489q0 34 -2.5 54t-11.5 30.5t-26 14t-46 5.5v26h301q153 0 223 -49.5t70 -158.5q0 -151 -128 -199q-33 -12 -85.5 -19t-115.5 -7h-49v-186zM301 364q94 0 138 41
q24 23 36.5 61.5t12.5 87.5q0 185 -175 185h-64v-375h52z" />
    <glyph glyph-name="cid50" unicode="Q" horiz-adv-x="815" 
d="M791 -12q-41 -26 -78 -38.5t-77 -12.5q-42 0 -73.5 18t-65.5 61q-25 -7 -44.5 -9.5t-45.5 -2.5q-78 0 -143 25.5t-112 76.5q-97 102 -97 279q0 88 23 160.5t68 126.5q45 55 111.5 83t149.5 28q81 0 146 -26.5t110.5 -75.5t70 -119.5t24.5 -157.5q0 -155 -69 -260
q-17 -26 -35 -44.5t-47 -39.5q27 -35 52.5 -51.5t53.5 -16.5q33 0 72 19zM240 161q14 54 47.5 83t84.5 29q54 0 98.5 -34.5t92.5 -114.5q14 30 20 46l11 30q10 33 15.5 83.5t5.5 105.5q0 161 -47 261q-25 51 -67.5 78.5t-97.5 27.5q-51 0 -90 -24t-62 -69q-53 -101 -53 -270
q0 -48 5 -90.5t14 -73.5q1 -2 5 -15.5t12 -35.5q3 -7 6 -17zM479 44l-22 38l-16 26t-13.5 20t-14.5 19q-22 29 -43 41.5t-45 12.5q-55 0 -65 -73q8 -23 15.5 -36t23.5 -25q22 -18 50 -27.5t58 -9.5q38 0 72 14z" />
    <glyph glyph-name="cid51" unicode="R" horiz-adv-x="726" 
d="M251 149q0 -34 2.5 -54t11.5 -30.5t27 -14t49 -4.5v-26h-310v26q31 1 49 4.5t27 14t11.5 30.5t2.5 54v489q0 34 -2.5 54t-11.5 30.5t-26 14t-46 5.5v26h306q63 0 113.5 -8t80.5 -22q48 -23 70 -59.5t22 -92.5q0 -91 -57 -139t-176 -57v-8q39 -5 68 -17.5t56 -35.5
q12 -11 22.5 -23t21 -31t23.5 -47l31 -70q15 -34 26 -55.5t22.5 -34t24 -18t30.5 -6.5v-24h-197l-32 93t-26.5 73.5t-23.5 57.5t-22 46q-24 46 -51.5 64.5t-75.5 18.5h-40v-224zM305 402q90 0 136.5 43.5t46.5 128.5t-43 125t-133 40h-61v-337h54z" />
    <glyph glyph-name="cid52" unicode="S" horiz-adv-x="594" 
d="M62 255h40q11 -113 56 -167t130 -54q66 0 103.5 36.5t37.5 101.5q0 25 -8 46.5t-27 41t-50.5 39.5t-78.5 43q-32 15 -53 26l-35.5 18.5t-24 14l-18.5 12.5q-43 32 -62.5 69.5t-19.5 89.5q0 62 31.5 111.5t86.5 75.5q49 23 128 23q12 0 22 -0.5t23 -2.5l31 -5t46 -9
q19 -4 35 -4q12 0 24.5 3t35.5 11l-8 -224h-40q-3 43 -10.5 71t-23.5 54q-23 38 -58 58.5t-80 20.5q-58 0 -94 -36t-36 -94q0 -51 33 -84q9 -9 19.5 -17t25 -16.5t35 -19t50.5 -24.5q33 -15 58.5 -28.5t45 -25.5t34.5 -23.5t28 -24.5q52 -54 52 -139q0 -51 -18 -93t-52 -68
q-72 -57 -183 -57q-15 0 -28 0.5t-28 2.5t-33.5 5.5l-45.5 8.5q-18 3 -38 3q-13 0 -26 -2t-40 -7z" />
    <glyph glyph-name="cid53" unicode="T" horiz-adv-x="698" 
d="M414 150q0 -35 3 -55t13.5 -30.5t31.5 -14t56 -4.5v-26h-339v26q35 1 55.5 4.5t31 14t13.5 30.5t3 55v592q-67 -2 -106 -15t-65 -43q-21 -24 -35 -64.5t-25 -107.5l-36 2l19 254h629l19 -254l-36 -2q-12 73 -28 115t-41 65q-26 25 -63.5 36.5t-99.5 13.5v-592z" />
    <glyph glyph-name="cid54" unicode="U" horiz-adv-x="791" 
d="M326 768v-26q-29 -1 -46 -4.5t-26 -14.5t-11.5 -31t-2.5 -54v-316q0 -71 8 -116t28 -78q49 -83 158 -83q63 0 109.5 28.5t69.5 82.5q12 29 18.5 74.5t6.5 104.5v233q0 53 -4 86t-15.5 52t-31.5 26t-52 9v27h246v-27q-31 -2 -51 -9.5t-31 -27t-15.5 -52.5t-4.5 -84v-234
q0 -40 -2 -71.5t-7 -57.5t-12.5 -47t-18.5 -39q-35 -60 -92 -87.5t-143 -27.5q-85 0 -147 24.5t-99 72.5q-14 18 -23 36.5t-14.5 41.5t-8 52t-2.5 67v340q0 34 -2.5 54t-11.5 31t-26 14.5t-47 4.5v26h303z" />
    <glyph glyph-name="cid55" unicode="V" horiz-adv-x="782" 
d="M127 617q-14 37 -25 60t-23.5 36.5t-29 19.5t-40.5 9v26h326v-26q-5 -1 -10 -1t-8 -1q-25 -2 -37.5 -6t-20.5 -12q-5 -5 -8 -12t-3 -15q0 -15 5 -36.5t16 -53.5l159 -460l161 447q21 58 21 94t-38 48q-11 3 -24 4.5t-33 3.5v26h259v-26q-29 -2 -46 -9.5t-34 -24.5
q-34 -36 -67 -124l-206 -568h-80z" />
    <glyph glyph-name="cid56" unicode="W" horiz-adv-x="1050" 
d="M344 16h-82l-149 597q-11 44 -21.5 68.5t-23.5 38.5q-9 10 -22 15t-37 8v25h309v-25q-31 -2 -44 -5t-22 -11q-18 -12 -18 -41q0 -14 3 -34.5t11 -49.5l104 -432l169 584h90l154 -581l107 410q7 25 10.5 49t3.5 41q0 47 -45 62q-17 5 -53 8v25h253v-25q-26 -4 -45 -13
t-33.5 -28t-26.5 -50t-25 -79l-151 -557h-79l-161 594z" />
    <glyph glyph-name="cid57" unicode="X" horiz-adv-x="752" 
d="M601 165q20 -32 36.5 -53.5t32.5 -35t33.5 -20.5t40.5 -10v-26h-323v26q40 2 55 9.5t15 24.5v3q-1 11 -10 31.5t-29 51.5l-113 179l-110 -163q-39 -57 -39 -89q0 -23 18 -33t66 -14v-26h-265v26q84 7 169 131l139 204l-156 245q-21 34 -37.5 55.5t-31.5 34t-31.5 18.5
t-38.5 8v26h322v-26q-39 -2 -55.5 -9t-16.5 -24q0 -23 42 -90l98 -157l100 149q17 26 27.5 50.5t10.5 38.5q0 20 -17 29.5t-62 12.5v26h264v-26q-26 -2 -48.5 -11t-44.5 -26t-44.5 -43t-47.5 -62l-117 -170z" />
    <glyph glyph-name="cid58" unicode="Y" horiz-adv-x="759" 
d="M437 150q0 -35 3 -55t13.5 -30.5t30.5 -14t55 -4.5v-26h-334v26q35 1 55 4.5t30.5 14t13.5 30.5t3 55v190l-184 303q-17 28 -30.5 46t-26 29t-26 16.5t-31.5 7.5v26h315v-26q-41 -2 -58.5 -11.5t-17.5 -29.5q0 -13 6 -27.5t26 -45.5l135 -225l135 216q28 48 28 74
q0 14 -9 24.5t-24 15.5q-13 4 -24 5.5t-34 3.5v26h264v-26q-24 -3 -44.5 -10.5t-39 -22.5t-37.5 -39t-41 -59l-152 -240v-221z" />
    <glyph glyph-name="cid59" unicode="Z" horiz-adv-x="667" 
d="M363 49q116 0 172 63q23 27 37 62.5t25 95.5l36 -5l-25 -245h-580v36l441 683h-142q-60 0 -99.5 -13.5t-66.5 -44.5q-23 -26 -38 -59t-28 -91l-35 4l25 233h533v-36l-442 -683h187z" />
    <glyph glyph-name="cid60" unicode="[" horiz-adv-x="320" 
d="M296 743h-56q-14 0 -23 -2.5t-13.5 -9.5t-6 -21t-1.5 -36v-737q0 -23 1.5 -36.5t6 -20.5t13.5 -9.5t23 -2.5h56v-25h-206v925h206v-25z" />
    <glyph glyph-name="cid61" unicode="\" horiz-adv-x="394" 
d="M358 -157l-333 925h60l333 -925h-60z" />
    <glyph glyph-name="cid62" unicode="]" horiz-adv-x="320" 
d="M25 -132h56q14 0 23 2.5t13.5 9.5t6 20.5t1.5 36.5v737q0 22 -1.5 36t-6 21t-13.5 9.5t-23 2.5h-56v25h206v-925h-206v25z" />
    <glyph glyph-name="cid63" unicode="^" horiz-adv-x="500" 
d="M76 396h-69l229 382h26l230 -382h-69l-174 306z" />
    <glyph glyph-name="cid64" unicode="_" horiz-adv-x="500" 
d="M500 -67v-51h-500v51h500z" />
    <glyph glyph-name="cid65" unicode="`" horiz-adv-x="500" 
d="M314 621l-32 -19l-142 149l3 19h122z" />
    <glyph glyph-name="cid66" unicode="a" horiz-adv-x="575" 
d="M547 23q-45 -5 -81.5 -8.5t-56.5 -3.5q-24 0 -33.5 15t-13.5 61q-39 -42 -80.5 -61.5t-90.5 -19.5q-72 0 -113 39.5t-41 107.5q0 129 160 160q37 7 77 12t87 7v65q0 40 -4 66t-13 42t-24 22.5t-37 6.5q-47 0 -67 -34q-8 -13 -11 -27.5t-5 -43.5q-2 -27 -15.5 -38
t-45.5 -11q-70 0 -70 46q0 26 16.5 50.5t45.5 42.5q61 38 164 38q104 0 148 -41q20 -20 29.5 -48.5t9.5 -75.5l-1 -87l-1 -87q-1 -21 -1 -35v-19q0 -41 1.5 -64.5t8.5 -35t20.5 -14.5t37.5 -3v-24zM361 309q-54 -4 -91.5 -13.5t-61 -26t-33.5 -41.5t-10 -60q0 -54 22 -86
t59 -32q30 0 56.5 17.5t40.5 48.5q10 20 14 46.5t4 69.5v77z" />
    <glyph glyph-name="cid67" unicode="b" horiz-adv-x="629" 
d="M121 18h-36q1 17 2 30.5t1.5 30t0.5 38.5v57v474q0 33 -2 52.5t-10 29t-23.5 12.5t-41.5 3v23l205 11q-3 -60 -4.5 -108.5t-1.5 -96.5v-106q30 47 66.5 68t88.5 21q103 0 160 -69t57 -194q0 -136 -63 -212.5t-175 -76.5q-51 0 -93 16.5t-84 54.5zM208 267
q0 -57 6.5 -98.5t20.5 -71.5t42 -49t60 -19q56 0 84.5 62.5t28.5 185.5t-27 186t-81 63q-32 0 -59 -21t-44 -57q-16 -36 -23.5 -80t-7.5 -101z" />
    <glyph glyph-name="cid68" unicode="c" horiz-adv-x="544" 
d="M520 144q-68 -140 -219 -140q-58 0 -105.5 19.5t-81 55t-52 85.5t-18.5 110q0 65 20.5 121t58.5 95q33 32 78.5 49.5t99.5 17.5q42 0 79 -10.5t65.5 -28.5t45 -41.5t16.5 -50.5q0 -23 -18.5 -36t-49.5 -13q-36 0 -51 18q-2 3 -3.5 5t-2 6.5t-1 11.5l-1.5 21
q-3 45 -24 69.5t-58 24.5q-31 0 -55.5 -17.5t-36.5 -46.5q-13 -33 -20.5 -81.5t-7.5 -95.5q0 -100 35 -170q40 -79 119 -79q52 0 94 31t68 87z" />
    <glyph glyph-name="cid69" unicode="d" horiz-adv-x="626" 
d="M545 779q-2 -28 -3 -52.5t-1.5 -48.5l-1 -49t-0.5 -54v-404q0 -30 1 -51t3 -35t5.5 -22t9.5 -12q7 -5 14.5 -6t32.5 -2v-23l-176 -9l-4 73q-37 -42 -75.5 -60.5t-88.5 -18.5q-43 0 -80.5 15.5t-65.5 44.5q-66 71 -66 202q0 66 16 120t46 91.5t72.5 58t95.5 20.5
q81 0 138 -57v144q0 35 -2 55t-9.5 30t-23 13t-41.5 3v23zM420 289q0 117 -30.5 179t-88.5 62q-57 0 -88 -64t-31 -182q0 -71 11.5 -125.5t34.5 -86.5q25 -36 69 -36q58 0 90.5 66.5t32.5 186.5z" />
    <glyph glyph-name="cid70" unicode="e" horiz-adv-x="560" 
d="M173 302q1 -56 6.5 -91.5t19.5 -67.5q43 -99 136 -99q52 0 94.5 29.5t70.5 84.5l25 -16q-38 -72 -90 -104.5t-130 -32.5q-60 0 -108 19.5t-82 55t-52.5 86t-18.5 113.5t18 114.5t50.5 87.5t79 56t103.5 20q77 0 129.5 -33.5t77.5 -98.5q4 -11 7 -23t5.5 -26t3.5 -32
t2 -42h-347zM395 331q-2 47 -5.5 74.5t-11.5 50.5q-28 78 -86 78q-65 0 -97 -88q-8 -23 -13 -49.5t-8 -65.5h221z" />
    <glyph glyph-name="cid71" unicode="f" horiz-adv-x="361" 
d="M223 144q0 -34 2 -53.5t10.5 -29.5t24.5 -13t45 -4v-24h-280v24q26 0 41 3.5t23 13.5t10 30t2 53v366h-78v32h78q-1 26 -1.5 50.5t-0.5 36.5q0 64 39 102q25 24 62 37t81 13q31 0 58.5 -7t48 -19t32 -28.5t11.5 -35.5q0 -23 -18 -35t-50 -12q-33 0 -47 17q-5 6 -6.5 13.5
t-3.5 26.5q-2 33 -10 45.5t-25 12.5q-28 0 -39 -24.5t-11 -84.5q0 -15 0.5 -39l1.5 -69h132v-32h-132v-366z" />
    <glyph glyph-name="cid72" unicode="g" horiz-adv-x="548" 
d="M319 101q33 0 56 -1t41 -3.5t32.5 -6.5t28.5 -10q29 -14 44.5 -40.5t15.5 -64.5q0 -42 -19 -77.5t-52 -55.5q-73 -44 -196 -44q-110 0 -169 31t-59 90q0 16 2.5 27t11 21t24.5 20.5t43 25.5q-18 8 -27.5 14t-17.5 15q-27 29 -27 66q0 23 10 37t41 34l51 32
q-25 14 -36.5 22t-20.5 17q-20 19 -30.5 49t-10.5 65q0 44 15.5 79.5t43.5 61t68 39t89 13.5q17 0 34.5 -1.5t44.5 -6.5q24 -4 37 -5t32 -1q2 0 28 1l79 3v-44h-98q32 -31 45.5 -61.5t13.5 -72.5t-15.5 -77.5t-44.5 -58.5t-67.5 -34.5t-83.5 -11.5q-22 0 -43.5 2.5
t-45.5 8.5q-26 -14 -36 -25.5t-10 -28.5q0 -13 5.5 -21.5t20 -13t40.5 -6.5t67 -2h45zM179 377q0 -81 23.5 -124t68.5 -43q90 0 90 161q0 163 -90 163q-92 0 -92 -157zM167 3q-32 -7 -32 -61q0 -119 154 -119q74 0 116 27.5t42 77.5q0 42 -36 59t-121 17z" />
    <glyph glyph-name="cid73" unicode="h" horiz-adv-x="666" 
d="M221 456q37 55 78.5 78t103.5 23q107 0 144 -70q11 -22 16.5 -51t5.5 -72v-220q0 -34 2 -53.5t10 -30t23 -13.5t41 -3v-24h-273v24q25 0 40 3t23 13.5t10 30t2 53.5v213q0 79 -14 108q-21 46 -77 46q-69 0 -108 -69q-14 -25 -20.5 -50t-6.5 -56v-192q0 -33 2 -53t10 -30
t22.5 -13.5t40.5 -3.5v-24h-273v24q26 0 41 3t23 13.5t10 30t2 53.5v504q0 33 -2 52.5t-10 29t-23.5 12.5t-41.5 3v23l205 11q-2 -29 -3 -53.5l-2 -48t-1 -48.5v-55v-118z" />
    <glyph glyph-name="cid74" unicode="i" horiz-adv-x="333" 
d="M234 555q-3 -45 -4.5 -95.5t-1.5 -98.5v-217q0 -33 2 -53t10 -30t23.5 -13.5t42.5 -3.5v-24h-278v24q27 0 42.5 3.5t23.5 13.5t10 30t2 53v277q0 33 -2 52.5t-9.5 29t-22.5 12.5t-41 3v24zM96 713q0 30 21 51t51 21t51 -21t21 -51t-21 -51t-51 -21t-51 21t-21 51z" />
    <glyph glyph-name="cid75" unicode="j" horiz-adv-x="325" 
d="M234 555q-3 -55 -4.5 -103.5t-1.5 -96.5v-272q0 -41 -0.5 -68.5t-1.5 -47t-3.5 -32.5t-5.5 -25q-7 -24 -23.5 -44.5t-39.5 -34.5t-51.5 -22t-60.5 -8q-30 0 -55.5 6t-44 16.5t-29 25t-10.5 31.5q0 24 22.5 40t55.5 16q31 0 40 -17q1 -3 2 -5.5t2 -7t2 -12.5l3 -23
q6 -44 35 -44q43 0 43 75v15t-1 24v24.5t-0.5 32.5t-0.5 33v26v364q0 34 -2 53t-9.5 29t-23.5 12.5t-43 2.5v24zM96 713q0 30 21 51t51 21q31 0 51.5 -20.5t20.5 -51.5q0 -30 -21 -51t-51 -21t-51 21t-21 51z" />
    <glyph glyph-name="cid76" unicode="k" horiz-adv-x="607" 
d="M220 144q0 -34 2 -53.5t10 -30t22.5 -13.5t40.5 -3v-24h-271v24q25 0 40 3.5t23 13.5t10 30t2 53v504q0 33 -2 52.5t-10 29t-23 12.5t-41 3v23l203 11q-3 -56 -4.5 -105t-1.5 -100v-315l134 154q31 37 31 63q0 20 -16.5 30.5t-52.5 12.5v23h258v-23q-24 -3 -43.5 -9
t-40.5 -17q-13 -7 -23.5 -14t-21.5 -16t-23 -21.5l-28 -29.5l-37 -41l139 -239q14 -23 25.5 -38.5t23 -26t25 -16t30.5 -9.5v-22h-184l-10 21t-13 26.5l-12.5 25t-8.5 16.5l-96 172l-56 -63v-74z" />
    <glyph glyph-name="cid77" unicode="l" horiz-adv-x="335" 
d="M29 44q27 1 43 4t24 13t10 29.5t2 53.5v504q0 33 -2 52.5t-10 29t-23.5 12.5t-42.5 3v23l206 11q-3 -56 -4.5 -105t-1.5 -100v-430q0 -34 2 -53.5t10 -29.5t24 -13t43 -4v-24h-280v24z" />
    <glyph glyph-name="cid78" unicode="m" horiz-adv-x="971" 
d="M226 456q61 101 174 101q115 0 142 -105q33 55 74 80t98 25q89 0 130 -58q17 -23 23.5 -53.5t6.5 -81.5v-220q0 -33 2 -53t10 -30t23 -13.5t41 -3.5v-24h-271v24q25 0 39.5 3.5t22 13.5t9.5 30t2 53v219q0 80 -19 114t-64 34q-53 0 -89 -55q-31 -47 -31 -101v-211
q0 -33 2 -53t9.5 -30t22.5 -13.5t40 -3.5v-24h-268v24q25 0 39.5 3.5t22 13.5t9.5 30t2 53v220q0 75 -19.5 111t-61.5 36q-25 0 -47 -13t-38.5 -35.5t-26 -52t-9.5 -63.5v-203q0 -34 2 -53.5t9.5 -30t22 -13.5t39.5 -3v-24h-271v24q26 0 41 3t23 13.5t10 30t2 53.5v278
q0 31 -2.5 50t-10 29t-22 13.5t-39.5 3.5v24l195 13z" />
    <glyph glyph-name="cid79" unicode="n" horiz-adv-x="663" 
d="M226 456q32 53 75 77t103 24q98 0 136 -68q14 -23 19.5 -50.5t5.5 -72.5v-222q0 -33 2 -53t10 -30t23 -13.5t41 -3.5v-24h-272v24q25 0 40 3.5t22.5 14t10 30t2.5 52.5v216q0 81 -20.5 117t-67.5 36q-65 0 -103 -66q-12 -22 -19.5 -50t-7.5 -53v-200q0 -34 2 -53.5
t10 -30t22.5 -13.5t40.5 -3v-24h-273v24q26 0 41 3.5t23 13.5t10 30t2 53v277q0 32 -2.5 51t-10 29t-22 13.5t-39.5 3.5v24l195 13z" />
    <glyph glyph-name="cid80" unicode="o" horiz-adv-x="606" 
d="M43 277q0 62 20 116.5t55 92.5q32 34 81 52.5t106 18.5q59 0 107 -19.5t81.5 -55.5t52 -86.5t18.5 -112.5q0 -59 -17.5 -111t-48.5 -87q-35 -38 -86.5 -59.5t-111.5 -21.5q-57 0 -106.5 20.5t-81.5 55.5q-33 37 -51 88t-18 109zM178 282q0 -131 30.5 -193t95.5 -62
q66 0 96 60.5t30 191.5q0 132 -30.5 193.5t-96.5 61.5q-31 0 -55.5 -15t-37.5 -43q-32 -63 -32 -194z" />
    <glyph glyph-name="cid81" unicode="p" horiz-adv-x="633" 
d="M210 478q35 42 73 60.5t89 18.5q101 0 155.5 -68t54.5 -194q0 -67 -16.5 -123t-45.5 -92q-29 -35 -73.5 -54.5t-95.5 -19.5q-43 0 -73.5 12t-65.5 42v-139q0 -33 2 -52.5t10.5 -29.5t24.5 -13.5t45 -4.5v-24h-279v24q26 1 41.5 4t23 13.5t9.5 30t2 52.5v500q0 32 -2.5 51
t-10.5 29t-23 13.5t-40 3.5v24l195 13v-77zM208 268q0 -56 7 -97t21 -73q14 -29 38.5 -46.5t53.5 -17.5q121 0 121 247q0 121 -27.5 182.5t-81.5 61.5q-62 0 -97 -68t-35 -189z" />
    <glyph glyph-name="cid82" unicode="q" horiz-adv-x="629" 
d="M416 82q-26 -38 -65 -57t-89 -19q-49 0 -89 19t-68 53.5t-43 83.5t-15 110q0 134 64 210t178 76q53 0 92.5 -16t79.5 -53l44 60h36q-2 -38 -2.5 -76.5t-0.5 -85.5v-466q0 -33 2 -52.5t9.5 -30t23 -13.5t41.5 -4v-24h-279v24q28 1 44 4.5t24.5 13.5t10.5 29.5t2 52.5v161z
M420 299q0 58 -6.5 99.5t-20.5 71.5q-13 28 -37 44.5t-52 16.5q-51 0 -80 -41q-21 -29 -32.5 -83t-11.5 -125q0 -54 6.5 -96t20.5 -77q29 -68 86 -68q32 0 59.5 22.5t42.5 62.5q25 66 25 173z" />
    <glyph glyph-name="cid83" unicode="r" horiz-adv-x="455" 
d="M219 555q2 -29 2.5 -47.5t0.5 -33.5v-30q61 113 148 113q37 0 61 -22t24 -54q0 -27 -20 -44t-52 -17q-20 0 -31 7.5t-16 24.5q-6 21 -11.5 28t-17.5 7h-2q-29 -2 -56 -47q-12 -23 -18 -49.5t-6 -61.5v-185q0 -34 2 -53.5t10 -29.5t24 -13t44 -4v-24h-278v24q26 0 41 3.5
t23 13.5t10 30t2 53v277q0 32 -2.5 51t-10 29.5t-21.5 13.5t-38 3v24z" />
    <glyph glyph-name="cid84" unicode="s" horiz-adv-x="474" 
d="M59 196h36q5 -39 11.5 -62t18.5 -43q41 -63 112 -63q46 0 72 22.5t26 64.5q0 18 -6 32.5t-21.5 28t-43.5 29t-71 35.5l-38.5 18t-29 16t-22 16t-18.5 18q-35 36 -35 90q0 73 50 116t135 43q25 0 71 -8q21 -4 28.5 -5t15.5 -1q11 0 21 2t27 8l-9 -175h-37q-5 77 -36 116.5
t-85 39.5q-41 0 -65 -22.5t-24 -60.5q0 -37 31 -61l14 -10.5t16.5 -9.5l29 -14t52.5 -24q38 -18 64 -34.5t41.5 -35.5t22.5 -41t7 -50q0 -78 -47.5 -122.5t-132.5 -44.5q-11 0 -20 0.5t-20 2l-25.5 3.5t-36.5 6q-18 3 -36 3h-10t-9 -0.5t-12.5 -2t-19.5 -3.5z" />
    <glyph glyph-name="cid85" unicode="t" horiz-adv-x="368" 
d="M219 176q0 -33 2.5 -54t7.5 -36q6 -17 19.5 -27t29.5 -10q31 0 70 31l14 -25q-60 -50 -137 -50q-41 0 -70 14.5t-43 40.5q-5 9 -7.5 19.5t-4.5 25.5t-2.5 37.5t-0.5 55.5v312h-57v30q33 2 55.5 14t39.5 39q14 21 22 45t15 62l50 5q-1 -15 -1.5 -30t-1 -33t-0.5 -42v-58
h121v-32h-121v-334z" />
    <glyph glyph-name="cid86" unicode="u" horiz-adv-x="627" 
d="M421 11q-2 20 -3.5 47t-1.5 58q-32 -52 -80 -81t-104 -29q-45 0 -78.5 19.5t-50.5 55.5q-10 21 -14.5 49.5t-4.5 74.5v14l2 202q0 2 0.5 4t0.5 4q0 58 -11 73q-7 9 -17.5 12t-44.5 4v24l201 13l-3.5 -49t-2 -44t-1.5 -47.5t-1 -58.5l-1 -106v-19q0 -26 0.5 -44t2 -31.5
t4 -24.5t6.5 -22q16 -49 70 -49q35 0 62.5 21.5t45.5 62.5q11 25 15 51.5t4 67.5v158q0 41 -3.5 59.5t-11.5 26.5q-4 3 -7.5 5t-9.5 3t-15.5 2t-25.5 1v24l201 13q-2 -51 -3.5 -80t-2 -48t-0.5 -33.5v-38.5v-208q0 -33 2.5 -53t9.5 -31.5t19.5 -15.5t33.5 -4v-23z" />
    <glyph glyph-name="cid87" unicode="v" horiz-adv-x="594" 
d="M431 396q13 36 13 68q0 16 -9 28.5t-24 18.5q-11 4 -20.5 5.5t-27.5 2.5v23h222v-24q-21 -2 -36.5 -8.5t-29 -20.5t-25 -36t-23.5 -54l-141 -386h-78l-160 422q-9 24 -17.5 39.5t-17.5 25t-20.5 13.5t-27.5 6v23h269v-24q-66 -2 -66 -42q0 -9 3 -23t8 -28l110 -303z" />
    <glyph glyph-name="cid88" unicode="w" horiz-adv-x="834" 
d="M287 13h-74l-125 419q-14 49 -30.5 67t-48.5 20v23h265v-24q-38 -2 -54 -13t-16 -35q0 -9 2 -20t7 -28l82 -283l128 390h58l122 -390l74 251q6 21 8.5 37.5t2.5 33.5t-9.5 31t-26.5 19q-10 4 -19 5t-29 3v23h222v-23q-21 -2 -37 -8.5t-28.5 -20.5t-23 -36.5t-20.5 -55.5
l-117 -385h-72l-121 366z" />
    <glyph glyph-name="cid89" unicode="x" horiz-adv-x="572" 
d="M185 142q-24 -33 -24 -57q0 -36 70 -42v-23h-222v22q39 6 70 29.5t70 76.5l86 118l-120 180q-13 19 -23.5 32t-21 21t-22.5 12.5t-28 7.5v23h259v-23q-27 -1 -38 -7.5t-11 -21.5q0 -10 3.5 -19t14.5 -25l69 -106l55 80q26 36 26 63q0 33 -62 36v23h217v-23
q-39 -4 -73 -29t-75 -80l-70 -96l133 -200q12 -18 23 -31t21.5 -21t23 -12.5t27.5 -7.5v-22h-268v23q30 1 43.5 8.5t13.5 22.5q0 17 -15 38l-83 126z" />
    <glyph glyph-name="cid90" unicode="y" horiz-adv-x="589" 
d="M425 387q10 25 13.5 40.5t3.5 29.5q0 31 -18.5 45.5t-60.5 16.5v23h218v-23q-21 -3 -37 -11t-30 -24.5t-28 -44.5t-31 -70l-170 -432q-15 -39 -30 -65.5t-31.5 -43t-35.5 -24t-42 -7.5q-73 0 -73 69q0 52 40 52q7 0 16 -1t24 -4q18 -4 26 -5t16 -1q23 0 36.5 12t27.5 47
l15 40l-175 418q-13 30 -22 48t-18 28t-20.5 13.5t-29.5 5.5v23h267v-24q-32 -1 -46 -10t-14 -29q0 -11 3 -22.5t12 -35.5l103 -270z" />
    <glyph glyph-name="cid91" unicode="z" horiz-adv-x="508" 
d="M250 517q-72 0 -112 -37t-57 -122l-32 4l20 180h389v-30l-292 -467h74q102 0 148 56q17 22 29 49t23 73l31 -4l-23 -199h-418v27l295 470h-75z" />
    <glyph glyph-name="cid92" unicode="{" horiz-adv-x="320" 
d="M290 -157h-36q-41 0 -72.5 11t-50.5 31q-17 18 -24 44t-7 73v167q0 86 -19 111q-7 9 -15 13t-25 6v15q33 2 46 29.5t13 96.5v180q0 42 7.5 66.5t25.5 42.5q18 19 49.5 29t71.5 10h36v-23h-20q-36 0 -50.5 -24t-14.5 -84v-156q0 -55 -8.5 -86t-30.5 -54q-12 -14 -26 -21
t-40 -14q30 -8 46.5 -17.5t29.5 -27.5q16 -21 22.5 -50.5t6.5 -76.5v-151q0 -38 2.5 -58t10.5 -33q14 -26 52 -26h20v-23z" />
    <glyph glyph-name="cid93" unicode="|" horiz-adv-x="500" 
d="M287 768v-971h-73v971h73z" />
    <glyph glyph-name="cid94" unicode="}" horiz-adv-x="320" 
d="M31 -134h20q38 0 52 26q8 14 10.5 33.5t2.5 57.5v151q0 51 8 82.5t27 52.5q13 14 28 22t42 15q-29 8 -44 16.5t-28 25.5q-18 23 -25.5 52.5t-7.5 80.5v156q0 60 -14.5 84t-50.5 24h-20v23h36q40 0 71.5 -10t49.5 -29t25.5 -43t7.5 -66v-180q0 -69 13 -96.5t46 -29.5v-15
q-18 -2 -27 -7.5t-16 -16.5q-16 -26 -16 -106v-167q0 -47 -7 -73t-24 -44q-19 -20 -50.5 -31t-72.5 -11h-36v23z" />
    <glyph glyph-name="cid95" unicode="~" horiz-adv-x="500" 
d="M45 268q28 98 110 98q17 0 45.5 -5t60.5 -14q70 -19 98 -19q54 0 77 40l18 -11q-30 -99 -110 -99q-16 0 -39 4.5t-64 15.5q-23 6 -38.5 9.5l-27 6t-20.5 3t-18 0.5q-50 0 -74 -40z" />
    <glyph glyph-name="cid100" unicode="&#x20ac;" horiz-adv-x="652" 
d="M222 319q7 -139 56 -210.5t137 -71.5q48 0 79.5 21t53.5 67q10 22 18 47t18 65h36l-8 -172q-43 -29 -100 -45t-117 -16q-139 0 -216 79.5t-91 235.5h-81l16 39h63v12q0 15 1 33.5t3 35.5h-83l16 39h73q14 68 34 113t49 79q86 98 236 98q25 0 45 -2.5t43 -8.5q14 -4 22 -6
t13 -3t9 -1h10t10.5 0.5t10 2t13.5 4t20 7.5v-244h-36q-7 55 -18 92t-33 69q-40 62 -107 62q-54 0 -97 -35t-68 -100q-11 -27 -17 -56t-11 -71h317l-17 -39h-303q-2 -17 -2 -27v-24v-30h272l-17 -39h-252z" />
    <glyph glyph-name="cid1" horiz-adv-x="333" 
 />
    <glyph glyph-name="cid1.001" horiz-adv-x="333" 
 />
    <glyph glyph-name="cid1.002" horiz-adv-x="333" 
 />
    <glyph glyph-name="cid1.003" horiz-adv-x="333" 
 />
    <glyph glyph-name="cid1.004" horiz-adv-x="333" 
 />
    <glyph glyph-name="cid1.005" horiz-adv-x="333" 
 />
    <glyph glyph-name="cid111" unicode="&#x2026;" 
d="M500 462q35 0 58.5 -23.5t23.5 -58.5q0 -34 -24 -58t-58 -24t-58 24t-24 58t24 58t58 24zM834 462q35 0 58.5 -23.5t23.5 -58.5q0 -34 -24 -58t-58 -24t-58 24t-24 58t24 58t58 24zM167 462q35 0 58.5 -23.5t23.5 -58.5q0 -34 -24 -58t-58 -24t-58 24t-24 58t24 58t58 24
z" />
    <glyph glyph-name="cid106" unicode="&#x2018;" horiz-adv-x="311" 
d="M240 774q-86 -41 -86 -93q0 -12 7 -19q3 -3 6.5 -4.5t22.5 -6.5q26 -7 40 -26t14 -45q0 -34 -24 -56.5t-60 -22.5q-41 0 -65.5 28.5t-24.5 74.5q0 64 39.5 116.5t108.5 79.5z" />
    <glyph glyph-name="cid107" unicode="&#x2019;" horiz-adv-x="311" 
d="M72 511q41 19 63 43t22 50q0 12 -7 19q-3 3 -6.5 4.5t-22.5 6.5q-25 7 -39.5 26t-14.5 45q0 34 24 56.5t60 22.5q41 0 65.5 -28.5t24.5 -74.5q0 -65 -40.5 -118t-110.5 -79z" />
    <glyph glyph-name="cid108" unicode="&#x201c;" horiz-adv-x="535" 
d="M240 774q-86 -41 -86 -93q0 -12 7 -19q3 -3 6.5 -4.5t22.5 -6.5q26 -7 40 -26t14 -45q0 -34 -24 -56.5t-60 -22.5q-41 0 -65.5 28.5t-24.5 74.5q0 64 39.5 116.5t108.5 79.5zM464 774q-42 -20 -64 -43.5t-22 -49.5q0 -12 7 -19q3 -3 6.5 -4.5t22.5 -6.5q26 -7 40 -26
t14 -45q0 -34 -24 -56.5t-60 -22.5q-40 0 -65 28.5t-25 74.5q0 64 39.5 116.5t108.5 79.5z" />
    <glyph glyph-name="cid109" unicode="&#x201d;" horiz-adv-x="535" 
d="M72 511q41 19 63 43t22 50q0 12 -7 19q-3 3 -6.5 4.5t-22.5 6.5q-25 7 -39.5 26t-14.5 45q0 34 24 56.5t60 22.5q41 0 65.5 -28.5t24.5 -74.5q0 -65 -40.5 -118t-110.5 -79zM296 511q41 19 63 43t22 50q0 12 -7 19q-3 3 -6.5 4.5t-22.5 6.5q-25 7 -39.5 26t-14.5 45
q0 34 24 56.5t60 22.5q41 0 65.5 -28t24.5 -75q0 -65 -40.5 -118t-110.5 -79z" />
    <glyph glyph-name="cid193" unicode="&#x2022;" 
d="M500 511q28 0 52 -10t42 -27.5t28 -41.5t10 -52q0 -27 -10.5 -51.5t-28.5 -42.5t-42 -28.5t-51 -10.5t-51 10.5t-42 28.5t-28.5 42.5t-10.5 51.5t10.5 51t28.5 41.5t42 28t51 10.5z" />
    <glyph glyph-name="cid114" unicode="&#x2013;" horiz-adv-x="500" 
d="M500 409v-59h-500v59h500z" />
    <glyph glyph-name="cid110" unicode="&#x2014;" 
d="M1000 409v-59h-1000v59h1000z" />
    <glyph glyph-name="cid103" unicode="&#x2122;" horiz-adv-x="1044" 
d="M266 404q0 -28 4 -39t16 -15q7 -2 14 -3t30 -1v-22h-226v22q26 1 33 1.5t15 4.5q10 4 13.5 15t3.5 37v341h-16q-30 0 -54.5 -12.5t-36.5 -33.5q-9 -17 -15 -37t-12 -52l-35 2l12 156h409l12 -156l-35 -2q-6 32 -12 52t-15 37q-12 21 -36.5 33.5t-54.5 12.5h-14v-341z
M539 445q0 -31 2 -50t9 -29.5t20 -14.5t34 -5v-22h-170v22q26 2 36.5 6t17.5 17q12 21 12 76v239q0 26 -3.5 38t-12.5 18q-5 4 -11 4.5t-28 1.5v22h162l132 -320l134 320h157v-22q-19 0 -30 -2t-16 -8t-6.5 -17.5t-1.5 -31.5v-283q0 -20 1.5 -31t7 -17t17 -8t31.5 -2v-22
h-209v22q22 1 28.5 1.5t12.5 3.5q9 5 12.5 16t3.5 37v290l-151 -362h-43l-148 357v-244z" />
    <glyph glyph-name="cid102" unicode="&#xa9;" horiz-adv-x="739" 
d="M480 448q-8 44 -34 68.5t-66 24.5q-46 0 -71.5 -37t-25.5 -104t28.5 -105.5t79.5 -38.5q72 0 108 74l23 -12q-23 -49 -57.5 -71.5t-88.5 -22.5q-79 0 -125 45t-46 123q0 39 12 70.5t34.5 54t54 35t69.5 12.5q10 0 17.5 -0.5t16.5 -2t20 -4.5t28 -7q5 -1 8.5 -1.5
t8.5 -0.5q12 0 29 7v-106zM687 394q0 -66 -25 -123.5t-68 -100.5t-100.5 -68t-123.5 -25t-124 25t-101 68t-68 100.5t-25 123.5t25 123.5t68 100.5t101 68t124 25t123.5 -25t100.5 -68t68 -100.5t25 -123.5zM656 394q0 60 -22.5 112t-61.5 90.5t-91 61t-111 22.5
q-60 0 -112 -22.5t-91 -61.5t-61.5 -91t-22.5 -111t22.5 -111t61.5 -91t91.5 -61.5t111.5 -22.5t111 22.5t91 61.5t61.5 91t22.5 111z" />
    <glyph glyph-name="cid104" unicode="&#xb0;" horiz-adv-x="357" 
d="M179 797q26 0 48.5 -10t39.5 -27t27 -39.5t10 -48.5t-10 -48.5t-27 -39.5t-39.5 -27t-48.5 -10t-49 10t-40 27t-27 39.5t-10 48.5t10 48.5t27 39.5t40 27t49 10zM179 767q-40 0 -68 -27.5t-28 -67.5q0 -20 7.5 -37t20.5 -30t30.5 -20.5t37.5 -7.5q19 0 36.5 7.5t30.5 20
t20.5 30t7.5 37.5q0 40 -27.5 67.5t-67.5 27.5z" />
    <glyph glyph-name="cid105" unicode="&#xb7;" horiz-adv-x="320" 
d="M160 465q36 0 60.5 -24.5t24.5 -60.5q0 -35 -25 -60t-60 -25t-60 25t-25 60q0 36 24.5 60.5t60.5 24.5z" />
    <glyph glyph-name="cid451" unicode="&#xe1;" horiz-adv-x="625" 
d="M432 769l3 -18l-142 -149l-32 18l49 149h122zM604 22q-45 -5 -81.5 -8.5t-56.5 -3.5q-24 0 -33.5 15t-13.5 61q-11 -16 -17.5 -24t-15.5 -16q-45 -40 -114 -40q-46 0 -87.5 17t-71.5 49q-66 72 -66 203q0 134 70 210q33 35 76 54t94 19q53 0 93 -18t75 -58l51 67h36
q-1 -19 -1.5 -34.5l-1 -32.5t-1 -39.5t-0.5 -55.5l-1 -170v-70q0 -70 11 -86q6 -9 17 -12t39 -3v-24zM420 298q0 113 -26 172q-13 28 -37 44.5t-53 16.5q-54 0 -82 -43q-20 -30 -31 -83.5t-11 -122.5q0 -119 30 -181.5t87 -62.5q33 0 60 23t41 62q22 65 22 175z" />
    <glyph glyph-name="cid453" unicode="&#xe9;" horiz-adv-x="560" 
d="M173 302q1 -56 6.5 -91.5t19.5 -67.5q43 -99 136 -99q52 0 94.5 29.5t70.5 84.5l25 -16q-38 -72 -90 -104.5t-130 -32.5q-60 0 -108 19.5t-82 55t-52.5 86t-18.5 113.5t18 114.5t50.5 87.5t79 56t103.5 20q77 0 129.5 -33.5t77.5 -98.5q4 -11 7 -23t5.5 -26t3.5 -32
t2 -42h-347zM395 331q-2 47 -5.5 74.5t-11.5 50.5q-28 78 -86 78q-65 0 -97 -88q-8 -23 -13 -49.5t-8 -65.5h221zM431 769l3 -18l-142 -149l-32 18l49 149h122z" />
    <glyph glyph-name="cid464" unicode="&#x11b;" horiz-adv-x="560" 
d="M173 302q1 -56 6.5 -91.5t19.5 -67.5q43 -99 136 -99q52 0 94.5 29.5t70.5 84.5l25 -16q-38 -72 -90 -104.5t-130 -32.5q-60 0 -108 19.5t-82 55t-52.5 86t-18.5 113.5t18 114.5t50.5 87.5t79 56t103.5 20q77 0 129.5 -33.5t77.5 -98.5q4 -11 7 -23t5.5 -26t3.5 -32
t2 -42h-347zM395 331q-2 47 -5.5 74.5t-11.5 50.5q-28 78 -86 78q-65 0 -97 -88q-8 -23 -13 -49.5t-8 -65.5h221zM403 778l31 -22l-80 -146h-111l-80 146l31 22l104 -94z" />
    <glyph glyph-name="cid456" unicode="&#xed;" horiz-adv-x="333" 
d="M234 555q-3 -45 -4.5 -95.5t-1.5 -98.5v-217q0 -33 2 -53t10 -30t23.5 -13.5t42.5 -3.5v-24h-278v24q27 0 42.5 3.5t23.5 13.5t10 30t2 53v277q0 33 -2 52.5t-9.5 29t-22.5 12.5t-41 3v24zM291 769l3 -18l-142 -149l-32 18l49 149h122z" />
    <glyph glyph-name="cid466" unicode="&#x144;" horiz-adv-x="663" 
d="M226 457q32 52 75 76t103 24q97 0 136 -67q14 -23 19.5 -50.5t5.5 -72.5v-223q0 -33 2 -53t10 -30t23 -13.5t41 -3.5v-24h-272v24q25 0 40 3.5t22.5 14t10 30t2.5 52.5v216q0 81 -20.5 117t-67.5 36q-65 0 -103 -66q-12 -22 -19.5 -50t-7.5 -52v-201q0 -34 2 -53.5
t10 -30t22.5 -13.5t40.5 -3v-24h-273v24q26 0 41 3.5t23 13.5t10 30t2 53v278q0 31 -2.5 50t-10 29t-22 13.5t-39.5 4.5v23l195 13zM476 769l3 -18l-143 -149l-31 18l48 149h123z" />
    <glyph glyph-name="cid467" unicode="&#x148;" horiz-adv-x="663" 
d="M226 457q32 52 75 76t103 24q97 0 136 -67q14 -23 19.5 -50.5t5.5 -72.5v-223q0 -33 2 -53t10 -30t23 -13.5t41 -3.5v-24h-272v24q25 0 40 3.5t22.5 14t10 30t2.5 52.5v216q0 81 -20.5 117t-67.5 36q-65 0 -103 -66q-12 -22 -19.5 -50t-7.5 -52v-201q0 -34 2 -53.5
t10 -30t22.5 -13.5t40.5 -3v-24h-273v24q26 0 41 3.5t23 13.5t10 30t2 53v278q0 31 -2.5 50t-10 29t-22 13.5t-39.5 4.5v23l195 13zM447 778l31 -22l-80 -146h-111l-80 146l30 22l105 -94z" />
    <glyph glyph-name="cid458" unicode="&#xf3;" horiz-adv-x="606" 
d="M43 277q0 62 20 116.5t55 92.5q32 34 81 52.5t106 18.5q59 0 107 -19.5t81.5 -55.5t52 -86.5t18.5 -112.5q0 -59 -17.5 -111t-48.5 -87q-35 -38 -86.5 -59.5t-111.5 -21.5q-57 0 -106.5 20.5t-81.5 55.5q-33 37 -51 88t-18 109zM178 282q0 -131 30.5 -193t95.5 -62
q66 0 96 60.5t30 191.5q0 132 -30.5 193.5t-96.5 61.5q-31 0 -55.5 -15t-37.5 -43q-32 -63 -32 -194zM428 769l3 -18l-142 -149l-32 18l49 149h122z" />
    <glyph glyph-name="cid460" unicode="&#xfa;" horiz-adv-x="627" 
d="M421 11q-2 20 -3.5 47t-1.5 58q-32 -52 -80 -81t-104 -29q-45 0 -78.5 19.5t-50.5 55.5q-10 21 -14.5 49.5t-4.5 74.5v14l2 202q0 2 0.5 4t0.5 4q0 58 -11 73q-7 9 -17.5 12t-44.5 4v24l201 13l-3.5 -49t-2 -44t-1.5 -47.5t-1 -58.5l-1 -106v-19q0 -26 0.5 -44t2 -31.5
t4 -24.5t6.5 -22q16 -49 70 -49q35 0 62.5 21.5t45.5 62.5q11 25 15 51.5t4 67.5v158q0 41 -3.5 59.5t-11.5 26.5q-4 3 -7.5 5t-9.5 3t-15.5 2t-25.5 1v24l201 13q-2 -51 -3.5 -80t-2 -48t-0.5 -33.5v-38.5v-208q0 -33 2.5 -53t9.5 -31.5t19.5 -15.5t33.5 -4v-23zM443 769
l3 -18l-143 -149l-31 18l48 149h123z" />
    <glyph glyph-name="cid461" unicode="&#xfc;" horiz-adv-x="627" 
d="M421 11q-2 20 -3.5 47t-1.5 58q-32 -52 -80 -81t-104 -29q-45 0 -78.5 19.5t-50.5 55.5q-10 21 -14.5 49.5t-4.5 74.5v14l2 202q0 2 0.5 4t0.5 4q0 58 -11 73q-7 9 -17.5 12t-44.5 4v24l201 13l-3.5 -49t-2 -44t-1.5 -47.5t-1 -58.5l-1 -106v-19q0 -26 0.5 -44t2 -31.5
t4 -24.5t6.5 -22q16 -49 70 -49q35 0 62.5 21.5t45.5 62.5q11 25 15 51.5t4 67.5v158q0 41 -3.5 59.5t-11.5 26.5q-4 3 -7.5 5t-9.5 3t-15.5 2t-25.5 1v24l201 13q-2 -51 -3.5 -80t-2 -48t-0.5 -33.5v-38.5v-208q0 -33 2.5 -53t9.5 -31.5t19.5 -15.5t33.5 -4v-23zM224 748
q27 0 45.5 -18.5t18.5 -45.5t-19 -46t-45 -19q-27 0 -46 19t-19 46q0 26 19 45t46 19zM410 748q27 0 45.5 -18.5t18.5 -45.5t-19 -46t-45 -19q-27 0 -46 19t-19 46t18.5 45.5t46.5 18.5z" />
    <glyph glyph-name=".notdef.001" 
d="M900 860v-960h-800v960h800zM186 808l315 -387l314 387h-629zM848 766l-314 -387l314 -387v774zM814 -48l-313 386l-314 -386h627zM467 379l-315 389v-777z" />
    <glyph glyph-name="cid200" 
 />
    <glyph glyph-name="cid201" 
d="M363 736q60 2 108 5t97 9.5t104 16.5t129 26q12 2 25.5 4t21.5 2q58 0 58 -84q0 -83 -58 -83q-8 0 -14 0.5t-17 2.5l-32 6t-58 12q-86 18 -175 28.5t-189 13.5v41zM292 716q0 -35 -24 -59t-59 -24t-59 24t-24 59t24 59t59 24t59 -24t24 -59z" />
    <glyph glyph-name="cid202" 
d="M888 716l-254 30v60l254 31v-121zM888 544l-254 31v59l254 31v-121z" />
    <glyph glyph-name="cid203" 
d="M392 805h49v-123l183 -29v128h49v-136l215 -35v-60l-215 35v-131l215 -35v-61l-215 35v-122h-49v130l-183 29v-138h-49v145l-252 41v60l252 -40v131l-252 41v60l252 -41v116zM441 490l183 -29v132l-183 28v-131z" />
    <glyph glyph-name="cid204" 
d="M133 582q2 52 10.5 86.5t28.5 66.5q23 38 53.5 58t64.5 20q27 0 42 -20.5t15 -56.5t-18 -49q-3 -2 -5.5 -3.5t-7.5 -2t-13.5 -1t-23.5 -1.5q-106 -6 -121 -97h314q25 60 49.5 101t50 66t55 36t65.5 11q55 0 100.5 -26t69.5 -71q13 -23 19.5 -50t11.5 -67h55v-42h-55
q-3 -52 -10.5 -85.5t-23.5 -62.5q-20 -37 -47.5 -56.5t-59.5 -19.5q-27 0 -42 19t-15 54q0 38 20 50q4 3 6.5 4t7 2t13 1h23.5q26 1 46.5 8.5t34.5 21.5q11 11 16 24.5t7 39.5h-284l-25.5 -55.5l-18 -38t-13.5 -26t-13 -20.5q-60 -90 -169 -90q-60 0 -106 26t-73 74
q-17 30 -24.5 59t-9.5 71h-85v42h85zM869 582q-3 26 -11 43.5t-23 31.5q-37 34 -99 34q-23 0 -41.5 -5.5t-34.5 -18.5t-30.5 -33.5t-29.5 -51.5h269zM158 540q3 -35 16.5 -57.5t40.5 -39.5q37 -22 89 -22q26 0 47 6t38.5 20t33 36.5t32.5 56.5h-297z" />
    <glyph glyph-name="cid205" 
d="M694 843q95 0 151 -49t56 -133q0 -85 -55 -134t-151 -49t-152 49.5t-56 133.5t56 133t151 49zM694 729q-97 0 -140.5 -16t-43.5 -53q0 -36 43 -52t140 -16q99 0 142 16t43 53q0 35 -43.5 51.5t-140.5 16.5zM879 151l-757 564l25 30l756 -563zM332 419q95 0 151 -49
t56 -132q0 -85 -55 -134.5t-152 -49.5q-47 0 -85 13t-65 37t-42 57.5t-15 75.5q0 84 56 133t151 49zM334 305q-98 0 -141.5 -16t-43.5 -53q0 -36 43 -52t140 -16q98 0 141 16t43 53q0 35 -43.5 51.5t-138.5 16.5z" />
    <glyph glyph-name="cid206" 
d="M560 91h-25q-3 26 -9 41t-17 28l-10.5 10.5t-14 9.5l-25.5 13l-44 21q-25 12 -50.5 26.5t-48.5 29.5l-75 -72q-23 -22 -37.5 -37.5t-22.5 -28t-11.5 -24.5t-4.5 -27h-25v202l80 71q-49 56 -70.5 110.5t-21.5 124.5q0 54 13.5 98t39.5 73q24 26 61.5 40.5t79.5 14.5
q75 0 127 -42t90 -134q29 26 53 44t45 29.5t41.5 16.5t41.5 5q29 0 58.5 -12t52.5 -33q30 -26 46 -72t16 -103q0 -91 -40 -145t-108 -54q-59 0 -102.5 44.5t-80.5 143.5l-224 -210q79 -50 135 -50q30 0 43.5 19t18.5 66h25v-237zM585 523q15 -26 25.5 -40.5t24.5 -27.5
q43 -39 113 -39q57 0 89 26t32 72q0 45 -31.5 72.5t-83.5 27.5q-29 0 -54.5 -9.5t-56.5 -32.5l-16 -13l-19.5 -15.5t-16 -13.5t-6.5 -7zM509 613q-12 16 -20.5 24.5t-20.5 16.5q-21 14 -51.5 22.5t-63.5 8.5q-83 0 -132.5 -41.5t-49.5 -111.5q0 -25 6.5 -50.5t18.5 -47.5
q8 -15 18 -27t30 -32z" />
    <glyph glyph-name="cid207" 
d="M888 716l-254 30v60l254 31v-121z" />
    <glyph glyph-name="cid208" 
d="M891 584q-39 28 -74.5 46t-80.5 32q-66 20 -142.5 30.5t-167.5 10.5q-198 0 -335 -50q-35 -13 -65.5 -29t-65.5 -40l-16 19q39 45 75 74t82 55q74 42 156.5 64t168.5 22q93 0 181 -25t166 -74q38 -23 69 -49.5t66 -66.5z" />
    <glyph glyph-name="cid209" 
d="M-40 856q86 -62 198 -90.5t268 -28.5t267.5 28.5t197.5 90.5l17 -19q-39 -44 -75 -74t-82 -56q-150 -85 -325 -85q-94 0 -181.5 25t-165.5 73q-38 24 -69 51t-66 66z" />
    <glyph glyph-name="cid210" 
d="M755 662q9 -10 15 -16l12.5 -13t16.5 -16.5l28 -25.5q17 -16 17 -30q0 -21 -33 -37q-17 -10 -30 -10q-12 0 -18 14q-1 2 -2 4.5t-2.5 7.5t-4.5 14t-7 24l-10 32.5l-13 39.5l-8 -20.5t-5 -14l-4.5 -15l-6.5 -22.5q-6 -21 -10.5 -34t-8.5 -20t-7.5 -9t-9.5 -2
q-10 0 -21 4.5t-20 11t-15 14.5t-6 15q0 15 23 37l35 33.5l31 31.5q-20 -4 -44.5 -10l-55.5 -14q-12 -4 -24 -4q-13 0 -20 13t-7 35q0 21 7 33.5t19 12.5q5 0 22 -4t39 -10q20 -5 32.5 -7.5l31.5 -6.5l-19.5 19l-52.5 49q-19 18 -19 31q0 19 31 37q18 10 30 10q14 0 21 -19
q1 -4 7.5 -22.5l17.5 -51.5q0 -2 2.5 -8.5l6.5 -16.5q2 -7 6 -17q14 35 20.5 56.5t10.5 38.5q6 25 11.5 33t16.5 8q10 0 21 -4t20 -11t15 -15t6 -15q0 -5 -1 -8t-5 -8.5t-12 -13.5l-22 -22l-48 -48q8 1 14 2t15.5 3t26 6l46.5 11q8 2 13.5 3t8.5 1q11 0 18 -13t7 -34
q0 -20 -6.5 -32.5t-17.5 -12.5q-5 0 -11 1t-14 3q-23 7 -51.5 14t-48.5 10z" />
    <glyph glyph-name="cid211" 
d="M151 507v61h252v241h57v-241h233v-61h-233v-240h-57v240h-252z" />
    <glyph glyph-name="cid212" 
d="M21 802q44 -85 94 -85q11 0 16.5 5.5t9.5 22.5q17 62 73 62q35 0 57.5 -23.5t22.5 -59.5q0 -42 -28 -66.5t-75 -24.5q-64 0 -116 39.5t-80 108.5z" />
    <glyph glyph-name="cid213" 
d="M474 828v-235h-84v235h84z" />
    <glyph glyph-name="cid214" 
d="M293 720q0 -35 -24.5 -59.5t-59.5 -24.5q-18 0 -33.5 6.5t-27 18t-18 27t-6.5 32.5q0 35 25 60t60 25t59.5 -24.5t24.5 -60.5z" />
    <glyph glyph-name="cid215" 
d="M888 571v-60l-925 333v60z" />
    <glyph glyph-name="cid216" 
d="M506 840q174 0 284 -73q47 -32 72.5 -82.5t25.5 -111.5q0 -60 -25.5 -110.5t-72.5 -82.5q-54 -36 -125.5 -54.5t-158.5 -18.5t-158.5 18.5t-124.5 54.5q-48 32 -73.5 82.5t-25.5 110.5q0 61 25.5 111.5t73.5 82.5q54 35 126 54t157 19zM506 707q-96 0 -161.5 -7.5
t-108.5 -24.5q-87 -33 -87 -102q0 -75 104 -108q42 -14 103 -20t150 -6q98 0 162.5 7.5t107.5 24.5q87 32 87 102t-85.5 102t-271.5 32z" />
    <glyph glyph-name="cid217" 
d="M168 738q0 -17 1 -29t2 -20t3.5 -14t5.5 -12q9 -17 31.5 -23.5t70.5 -6.5h460q19 0 29.5 0.5t16 0.5t8.5 0.5t6 1.5q17 3 22 16.5t5 51.5v27h28q6 -72 13.5 -128t16.5 -106q-107 9 -252 9h-353q-46 0 -67.5 -5t-32.5 -19q-4 -5 -6.5 -10.5t-4 -14t-2.5 -21t-1 -31.5h-28
v333h28z" />
    <glyph glyph-name="cid218" 
d="M140 830q60 -8 106 -23.5t89 -43.5q22 -14 42.5 -31t43.5 -39.5t50.5 -53.5l63.5 -74q29 -35 49.5 -53.5t42.5 -29.5q43 -21 92 -21q66 0 105 32t39 86q0 70 -67 93q-9 3 -16.5 5t-17 3t-23 1.5t-34.5 1.5q-29 2 -42 16.5t-13 47.5q0 71 53 71q41 0 77.5 -21.5
t63.5 -61.5q45 -68 45 -166q0 -114 -48.5 -177.5t-136.5 -63.5q-74 0 -126 45q-19 16 -39.5 44t-42.5 66l-46.5 81.5t-33.5 55t-27.5 38.5t-28.5 33q-27 30 -51 46.5t-62 32.5v-290q0 -31 5.5 -52.5t19 -36t35.5 -24t56 -16.5l-7 -34l-216 35v478z" />
    <glyph glyph-name="cid219" 
d="M523 556q-18 -230 -193 -230q-97 0 -151.5 69.5t-54.5 191.5q0 53 11.5 98t32 77.5t49 51t62.5 18.5q29 0 44.5 -20t15.5 -55q0 -38 -19 -51q-3 -2 -5.5 -3.5t-8 -2t-15.5 -1t-27 -1.5q-21 -1 -43.5 -8.5t-36.5 -18.5q-16 -12 -25 -34t-9 -48q0 -63 47.5 -96.5
t135.5 -33.5q105 0 145 55q14 20 23 54.5t9 75.5v30h31v-28q2 -172 173 -172q73 0 111 27t38 81q0 56 -42 79q-34 18 -81 20q-25 1 -33.5 3t-16.5 9q-15 15 -15 52q0 70 49 70q35 0 65 -18t52.5 -50t35 -75t12.5 -93q0 -54 -14.5 -100t-40.5 -78q-22 -26 -54.5 -40.5
t-68.5 -14.5q-74 0 -120.5 54.5t-59.5 155.5h-8z" />
    <glyph glyph-name="cid220" 
d="M266 423q-31 0 -50 -3t-29.5 -13t-14.5 -27.5t-4 -46.5h-28v301h27q2 -35 4 -48t10 -22q15 -21 85 -21h71v323h48l497 -350v-93h-500v-107h-45v107h-71zM778 543l-396 278v-278h396z" />
    <glyph glyph-name="cid221" 
d="M512 752q43 -47 62 -91.5t19 -101.5q0 -55 -15.5 -99t-45 -74.5t-71 -47t-93.5 -16.5q-56 0 -101 19t-77 54t-49 85.5t-17 112.5q0 49 11 91.5t30.5 74t46 49.5t57.5 18q58 0 58 -71q0 -36 -17 -50q-6 -5 -14.5 -7t-30.5 -3q-54 -1 -82 -28q-16 -14 -24.5 -34.5
t-8.5 -43.5q0 -62 51 -98q28 -18 67.5 -28t86.5 -10q95 0 147 37t52 105q0 50 -29 94t-80 74l8 33l420 -33v-409l-112 18v360z" />
    <glyph glyph-name="cid222" 
d="M542 697q38 -40 53 -76t15 -86t-16.5 -91.5t-47 -71t-73 -45.5t-94.5 -16q-57 0 -104 18.5t-80.5 52t-52 81t-18.5 105.5q0 128 91 195t266 67q102 0 182 -20.5t131 -58.5q95 -71 95 -203q0 -45 -9.5 -84t-26.5 -67.5t-40 -44.5t-50 -16t-42.5 19t-15.5 53q0 19 5 33.5
t14 21.5q3 2 5.5 3.5t8 2t14.5 1.5t24 2q43 2 65.5 23t22.5 56q0 46 -33.5 77.5t-98.5 47.5q-41 10 -91.5 15.5t-98.5 5.5zM577 568q0 33 -18.5 62.5t-51.5 48.5q-18 11 -41.5 15.5t-58.5 4.5q-51 0 -98 -8t-84 -24q-35 -15 -55.5 -42t-20.5 -59q0 -57 60 -89.5t167 -32.5
q94 0 147.5 33t53.5 91z" />
    <glyph glyph-name="cid223" 
d="M766 687q0 32 -8.5 48.5t-31.5 30.5q-14 9 -34.5 15.5t-54.5 14.5l4 33l232 -31v-478h-71q-79 54 -153 93.5t-148 65.5q-43 16 -88 28t-89 20q-18 3 -29.5 4.5l-24 3t-30.5 2t-50 2.5q-40 1 -54 20q-16 21 -16 64q0 66 48 66q25 0 61.5 -9.5t82 -27.5t97 -43.5
t106.5 -57.5q27 -15 53 -31l56 -35l64.5 -42.5l77.5 -53.5v298z" />
    <glyph glyph-name="cid224" 
d="M549 491q-41 -93 -92 -134.5t-123 -41.5q-48 0 -87 19t-66 53.5t-42 84t-15 110.5q0 117 49 183.5t136 66.5q44 0 81.5 -19t65.5 -55q14 -18 24 -38t23 -52q21 39 41 66.5t41.5 44.5t46.5 24.5t56 7.5q46 0 83 -17t63 -48.5t40.5 -76t14.5 -99.5q0 -51 -12.5 -93
t-36 -71.5t-55.5 -46t-71 -16.5q-121 0 -165 148zM562 521q11 -20 19.5 -30.5t22.5 -21.5q22 -16 48 -23.5t61 -7.5q24 0 48.5 6t42.5 17q28 17 43 46.5t15 67.5q0 60 -34 94t-92 34q-38 0 -66 -17.5t-54 -55.5q-7 -11 -15 -26.5l-19 -38.5zM487 636q-12 23 -21.5 35.5
t-23.5 23.5q-22 19 -53.5 29t-67.5 10q-78 0 -124.5 -43.5t-46.5 -115.5q0 -33 10.5 -60t29.5 -46.5t45.5 -30t58.5 -10.5q38 0 66.5 16.5t55.5 54.5q11 15 24 38.5t27 53.5q2 5 5.5 12.5l6.5 14.5l5.5 12.5z" />
    <glyph glyph-name="cid225" 
d="M471 450q-38 40 -53.5 76.5t-15.5 85.5q0 50 17 91t47.5 70.5t73 46t94.5 16.5q57 0 104 -18.5t80.5 -52.5t52 -81.5t18.5 -105.5q0 -66 -25 -116.5t-73 -82.5q-49 -33 -111 -48t-148 -15q-201 0 -304.5 71.5t-103.5 210.5q0 46 9.5 85t26.5 67.5t40.5 44.5t50.5 16
q29 0 45.5 -19t16.5 -53q0 -19 -5 -33.5t-14 -21.5q-3 -2 -6 -3.5t-8.5 -2t-14.5 -1.5t-25 -2q-91 -6 -91 -80q0 -45 33.5 -76.5t98.5 -47.5q40 -10 91 -15.5t99 -5.5zM435 579q0 -32 19 -62t51 -49q19 -11 42.5 -15.5t58.5 -4.5q51 0 98 8.5t84 23.5q35 15 55.5 42t20.5 59
q0 57 -60 89.5t-167 32.5q-102 0 -156 -39q-46 -34 -46 -85z" />
    <glyph glyph-name="cid226" 
d="M293 720q0 -35 -24.5 -59.5t-59.5 -24.5q-18 0 -33.5 6.5t-27 18t-18 27t-6.5 32.5q0 35 25 60t60 25t59.5 -24.5t24.5 -60.5zM676 720q0 -35 -24.5 -59.5t-59.5 -24.5q-36 0 -60.5 24.5t-24.5 60.5q0 35 24.5 59.5t60.5 24.5q35 0 59.5 -24.5t24.5 -60.5z" />
    <glyph glyph-name="cid227" 
d="M676 720q0 -35 -24.5 -59.5t-59.5 -24.5q-36 0 -60.5 24.5t-24.5 59.5q0 36 25 60.5t60 24.5t59.5 -24.5t24.5 -60.5zM21 803q44 -85 94 -85q11 0 16.5 5.5t9.5 22.5q17 62 73 62q35 0 57.5 -23.5t22.5 -59.5q0 -42 -28 -66.5t-75 -24.5q-64 0 -116 39.5t-80 108.5z" />
    <glyph glyph-name="cid228" 
d="M224 399h-70l265 457h26l264 -457h-70l-207 377z" />
    <glyph glyph-name="cid229" 
d="M554 267h-57v542h57v-542zM365 267h-57v542h57v-542z" />
    <glyph glyph-name="cid230" 
d="M639 862h70l-264 -457h-26l-265 457h70l208 -377z" />
    <glyph glyph-name="cid231" 
d="M356 611q8 1 14 1h11q27 0 49.5 -4t44 -13t42.5 -24.5t45 -37.5l27.5 -24t20.5 -17t17.5 -12t17.5 -9q42 -19 90 -19q66 0 104.5 32t38.5 86q0 29 -12 53t-32 36q-16 10 -40.5 16.5t-43.5 6.5l-39 -1q-47 0 -47 64q0 74 53 74q54 0 97.5 -34.5t67.5 -95.5q22 -57 22 -132
q0 -112 -48 -176.5t-132 -64.5q-67 0 -113 43q-9 8 -16 16t-14.5 18.5l-17 25t-21.5 35.5q-21 34 -38.5 56.5t-38 35.5t-46.5 18.5t-63 7.5v39zM291 590q0 -35 -24 -59t-59 -24t-59 24t-24 59q0 17 6.5 32t18 26.5t26.5 18t33 6.5q34 0 58 -24t24 -59z" />
    <glyph glyph-name="cid232" 
d="M219 150q-25 34 -43 68t-29 69t-16.5 72.5t-5.5 79.5q0 90 25 162.5t72 123t113.5 77.5t150.5 27q90 0 165.5 -31.5t130.5 -87.5t85.5 -133t30.5 -169q0 -78 -24 -143t-68 -111.5t-105 -72.5t-134 -26q-61 0 -114.5 19t-93 52.5t-62 78.5t-22.5 97q0 38 17 60t46 22
q5 0 11 -0.5t13 -1.5q-83 62 -83 142q0 54 38.5 84t105.5 30q83 0 159 -34.5t125 -94.5q24 -31 37 -66t13 -73q0 -41 -33 -76l23 -6v-100l-80 22.5l-83.5 22l-80.5 20t-71 16t-54.5 10.5t-31.5 4q-26 0 -26 -25q0 -51 54 -100q78 -70 195 -70q63 0 117 20.5t96 61.5
q44 43 68.5 102.5t24.5 124.5q0 60 -19.5 113t-57.5 95q-54 60 -131.5 92t-169.5 32q-79 0 -145 -24t-114 -71q-81 -80 -81 -213q0 -36 4.5 -68t14.5 -62.5t25.5 -61.5t37.5 -65zM320 481q0 -19 22 -42t60 -43q25 -14 60.5 -27t73 -23.5t72.5 -17t58 -6.5q67 0 67 44
q0 26 -24.5 53t-69.5 50q-51 26 -114.5 40.5t-122.5 14.5q-39 0 -60.5 -11.5t-21.5 -31.5z" />
    <glyph glyph-name="cid233" 
d="M317 686q-56 22 -92 22q-29 0 -43 -22t-16 -72h-26v257h26q0 -24 8.5 -43.5t27 -37t48.5 -33t74 -32.5l564 -213l8 -74l-613 -218q-47 -17 -72 -32.5t-34 -32.5q-4 -8 -6 -18t-5 -35h-26v326h26q2 -48 12.5 -67t35.5 -19h3q12 1 29.5 4.5t36.5 10.5l110 38v263zM757 522
l-325 122v-236z" />
    <glyph glyph-name="cid234" 
d="M166 850q1 -30 4.5 -48t14 -27.5t30.5 -12t55 -2.5h488q34 0 54.5 3t31.5 12t14.5 27t3.5 48h26v-313q0 -149 -41 -218t-129 -69q-80 0 -120.5 50t-53.5 165h-7q-12 -241 -194 -241q-54 0 -92.5 18.5t-63 58.5t-36 102.5t-11.5 150.5v296h26zM555 547q0 -78 39.5 -118.5
t117.5 -40.5q147 0 147 166v77h-304v-84zM169 555q0 -188 179 -188q51 0 89 16.5t59 48.5q13 20 20 50.5t7 67.5v81h-354v-76z" />
    <glyph glyph-name="cid235" 
d="M637 247q49 8 81.5 20t62.5 33q45 31 69 75t24 93q0 48 -23 89t-65 66q-97 58 -261 58q-83 0 -149.5 -16.5t-113 -47t-71.5 -74.5t-25 -99q0 -57 26.5 -107.5t76.5 -87.5q17 -13 35.5 -23t46.5 -21l-16 -29q-107 41 -159 114.5t-52 185.5q0 72 24.5 136t69.5 110
q50 51 123.5 77t164.5 26q90 0 163.5 -25t125.5 -71t80 -111t28 -145q0 -20 -1 -35t-4 -33t-9 -41l-15 -57q-6 -21 -6 -42q0 -11 2.5 -20.5t10.5 -33.5h-244v36z" />
    <glyph glyph-name="cid236" 
d="M166 850q1 -30 4.5 -48t14 -27.5t30.5 -12t55 -2.5h488q34 0 54.5 3t31.5 12t14.5 27t3.5 48h26v-301q0 -86 -13.5 -151.5t-41.5 -110.5q-45 -75 -120 -110.5t-187 -35.5q-122 0 -206 38.5t-127 115.5q-53 91 -53 266v289h26zM169 559q0 -65 18 -116.5t51 -82.5
q41 -39 109.5 -59t161.5 -20q85 0 147.5 16t109.5 48q93 64 93 225v60h-690v-71z" />
    <glyph glyph-name="cid237" 
d="M166 850q1 -30 4.5 -48t14 -27.5t30.5 -12t55 -2.5h488q34 0 54.5 3t31.5 12t14.5 27t3.5 48h26v-549l-213 -18l-1 35q52 8 87.5 22.5t57 40t31 62.5t9.5 90v98h-314v-72q0 -41 4.5 -67t17.5 -42t35.5 -24t57.5 -12v-32h-261v32q36 4 59 12.5t36 24t17.5 41.5t4.5 67v72
h-347v-110q0 -51 10.5 -87.5t35 -62.5t64 -42.5t98.5 -27.5l-4 -33l-233 21v561h26z" />
    <glyph glyph-name="cid238" 
d="M270 631q-34 0 -54.5 -3t-31 -12.5t-14 -28.5t-4.5 -50h-26v313h26q1 -31 4.5 -49t14 -27t30.5 -11.5t55 -2.5h488q34 0 54.5 3t31.5 12t14.5 27t3.5 48h26v-549l-207 -15l-3 35q51 9 85.5 24.5t55.5 41t30.5 62.5t9.5 89v93h-316v-77q0 -40 5 -66t17.5 -42t35 -24
t57.5 -12v-32h-261v32q36 4 59 12t36 24t17.5 41.5t4.5 66.5v77h-244z" />
    <glyph glyph-name="cid239" 
d="M489 119h-26q-1 27 -4.5 41t-11.5 22q-8 9 -26.5 12t-62.5 3h-85h-33.5t-24 -0.5l-20.5 -1t-22 -1.5l-3.5 31.5t-4 26.5t-6 27.5t-8.5 32.5q-8 27 -13 48.5t-8 41t-4.5 37.5t-1.5 38q0 82 25.5 146.5t74 109.5t118.5 68.5t159 23.5q92 0 166 -25.5t126.5 -72t81 -112.5
t28.5 -147q0 -19 -1 -34.5t-3.5 -32t-7 -37l-11.5 -50.5q-6 -23 -6 -45q0 -14 2.5 -27t10.5 -32h-232l-1 37q45 8 77 19t59 31q42 29 63.5 71t21.5 92q0 59 -28.5 103.5t-83.5 70.5q-99 47 -243 47q-105 0 -189 -24.5t-129 -68.5q-24 -24 -37 -56.5t-13 -70.5q0 -23 5 -48
t16 -50q5 -14 10 -22t15 -19h171q31 0 49 2.5t27.5 12t13 28t4.5 49.5h26v-295z" />
    <glyph glyph-name="cid240" 
d="M270 630q-35 0 -55 -2.5t-30.5 -12t-14 -27.5t-4.5 -49h-26v311h26q1 -31 4.5 -49t14 -27t30.5 -11.5t55 -2.5h489q34 0 54 2.5t30.5 11.5t14 26t4.5 46h26v-303h-26q-1 30 -4.5 47t-14 26t-30.5 11.5t-54 2.5h-205v-332h205q34 0 54 2.5t30.5 11.5t14 26t4.5 47h26v-304
h-26q-1 30 -4.5 47t-14 26t-30.5 11.5t-54 2.5h-489q-35 0 -55 -2.5t-30.5 -11.5t-14 -27t-4.5 -49h-26v311h26q1 -31 4.5 -49t14 -27.5t30.5 -12t55 -2.5h251v332h-251z" />
    <glyph glyph-name="cid241" 
d="M166 845q1 -33 4.5 -51.5t14 -28.5t30.5 -12.5t55 -2.5h488q34 0 54 2.5t31 12t14.5 27.5t4.5 49h26v-312h-26q-1 31 -4.5 49t-14.5 27.5t-31 12t-54 2.5h-488q-35 0 -55 -3t-30.5 -12.5t-14 -28.5t-4.5 -51h-26v320h26z" />
    <glyph glyph-name="cid242" 
d="M888 403h-26q-1 31 -4.5 49t-14.5 27.5t-31 12t-54 2.5h-320h-34.5t-46.5 -1q-11 -1 -19 -1h-15q-91 0 -140 45q-59 56 -59 161q0 37 7.5 68.5t20.5 54t31 35t40 12.5q27 0 44.5 -23t17.5 -59q0 -17 -5.5 -30.5t-15.5 -18.5q-3 -2 -5.5 -3t-6.5 -1.5t-11.5 -1t-20.5 -1.5
q-33 -2 -51 -14.5t-18 -35.5q0 -31 34.5 -43t122.5 -12h450q34 0 54 2.5t31 12.5t14.5 29t4.5 51h26v-317z" />
    <glyph glyph-name="cid243" 
d="M270 630q-35 0 -55 -2.5t-30.5 -11.5t-14 -27t-4.5 -49h-26v310h26q1 -31 4.5 -49t14 -27t30.5 -11.5t55 -2.5h488q34 0 54 2.5t31 11.5t14.5 26t4.5 46h26v-302h-26q-1 29 -4.5 46t-14.5 26t-31 11.5t-54 2.5h-272l231 -207q37 -33 60.5 -47.5t41.5 -14.5q21 0 30.5 16
t12.5 58h26v-276h-26q-2 27 -10 50.5t-24.5 48t-43.5 52.5t-66 64l-108 99l-346 -220q-51 -32 -73 -60t-26 -64h-25v210q11 5 18.5 8t16.5 8.5l23 14l39 23.5l278 167l-79 70h-166z" />
    <glyph glyph-name="cid244" 
d="M166 850q1 -32 4.5 -51t14.5 -29t31 -12.5t54 -2.5h488q34 0 54 2.5t31 12t14.5 27.5t4.5 49h26v-312h-26q-1 31 -4.5 49t-14.5 27.5t-31 12t-54 2.5h-589v-92q0 -63 19 -106t58 -70q25 -17 54 -27t79 -20l-4 -35l-235 23v552h26z" />
    <glyph glyph-name="cid245" 
d="M339 718q-57 0 -87 -4t-48 -14q-20 -12 -28 -30t-10 -56h-26v249h26q2 -32 10.5 -52t28 -31.5t52 -16t82.5 -4.5h421q41 0 59 4.5t28 17.5q8 9 11 22.5t4 42.5h26v-239l-564 -219l564 -222v-229h-26q-1 30 -4.5 47.5t-14 26t-31 11t-55.5 2.5h-488q-34 0 -54 -2.5
t-30.5 -11.5t-14 -27t-4.5 -49h-26v309h26q1 -30 4.5 -48t14 -27.5t30.5 -12t54 -2.5h552l-662 258v52l654 255h-474z" />
    <glyph glyph-name="cid246" 
d="M332 717q-50 0 -81 -4t-49 -15.5t-25.5 -32t-9.5 -52.5h-27v251h27q1 -32 9.5 -52.5t27.5 -32.5t52 -16.5t84 -4.5h397q37 0 60 4t37 14.5t20 29.5t8 49h26v-209l-576 -408h376q57 0 87.5 4t47.5 15q20 11 28 30t10 57h27v-253h-27q-2 36 -10 54.5t-28 30.5
q-34 21 -128 21h-559v74l638 446h-442z" />
    <glyph glyph-name="cid247" 
d="M514 825q79 0 148.5 -21.5t122.5 -63.5q57 -44 87.5 -113.5t30.5 -154.5q0 -84 -30.5 -153t-87.5 -114q-51 -42 -121.5 -63.5t-149.5 -21.5q-80 0 -150.5 21.5t-121.5 63.5q-57 45 -87.5 114t-30.5 153t30.5 153.5t87.5 114.5q51 41 122 63t150 22zM514 679
q-88 0 -152.5 -12.5t-116.5 -38.5q-94 -49 -94 -156q0 -106 94 -155q51 -26 115.5 -38.5t153.5 -12.5q88 0 152.5 12.5t115.5 38.5q94 49 94 155q0 107 -94 156q-51 26 -116 38.5t-152 12.5z" />
    <glyph glyph-name="cid248" 
d="M269 631q-34 0 -54 -3t-30.5 -12.5t-14 -28.5t-4.5 -52h-26v316h26q1 -31 4.5 -49t14 -27t30.5 -11.5t54 -2.5h489q34 0 54 2.5t30.5 11.5t14 26t5.5 46h26v-301q0 -153 -49.5 -223t-158.5 -70q-151 0 -199 128q-12 33 -19 85.5t-7 115.5v49h-186zM484 579q0 -94 41 -138
q23 -24 61.5 -36.5t87.5 -12.5q185 0 185 175v64h-375v-52z" />
    <glyph glyph-name="cid249" 
d="M108 89q-26 41 -38.5 78t-12.5 77q0 42 18 73.5t61 65.5q-7 25 -9.5 44.5t-2.5 45.5q0 78 25.5 143t76.5 112q102 97 279 97q88 0 160.5 -23t126.5 -68q55 -45 83 -111.5t28 -149.5q0 -81 -26.5 -146t-75.5 -110.5t-119.5 -70t-157.5 -24.5q-155 0 -260 69
q-26 17 -44.5 35t-39.5 47q-35 -27 -51.5 -52.5t-16.5 -53.5q0 -33 19 -72zM281 640q54 -14 83 -47.5t29 -84.5q0 -54 -34.5 -98.5t-114.5 -92.5q30 -14 46 -20l30 -11q33 -10 83.5 -15.5t105.5 -5.5q161 0 261 47q51 25 78.5 67.5t27.5 97.5q0 51 -24 90t-69 62
q-101 53 -270 53q-48 0 -90.5 -5t-73.5 -14q-2 -1 -15.5 -5t-35.5 -12q-7 -4 -17 -6zM164 401l38 22l26 16t20 13.5t19 14.5q29 22 41.5 43t12.5 45q0 55 -73 65q-23 -8 -36 -15.5t-25 -23.5q-18 -22 -27.5 -50t-9.5 -58q0 -38 14 -72z" />
    <glyph glyph-name="cid250" 
d="M269 629q-34 0 -54 -2.5t-30.5 -11.5t-14 -27t-4.5 -49h-26v310h26q1 -31 4.5 -49t14 -27t30.5 -11.5t54 -2.5h489q34 0 54 2.5t30.5 11.5t14 26t5.5 46h26v-306q0 -63 -8 -113.5t-22 -80.5q-23 -48 -59.5 -70t-92.5 -22q-91 0 -139 57t-57 176h-8q-5 -39 -17.5 -68
t-35.5 -56q-11 -12 -23 -22.5t-31 -21t-47 -23.5l-70 -31q-34 -15 -55.5 -26t-34 -22.5t-18 -24t-6.5 -30.5h-24v197l93 32t73.5 26.5t57.5 23.5t46 22q46 24 64.5 51.5t18.5 75.5v40h-224zM522 575q0 -90 43.5 -136.5t128.5 -46.5t125 43t40 133v61h-337v-54z" />
    <glyph glyph-name="cid251" 
d="M375 818v-40q-113 -11 -167 -56t-54 -130q0 -66 36.5 -103.5t101.5 -37.5q25 0 46.5 8t41 27t39.5 50.5t43 78.5q15 32 26 53l18.5 35.5t14 24l12.5 18.5q32 43 69.5 62.5t89.5 19.5q62 0 111.5 -31.5t75.5 -86.5q23 -49 23 -128q0 -12 -0.5 -22.5t-2.5 -23l-5 -30.5
t-9 -46q-4 -19 -4 -35q0 -12 3 -24.5t11 -35.5l-224 8v40q43 3 71 10.5t54 23.5q38 23 58.5 58t20.5 80q0 58 -36 94t-94 36q-51 0 -84 -33q-9 -9 -17 -19.5t-16.5 -25t-19 -35t-24.5 -50.5q-15 -33 -28.5 -58.5t-25.5 -45t-23.5 -34.5t-24.5 -28q-54 -52 -139 -52
q-51 0 -93 18t-68 52q-57 72 -57 183q0 15 0.5 28t2.5 28t5.5 33.5l8.5 45.5q3 18 3 38q0 13 -2 26t-7 40z" />
    <glyph glyph-name="cid252" 
d="M270 466q-35 0 -55 -3t-30.5 -13.5t-14 -31.5t-4.5 -56h-26v339h26q1 -35 4.5 -55.5t14 -31t30.5 -13.5t55 -3h592q-2 67 -15 106t-43 65q-24 21 -64.5 35t-107.5 25l2 36l254 -19v-629l-254 -19l-2 36q73 12 115 28t65 41q25 26 36.5 63.5t13.5 99.5h-592z" />
    <glyph glyph-name="cid253" 
d="M888 554h-26q-1 29 -4.5 46t-14.5 26t-31 11.5t-54 2.5h-316q-71 0 -116 -8t-78 -28q-83 -49 -83 -158q0 -63 28.5 -109.5t82.5 -69.5q29 -12 74.5 -18.5t104.5 -6.5h233q53 0 86 4t52 15t26 31.5t9 52.5h27v-246h-27q-2 31 -9.5 51t-27 31t-52.5 15.5t-84 4.5h-234
q-40 0 -71.5 2t-57.5 7t-47 12.5t-39 18.5q-60 35 -87.5 92t-27.5 143q0 85 24.5 147t72.5 99q18 13 36.5 22.5t41.5 15t52 8t67 2.5h340q34 0 54 2.5t31 11.5t14.5 26t4.5 47h26v-303z" />
    <glyph glyph-name="cid254" 
d="M737 753q37 13 60 24.5t36.5 24t19.5 29t9 40.5h26v-326h-26q-1 5 -1 10t-1 8q-2 25 -6 37.5t-12 20.5q-5 5 -12 8t-15 3q-15 0 -36.5 -5t-53.5 -16l-460 -159l447 -161q58 -21 94 -21t48 38q3 11 4.5 24t3.5 33h26v-259h-26q-2 29 -9.5 46t-24.5 34q-36 34 -124 67
l-568 206v80z" />
    <glyph glyph-name="cid255" 
d="M136 536v82l597 149q44 11 68.5 21.5t38.5 23.5q10 9 15 22t8 37h25v-309h-25q-2 31 -5 44t-11 22q-12 18 -41 18q-14 0 -34.5 -3t-49.5 -11l-432 -104l584 -169v-90l-581 -154l410 -107q25 -7 49 -10.5t41 -3.5q47 0 62 45q5 17 8 53h25v-253h-25q-4 26 -13 45t-28 33.5
t-50 26.5t-79 25l-557 151v79l594 161z" />
    <glyph glyph-name="cid256" 
d="M285 279q-32 -20 -53.5 -36.5t-35 -32.5t-20.5 -34t-10 -40h-26v323h26q2 -40 9.5 -55t24.5 -15h3q11 1 31.5 10t51.5 29l179 113l-163 110q-57 39 -89 39q-23 0 -33 -18t-14 -66h-26v265h26q4 -43 36 -84t95 -85l204 -139l245 156q34 21 55.5 37.5t34 31.5t18.5 31.5
t8 38.5h26v-322h-26q-2 39 -9 55.5t-24 16.5q-23 0 -90 -42l-157 -98l149 -100q26 -17 50.5 -27.5t38.5 -10.5q20 0 29.5 17t12.5 62h26v-264h-26q-2 25 -11 48t-26 45t-43 44.5t-62 47.5l-170 117z" />
    <glyph glyph-name="cid257" 
d="M270 443q-35 0 -55 -3t-30.5 -13.5t-14 -30.5t-4.5 -55h-26v334h26q1 -35 4.5 -55t14 -30.5t30.5 -13.5t55 -3h190l303 184q28 17 46 30t29 26t16.5 26.5t7.5 31.5h26v-315h-26q-2 41 -11.5 58.5t-29.5 17.5q-13 0 -27.5 -6.5t-45.5 -25.5l-225 -135l216 -135
q48 -28 74 -28q14 0 24.5 9t15.5 24q4 13 5.5 24t3.5 34h26v-264h-26q-3 24 -10.5 44t-22.5 39t-39 38t-59 41l-240 152h-221z" />
    <glyph glyph-name="cid258" 
d="M169 517q0 -117 63 -172q27 -23 62.5 -37t95.5 -25l-5 -36l-245 25v580h36l683 -441v142q0 60 -13.5 99.5t-44.5 66.5q-13 12 -27 21t-32 17t-40 14.5t-51 13.5l4 35l233 -25v-533h-36l-683 442v-187z" />
    <glyph glyph-name="cid259" 
d="M863 584v56q0 14 -2.5 23t-9.5 13.5t-21 6t-36 1.5h-737q-23 0 -36.5 -1.5t-20.5 -6t-9.5 -13.5t-2.5 -23v-56h-25v206h925v-206h-25z" />
    <glyph glyph-name="cid260" 
d="M-37 522l925 333v-60l-925 -333v60z" />
    <glyph glyph-name="cid261" 
d="M-12 855v-56q0 -14 2.5 -23t9.5 -13.5t20.5 -6t36.5 -1.5h737q22 0 36 1.5t21 6t9.5 13.5t2.5 23v56h25v-206h-925v206h25z" />
    <glyph glyph-name="cid262" 
d="M516 804v69l382 -229v-26l-382 -230v69l306 174z" />
    <glyph glyph-name="cid263" 
d="M53 380h-51v500h51v-500z" />
    <glyph glyph-name="cid264" 
d="M741 566l-19 32l149 142l19 -3v-122z" />
    <glyph glyph-name="cid265" 
d="M143 333q-5 45 -8.5 81.5t-3.5 56.5q0 24 15 33.5t61 13.5q-42 39 -61.5 80.5t-19.5 90.5q0 72 39.5 113t107.5 41q129 0 160 -160q7 -37 12 -77t7 -87h65q40 0 66 3.5t42 12.5t22.5 24t6.5 38q0 47 -34 67q-13 8 -27.5 11t-43.5 5q-27 2 -38 15.5t-11 45.5q0 70 46 70
q26 0 50.5 -16.5t42.5 -45.5q38 -61 38 -164q0 -104 -41 -148q-20 -20 -48.5 -29.5t-75.5 -9.5l-87 1l-87 1q-21 1 -35 1h-19q-41 0 -64.5 -1.5t-35 -8.5t-14.5 -20.5t-3 -37.5h-24zM429 519q-4 54 -13.5 91.5t-26 61t-41.5 33.5t-60 10q-54 0 -86 -22t-32 -59
q0 -30 17.5 -56.5t48.5 -40.5q20 -10 46.5 -14t69.5 -4h77z" />
    <glyph glyph-name="cid266" 
d="M138 759v36q17 -2 30.5 -2.5t30 -1t38.5 -0.5h57h474q33 0 52.5 2t29 10t12.5 23.5t3 41.5h23l11 -205q-60 3 -108.5 4.5t-96.5 1.5h-106q47 -30 68 -66.5t21 -88.5q0 -103 -69 -160t-194 -57q-136 0 -212.5 63t-76.5 175q0 51 16.5 93t54.5 84zM387 672
q-57 0 -98.5 -6.5t-71.5 -20.5t-49 -42t-19 -60q0 -56 62.5 -84.5t185.5 -28.5t186 27t63 81q0 32 -21 59t-57 44q-36 16 -80 23.5t-101 7.5z" />
    <glyph glyph-name="cid267" 
d="M264 360q-140 68 -140 219q0 58 19.5 105t55 81t85.5 52.5t110 18.5q65 0 121 -20.5t95 -58.5q32 -33 49.5 -78.5t17.5 -99.5q0 -42 -10.5 -79t-28.5 -65.5t-41.5 -45t-50.5 -16.5q-23 0 -36 18.5t-13 49.5q0 36 18 51q3 2 5 3.5t6.5 2t11.5 1l21 1.5q45 3 69.5 24
t24.5 58q0 31 -17.5 55.5t-46.5 36.5q-33 13 -81.5 20.5t-95.5 7.5q-100 0 -170 -35q-79 -40 -79 -119q0 -52 31 -94t87 -68z" />
    <glyph glyph-name="cid268" 
d="M899 335q-28 1 -52.5 2.5t-48.5 2l-49 1t-54 0.5h-404q-30 0 -51 -1t-35 -3t-22 -5.5t-12 -9.5q-5 -7 -6 -14.5t-2 -32.5h-23l-9 176l73 4q-42 37 -60.5 75.5t-18.5 88.5q0 43 15.5 80.5t44.5 65.5q71 66 202 66q66 0 120 -16.5t91.5 -46.5t58 -72.5t20.5 -94.5
q0 -81 -57 -138h144q35 0 55 2t30 9.5t13 23t3 41.5h23zM409 460q117 0 179 30.5t62 88.5q0 57 -64 88t-182 31q-71 0 -125.5 -11.5t-86.5 -34.5q-36 -25 -36 -69q0 -58 66.5 -90.5t186.5 -32.5z" />
    <glyph glyph-name="cid269" 
d="M422 707q-56 -1 -91.5 -6.5t-67.5 -19.5q-99 -44 -99 -136q0 -52 29.5 -94.5t84.5 -70.5l-16 -25q-72 38 -104.5 90t-32.5 130q0 60 19.5 108t55 82t86 52.5t113.5 18.5t114.5 -18t87.5 -50.5t56 -79t20 -103.5q0 -77 -33.5 -129.5t-98.5 -77.5q-11 -4 -23 -7t-26 -5.5
t-32 -3.5t-42 -2v347zM451 485q47 1 74.5 5t50.5 12q78 28 78 86q0 65 -88 97q-23 8 -49.5 13t-65.5 8v-221z" />
    <glyph glyph-name="cid270" 
d="M264 657q-34 0 -53.5 -2t-29.5 -10.5t-13 -25t-4 -44.5h-24v280h24q0 -26 3.5 -41t13.5 -23t30 -10t53 -2h366v78h32v-78q26 1 50.5 1.5t36.5 0.5q64 0 102 -39q24 -25 37 -62t13 -81q0 -32 -7 -59t-19 -47.5t-28.5 -32t-35.5 -11.5q-23 0 -35 18t-12 50q0 33 17 47
q6 5 13.5 6.5t26.5 3.5q33 2 45.5 10t12.5 25q0 28 -24.5 39t-84.5 11q-15 0 -39 -0.5l-69 -1.5v-132h-32v132h-366z" />
    <glyph glyph-name="cid271" 
d="M221 561q0 -33 -1 -56t-3.5 -41t-6.5 -32.5t-10 -28.5q-14 -29 -40.5 -44.5t-64.5 -15.5q-42 0 -77.5 19t-55.5 52q-44 73 -44 196q0 110 31 169t90 59q16 0 27 -2.5t21 -11t20.5 -24.5t25.5 -43q8 18 14 27.5t15 17.5q29 27 66 27q23 0 37 -10t34 -41l32 -51
q14 25 22 36.5t17 20.5q19 20 49 30.5t65 10.5q44 0 79.5 -15.5t61 -43.5t39 -68t13.5 -89q0 -17 -1.5 -34.5t-6.5 -44.5q-4 -24 -5 -37t-1 -32q0 -2 1 -28l3 -79h-44v98q-31 -32 -61.5 -45.5t-72.5 -13.5t-77.5 15.5t-58.5 44.5t-34.5 67.5t-11.5 83.5q0 22 2.5 43.5
t8.5 45.5q-14 26 -25.5 36t-28.5 10q-13 0 -21.5 -5.5t-13 -20t-6.5 -40.5t-2 -67v-45zM497 701q-81 0 -124 -23.5t-43 -68.5q0 -90 161 -90q163 0 163 90q0 92 -157 92zM123 713q-7 32 -61 32q-119 0 -119 -154q0 -74 27.5 -116t77.5 -42q42 0 59 36t17 121z" />
    <glyph glyph-name="cid272" 
d="M576 659q28 -19 47 -38t31 -40.5t17.5 -47t5.5 -56.5q0 -107 -70 -144q-22 -11 -51 -16.5t-72 -5.5h-220q-34 0 -53.5 -2t-30 -10t-13.5 -23t-3 -41h-24v273h24q0 -26 3 -40.5t13.5 -22.5t30 -10t53.5 -2h213q79 0 108 14q46 21 46 77q0 69 -69 108q-25 14 -50 20.5
t-56 6.5h-192q-33 0 -53 -2t-30 -10t-13.5 -23t-3.5 -40h-24v273h24q0 -26 3 -41t13.5 -23t30 -10t53.5 -2h504q33 0 52.5 2t29 10t12.5 23.5t3 41.5h23l11 -205q-29 2 -53.5 3l-48 2t-48.5 1h-55h-118z" />
    <glyph glyph-name="cid273" 
d="M675 646q-45 3 -95.5 4.5t-98.5 1.5h-217q-33 0 -53 -2t-30 -10t-13.5 -23.5t-3.5 -42.5h-24v278h24q0 -27 3.5 -42.5t13.5 -23.5t30 -10t53 -2h277q33 0 52.5 2t29 9.5t12.5 22.5t3 41h24zM833 784q30 0 51 -21t21 -51t-21 -51t-51 -21t-51 21t-21 51t21 51t51 21z" />
    <glyph glyph-name="cid274" 
d="M675 646q-55 3 -103.5 4.5t-96.5 1.5h-272q-41 0 -68.5 0.5t-47 1.5t-32.5 3.5t-25 5.5q-24 7 -44.5 23.5t-34.5 39.5t-22 51.5t-8 60.5q0 30 6 55.5t16.5 44t25 29t31.5 10.5q24 0 40 -22.5t16 -55.5q0 -31 -17 -40q-3 -2 -5.5 -2.5t-7 -1.5t-12.5 -2l-23 -3
q-44 -6 -44 -35q0 -43 75 -43h15t24 1h24.5t32.5 0.5t33 0.5h26h364q34 0 53 2t29 9.5t12.5 23.5t2.5 43h24zM833 784q30 0 51 -21t21 -51q0 -31 -20.5 -51.5t-51.5 -20.5q-30 0 -51 21t-21 51t21 51t51 21z" />
    <glyph glyph-name="cid275" 
d="M264 660q-34 0 -53.5 -2t-30 -10t-13.5 -23t-3 -40h-24v271h24q0 -26 3.5 -40.5t13.5 -22.5t30 -10t53 -2h504q33 0 52.5 2t29 10t12.5 23t3 41h23l11 -203q-56 3 -105 4.5t-100 1.5h-315l154 -134q37 -31 63 -31q20 0 30.5 16.5t12.5 52.5h23v-258h-23q-3 24 -9 43.5
t-17 40.5q-7 13 -14 23.5t-16 21.5t-21.5 23l-29.5 28l-41 37l-239 -139q-23 -14 -38.5 -25.5t-26 -23t-16 -25t-9.5 -30.5h-22v184l21 10t26.5 13l25 12.5t16.5 8.5l172 96l-63 56h-74z" />
    <glyph glyph-name="cid276" 
d="M164 851q1 -27 4 -43t13 -24t29.5 -10t53.5 -2h504q33 0 52.5 2t29 10t12.5 23.5t3 42.5h23l11 -206q-56 3 -105 4.5t-100 1.5h-430q-34 0 -53.5 -2t-29.5 -10t-13 -24t-4 -43h-24v280h24z" />
    <glyph glyph-name="cid277" 
d="M576 654q101 -61 101 -174q0 -115 -105 -142q55 -33 80 -74t25 -98q0 -89 -58 -130q-23 -17 -53.5 -23.5t-81.5 -6.5h-220q-33 0 -53 -2t-30 -10t-13.5 -23t-3.5 -41h-24v271h24q0 -25 3.5 -39.5t13.5 -22t30 -9.5t53 -2h219q80 0 114 19t34 64q0 53 -55 89
q-47 31 -101 31h-211q-33 0 -53 -2t-30 -9.5t-13.5 -22.5t-3.5 -40h-24v268h24q0 -25 3.5 -39.5t13.5 -22t30 -9.5t53 -2h220q75 0 111 19.5t36 61.5q0 25 -13 47t-35.5 38.5t-52 26t-63.5 9.5h-203q-34 0 -53.5 -2t-30 -9.5t-13.5 -22t-3 -39.5h-24v271h24q0 -26 3 -41
t13.5 -23t30 -10t53.5 -2h278q31 0 50 2.5t29 10t13.5 22t3.5 39.5h24l13 -195z" />
    <glyph glyph-name="cid278" 
d="M576 654q53 -32 77 -75t24 -103q0 -98 -68 -136q-23 -14 -50.5 -19.5t-72.5 -5.5h-222q-33 0 -53 -2t-30 -10t-13.5 -23t-3.5 -41h-24v272h24q0 -25 3.5 -40t14 -22.5t30 -10t52.5 -2.5h216q81 0 117 20.5t36 67.5q0 65 -66 103q-22 12 -50 19.5t-53 7.5h-200
q-34 0 -53.5 -2t-30 -10t-13.5 -23t-3 -40h-24v273h24q0 -26 3.5 -41t13.5 -23t30 -10t53 -2h277q32 0 51 2.5t29 10t13.5 22t3.5 39.5h24l13 -195z" />
    <glyph glyph-name="cid279" 
d="M397 837q62 0 116.5 -20t92.5 -55q34 -32 52.5 -81t18.5 -106q0 -59 -19.5 -107t-55.5 -81.5t-86.5 -52t-112.5 -18.5q-59 0 -111 17.5t-87 48.5q-38 35 -59.5 86.5t-21.5 111.5q0 57 20.5 106.5t55.5 81.5q37 33 88 51t109 18zM402 702q-131 0 -193 -30.5t-62 -95.5
q0 -66 60.5 -96t191.5 -30q132 0 193.5 30.5t61.5 96.5q0 31 -15 55.5t-43 37.5q-63 32 -194 32z" />
    <glyph glyph-name="cid280" 
d="M598 670q42 -35 60.5 -73t18.5 -89q0 -101 -68 -155.5t-194 -54.5q-67 0 -123 16.5t-92 45.5q-35 29 -54.5 73.5t-19.5 95.5q0 43 12 73.5t42 65.5h-139q-33 0 -52.5 -2t-29.5 -10.5t-13.5 -25t-4.5 -44.5h-24v279h24q1 -26 4 -41.5t13.5 -23t30 -9.5t52.5 -2h500
q32 0 51 2.5t29 10.5t13.5 23t3.5 40h24l13 -195h-77zM388 672q-56 0 -97 -7t-73 -21q-29 -14 -46.5 -38.5t-17.5 -53.5q0 -121 247 -121q121 0 182.5 27.5t61.5 81.5q0 62 -68 97t-189 35z" />
    <glyph glyph-name="cid281" 
d="M202 464q-38 26 -57 65t-19 89q0 49 19 89t53.5 68t83.5 43t110 15q134 0 210 -64t76 -178q0 -53 -16 -92.5t-53 -79.5l60 -44v-36q-38 2 -76.5 2.5t-85.5 0.5h-466q-33 0 -52.5 -2t-30 -9.5t-13.5 -23t-4 -41.5h-24v279h24q1 -28 4.5 -44t13.5 -24.5t29.5 -10.5t52.5 -2
h161zM419 460q58 0 99.5 6.5t71.5 20.5q28 13 44.5 37t16.5 52q0 51 -41 80q-29 21 -83 32.5t-125 11.5q-54 0 -96 -6.5t-77 -20.5q-68 -29 -68 -86q0 -32 22.5 -59.5t62.5 -42.5q66 -25 173 -25z" />
    <glyph glyph-name="cid282" 
d="M675 661q-29 -2 -47.5 -2.5t-33.5 -0.5h-30q113 -61 113 -148q0 -37 -22 -61t-54 -24q-27 0 -44 20t-17 52q0 20 7.5 31t24.5 16q21 6 28 11.5t7 17.5v2q-2 29 -47 56q-23 12 -49.5 18t-61.5 6h-185q-34 0 -53.5 -2t-29.5 -10t-13 -24t-4 -44h-24v278h24q0 -26 3.5 -41
t13.5 -23t30 -10t53 -2h277q32 0 51 2.5t29.5 10t13.5 21.5t3 38h24z" />
    <glyph glyph-name="cid283" 
d="M316 821v-36q-39 -5 -62 -11.5t-43 -18.5q-63 -41 -63 -112q0 -46 22.5 -72t64.5 -26q18 0 32.5 6t28 21.5t29 43t35.5 71.5l18 38.5t16 29t16 22t18 18.5q36 35 90 35q73 0 116 -50t43 -135q0 -25 -8 -71q-4 -21 -5 -28.5t-1 -15.5q0 -11 2 -21t8 -27l-175 9v37
q77 5 116.5 36t39.5 85q0 41 -22.5 65t-60.5 24q-37 0 -61 -31l-10.5 -14t-9.5 -16.5l-14 -29t-24 -52.5q-18 -38 -34.5 -64t-35.5 -42t-41 -22.5t-50 -6.5q-78 0 -122.5 47.5t-44.5 132.5q0 11 0.5 20t2 20l3.5 25.5t6 36.5q3 18 3 36v10t-0.5 9t-2 12.5t-3.5 19.5z" />
    <glyph glyph-name="cid284" 
d="M296 661q-33 0 -54 -2.5t-36 -7.5q-17 -6 -27 -19.5t-10 -29.5q0 -31 31 -70l-25 -14q-50 60 -50 137q0 41 14.5 70t40.5 43q9 4 19.5 7t25.5 5t37.5 2.5t55.5 0.5h312v57h30q2 -33 14 -55.5t39 -39.5q21 -14 45 -22t62 -15l5 -50q-15 1 -30 1.5t-33 1t-42 0.5h-58v-121
h-32v121h-334z" />
    <glyph glyph-name="cid285" 
d="M131 459q20 2 47 3.5t58 1.5q-52 32 -81 80t-29 104q0 45 19.5 78.5t55.5 50.5q21 10 49.5 14.5t74.5 4.5h14l202 -2q2 0 4 -0.5t4 -0.5q58 0 73 11q9 7 12 17.5t4 44.5h24l13 -201l-49 3.5t-44 2t-47.5 1.5t-58.5 1l-106 1h-19q-26 0 -44 -0.5t-31.5 -2t-24.5 -4
t-22 -6.5q-49 -16 -49 -70q0 -35 21.5 -62.5t62.5 -45.5q25 -11 51.5 -15t67.5 -4h158q41 0 59.5 3.5t26.5 11.5q3 4 5 7.5t3 9.5t2 15.5t1 25.5h24l13 -201q-51 2 -80 3.5t-48 2t-33.5 0.5h-38.5h-208q-33 0 -53 -2.5t-31.5 -9.5t-15.5 -19.5t-4 -33.5h-23z" />
    <glyph glyph-name="cid286" 
d="M516 449q36 -13 68 -13q16 0 28.5 9t18.5 24q4 11 5.5 20.5t2.5 27.5h23v-222h-24q-2 21 -8.5 36.5t-20.5 29t-36 25t-54 23.5l-386 141v78l422 160q24 9 39.5 17.5t25 17.5t13.5 20.5t6 27.5h23v-269h-24q-2 66 -42 66q-9 0 -23 -3t-28 -8l-303 -110z" />
    <glyph glyph-name="cid287" 
d="M133 593v74l419 125q49 14 67 30.5t20 48.5h23v-265h-24q-2 38 -13 54t-35 16q-9 0 -20 -2t-28 -7l-283 -82l390 -128v-58l-390 -122l251 -74q21 -6 37.5 -8.5t33.5 -2.5t31 9.5t19 26.5q4 10 5 19t3 29h23v-222h-23q-2 21 -8.5 37t-20.5 28.5t-36.5 23t-55.5 20.5
l-385 117v72l366 121z" />
    <glyph glyph-name="cid288" 
d="M262 695q-33 24 -57 24q-36 0 -42 -70h-23v222h22q6 -39 29.5 -70t76.5 -70l118 -86l180 120q19 13 32 23.5t21 21t12.5 22.5t7.5 28h23v-259h-23q-1 27 -7.5 38t-21.5 11q-10 0 -19 -3.5t-25 -14.5l-106 -69l80 -55q36 -26 63 -26q33 0 36 62h23v-217h-23q-4 39 -29 73
t-80 75l-96 70l-200 -133q-18 -12 -31 -23t-21 -21.5t-12.5 -23t-7.5 -27.5h-22v268h23q1 -30 8.5 -43.5t22.5 -13.5q17 0 38 15l126 83z" />
    <glyph glyph-name="cid289" 
d="M507 455q25 -10 40.5 -13.5t29.5 -3.5q31 0 45.5 18.5t16.5 60.5h23v-218h-23q-3 21 -11 37t-24.5 30t-44.5 28t-70 31l-432 170q-39 15 -65.5 30t-43 31.5t-24 35.5t-7.5 42q0 73 69 73q52 0 52 -40q0 -7 -1 -16t-4 -24q-4 -18 -5 -26t-1 -16q0 -23 12 -36.5t47 -27.5
l40 -15l418 175q30 13 48 22t28 18t13.5 20.5t5.5 29.5h23v-267h-24q-1 32 -10 46t-29 14q-11 0 -22.5 -3t-35.5 -12l-270 -103z" />
    <glyph glyph-name="cid290" 
d="M637 630q0 72 -37 112t-122 57l4 32l180 -20v-389h-30l-467 292v-74q0 -102 56 -148q22 -17 49 -29t73 -23l-4 -31l-199 23v418h27l470 -295v75z" />
    <glyph glyph-name="cid291" 
d="M-37 590v36q0 41 11 72.5t31 50.5q18 17 44 24t73 7h167q86 0 111 19q9 7 13 15t6 25h15q2 -33 29.5 -46t96.5 -13h180q42 0 66.5 -7.5t42.5 -25.5q19 -18 29 -49.5t10 -71.5v-36h-23v20q0 36 -24 50.5t-84 14.5h-156q-55 0 -86 8.5t-54 30.5q-14 12 -21 26t-14 40
q-8 -30 -17.5 -46.5t-27.5 -29.5q-21 -16 -50.5 -22.5t-76.5 -6.5h-151q-38 0 -58 -2.5t-33 -10.5q-26 -14 -26 -52v-20h-23z" />
    <glyph glyph-name="cid292" 
d="M888 593h-971v73h971v-73z" />
    <glyph glyph-name="cid293" 
d="M-14 849v-20q0 -38 26 -52q14 -8 33.5 -10.5t57.5 -2.5h151q51 0 82.5 -8t52.5 -27q14 -13 22 -28t15 -42q8 29 16.5 44t25.5 28q23 18 52.5 25.5t80.5 7.5h156q60 0 84 14.5t24 50.5v20h23v-36q0 -40 -10 -71.5t-29 -49.5t-43 -25.5t-66 -7.5h-180q-69 0 -96.5 -13
t-29.5 -46h-15q-2 18 -7.5 27t-16.5 16q-26 16 -106 16h-167q-47 0 -73 7t-44 24q-20 19 -31 50.5t-11 72.5v36h23z" />
    <glyph glyph-name="cid294" 
d="M388 835q98 -28 98 -110q0 -17 -5 -45.5t-14 -60.5q-19 -70 -19 -98q0 -54 40 -77l-11 -18q-99 30 -99 110q0 16 4.5 39t15.5 64q6 23 9.5 38.5l6 27t3 20.5t0.5 18q0 50 -40 74z" />
    <glyph glyph-name="cid300" 
d="M439 658q-139 -7 -210.5 -56t-71.5 -137q0 -48 21 -79.5t67 -53.5q21 -10 46 -18t65 -18v-36l-172 8q-29 43 -44.5 100t-15.5 117q0 139 79.5 216t235.5 91v81l39 -16v-63h12q15 0 33 -1t35 -3v83l39 -16v-73q68 -14 113 -34t80 -49q98 -86 98 -236q0 -25 -2.5 -45
t-8.5 -43q-4 -14 -6 -22t-3 -13.5t-1 -9v-9.5t0.5 -10.5t2 -10t4 -13.5t7.5 -20h-245v36q56 7 93 18t69 33q62 40 62 107q0 54 -35 97t-100 68q-27 11 -56.5 17t-71.5 11v-317l-39 17v303q-16 2 -26.5 2h-24.5h-29v-272l-39 17v252z" />
    <glyph glyph-name="cid301" 
d="M271 459q-34 0 -54 -3t-30.5 -13.5t-14 -31t-3.5 -54.5h-29v334h29q1 -35 4.5 -55t14 -30.5t30 -13.5t53.5 -3h120v167h34v-167h37l61 35v132h34v-113l193 110l36.5 21.5t24.5 15.5t16.5 13t12.5 13q11 12 16 23.5t7 31.5h26v-310h-26q-3 43 -11.5 60t-28.5 17
q-11 0 -23.5 -5t-40.5 -21l-236 -131l217 -126q27 -15 44 -21.5t31 -6.5q26 0 37 27q8 19 11 61h26v-255h-26q-3 25 -10.5 44.5t-23 38t-41 37t-62.5 40.5l-169 100v-125h-34v146l-31 18h-67v-164h-34v164h-120z" />
    <glyph glyph-name="cid302" 
d="M568 400q45 8 69.5 34t24.5 66q0 46 -37 71.5t-105 25.5q-67 0 -105.5 -28.5t-38.5 -79.5q0 -72 74 -108l-12 -23q-49 23 -71.5 57.5t-22.5 88.5q0 79 45.5 125t123.5 46q39 0 70.5 -12t54 -34.5t35 -54t12.5 -69.5q0 -10 -0.5 -17.5t-2 -16.5t-4.5 -20l-8 -28
q-1 -5 -1.5 -8.5t-0.5 -8.5q0 -12 7 -29h-106zM515 193q-66 0 -124 25t-101 68t-68 100.5t-25 123.5t25 124t68 101t101 68t124 25t123.5 -25t100.5 -68t68 -101t25 -124t-25 -123.5t-68 -100.5t-100.5 -68t-123.5 -25zM515 224q59 0 111 22.5t91 61.5t61.5 91t22.5 111
q0 60 -22.5 112t-61.5 91t-91 61.5t-111 22.5t-111.5 -22.5t-91.5 -61.5t-61.5 -91.5t-22.5 -111.5t22.5 -111t61.5 -91t91 -61.5t112 -22.5z" />
    <glyph glyph-name="cid303" 
d="M524 614q-28 0 -38.5 -4t-15.5 -17q-2 -6 -2.5 -13t-1.5 -30h-22v226h22q1 -26 1.5 -33.5t4.5 -14.5q4 -10 15 -13.5t37 -3.5h342v15q0 30 -12.5 54.5t-33.5 36.5q-17 9 -37 15.5t-52 11.5l2 36l156 -13v-408l-156 -13l-2 36q32 5 52 11t37 16q21 12 33.5 36t12.5 54v15
h-342zM565 341q-31 0 -50 -2.5t-29.5 -9t-14.5 -19.5t-5 -34h-22v170h22q2 -27 6 -37.5t17 -17.5q19 -11 76 -11h240q26 0 38 3t18 12q4 6 4.5 11.5t1.5 28.5h22v-162l-320 -133l320 -133v-157h-22q0 19 -2 30t-8 16.5t-17.5 7t-31.5 1.5h-284q-20 0 -31 -1.5t-17 -7.5
t-8 -17.5t-2 -31.5h-22v209h22q0 -11 0.5 -18t1 -11t1 -6.5t2.5 -5.5q5 -8 16 -11.5t37 -3.5h291l-363 150v43l358 148h-245z" />
    <glyph glyph-name="cid304" 
d="M918 702q0 -26 -10 -49t-27 -40t-39.5 -27t-48.5 -10t-49 10t-40 27t-27 40t-10 49t10 48.5t27 39.5t40 27t49 10t48.5 -10t39.5 -27t27 -39.5t10 -48.5zM888 701q0 20 -7.5 37.5t-20.5 30.5t-30.5 20.5t-36.5 7.5q-40 0 -68 -28t-28 -68q0 -20 7.5 -37t20.5 -30
t30.5 -20.5t37.5 -7.5q40 0 67.5 27.5t27.5 67.5z" />
    <glyph glyph-name="cid305" 
d="M585 720q0 -36 -24.5 -60.5t-60.5 -24.5q-35 0 -60 25t-25 60t25 60t60 25q36 0 60.5 -24.5t24.5 -60.5z" />
    <glyph glyph-name="cid306" 
d="M894 640q-41 86 -93 86q-12 0 -19 -7q-3 -3 -4.5 -6.5t-6.5 -22.5q-7 -26 -26 -40t-45 -14q-34 0 -56.5 24t-22.5 60q0 41 28.5 65.5t74.5 24.5q64 0 116.5 -39.5t79.5 -108.5z" />
    <glyph glyph-name="cid307" 
d="M631 809q19 -42 43 -64t50 -22q12 0 19 7q3 3 4.5 6.5t6.5 22.5q7 25 26 39.5t45 14.5q34 0 56.5 -24t22.5 -60q0 -41 -28.5 -65.5t-74.5 -24.5q-65 0 -117.5 40.5t-79.5 110.5z" />
    <glyph glyph-name="cid308" 
d="M894 640q-41 86 -93 86q-12 0 -19 -7q-3 -3 -4.5 -6.5t-6.5 -22.5q-7 -26 -26 -40t-45 -14q-34 0 -56.5 24t-22.5 60q0 41 28.5 65.5t74.5 24.5q64 0 116.5 -39.5t79.5 -108.5zM894 416q-20 42 -43.5 64t-49.5 22q-12 0 -19 -7q-3 -3 -4.5 -6.5t-6.5 -22.5
q-7 -26 -26 -40t-45 -14q-34 0 -56.5 24t-22.5 60q0 40 28.5 65t74.5 25q64 0 116.5 -39.5t79.5 -108.5z" />
    <glyph glyph-name="cid309" 
d="M631 809q19 -42 43 -64t50 -22q12 0 19 7q3 3 4.5 6.5t6.5 22.5q7 25 26 39.5t45 14.5q34 0 56.5 -24t22.5 -60q0 -41 -28.5 -65.5t-74.5 -24.5q-65 0 -117.5 40.5t-79.5 110.5zM631 585q19 -41 43 -63.5t50 -22.5q12 0 19 7q3 3 4.5 6.5t6.5 22.5q7 25 26 39.5t45 14.5
q34 0 56.5 -24t22.5 -60q0 -41 -28 -65.5t-75 -24.5q-65 0 -117.5 40.5t-79.5 110.5z" />
    <glyph glyph-name="cid340" 
d="M1055 986q22 0 41 -8.5t33.5 -23t23 -33.5t8.5 -41t-8.5 -41.5t-23 -33.5t-33.5 -22.5t-41 -8.5q-45 0 -75.5 30.5t-30.5 75.5q0 22 8.5 41t22.5 33.5t33.5 23t41.5 8.5z" />
    <glyph glyph-name="cid349" 
 />
    <glyph glyph-name="cid364" 
d="M970 -53h-146l-86 190h-476l-86 -190h-146l149 326h642zM201 235l-115 -252h67l87 192h519l88 -192h67l-115 252h-598z" />
    <glyph glyph-name="cid365" 
d="M30 813h146l86 -190h476l86 190h146l-149 -326h-642zM799 525l115 252h-67l-88 -192h-519l-87 192h-67l115 -252h598z" />
    <glyph glyph-name="cid380" 
d="M1004 1201q56 -13 102.5 -28.5t93.5 -38.5q45 -22 65.5 -50t20.5 -68q0 -18 -5 -35t-13 -29.5t-18 -20.5t-21 -8q-10 0 -23 16q-1 1 -2.5 3.5l-6 10l-14.5 23.5l-28 46q-60 99 -155 169z" />
    <glyph glyph-name="cid381" 
d="M1135 1194q28 0 52.5 -10.5t43 -29t29 -43t10.5 -52.5t-10.5 -52.5t-29 -43t-43 -29t-52.5 -10.5t-52.5 10.5t-43 29t-29 43t-10.5 52.5t10.5 52.5t29 43t43 29t52.5 10.5zM1135 1158q-41 0 -69.5 -28.5t-28.5 -69.5q0 -42 28.5 -70.5t69.5 -28.5t69.5 28.5t28.5 70.5
q0 41 -28.5 69.5t-69.5 28.5z" />
    <glyph glyph-name="cid382" 
d="M1005 926q85 44 85 94q0 11 -5.5 16.5t-22.5 10.5q-62 17 -62 72q0 35 23.5 57.5t59.5 22.5q42 0 66.5 -28t24.5 -75q0 -64 -39.5 -116t-108.5 -80z" />
    <glyph glyph-name="cid383" 
d="M1088 1108q35 0 59.5 -24.5t24.5 -59.5q0 -18 -6.5 -33.5t-18 -27t-27 -18t-32.5 -6.5q-35 0 -60 25t-25 60t24.5 59.5t60.5 24.5zM1088 1441q35 0 59.5 -24.5t24.5 -59.5t-24.5 -60t-60.5 -25q-35 0 -59.5 25t-24.5 60t24.5 59.5t60.5 24.5z" />
    <glyph glyph-name="cid384" 
d="M1088 1531q35 0 59.5 -24.5t24.5 -59.5q0 -36 -24.5 -60.5t-59.5 -24.5q-36 0 -60.5 25t-24.5 60t24.5 59.5t60.5 24.5zM1005 926q85 44 85 94q0 11 -5.5 16.5t-22.5 9.5q-62 17 -62 73q0 35 23.5 57.5t59.5 22.5q42 0 66.5 -28t24.5 -75q0 -64 -39.5 -116t-108.5 -80z
" />
    <glyph glyph-name="cid385" 
d="M1063 1176q-2 60 -5 108t-9.5 97t-16.5 104t-26 129q-2 12 -4 25.5t-2 21.5q0 58 84 58q83 0 83 -58q0 -8 -0.5 -14t-2.5 -17l-6 -32t-12 -58q-18 -86 -28.5 -175t-13.5 -189h-41zM1083 1105q35 0 59 -24t24 -59t-24 -59t-59 -24t-59 24t-24 59t24 59t59 24z" />
    <glyph glyph-name="cid386" 
d="M1169 1167v27q0 51 13 89.5t44 79.5q14 18 22.5 30.5l14.5 22t10 17.5t8 18q9 23 12.5 44t3.5 47q0 73 -23 111.5t-67 38.5q-67 0 -85 -78q-4 -16 -5.5 -35.5t-2.5 -54.5q0 -26 -11.5 -37t-40.5 -11q-62 0 -62 54q0 45 21 85t58 66q55 37 133 37q97 0 152 -48.5
t55 -133.5q0 -73 -41 -122q-11 -13 -26 -26.5t-38 -29.5l-33 -25.5t-22 -19.5t-15 -18t-12 -21t-10.5 -23.5t-7.5 -23.5t-5 -26.5t-3 -33.5h-37zM1188 939q-35 0 -59 24t-24 58q0 35 24 59t59 24q34 0 58 -24t24 -59q0 -34 -24 -58t-58 -24z" />
    <glyph glyph-name="cid387" 
d="M1135 1148q37 0 62.5 -25.5t25.5 -62.5q0 -38 -25.5 -63.5t-62.5 -25.5t-62.5 25.5t-25.5 63.5q0 37 25.5 62.5t62.5 25.5z" />
    <glyph glyph-name="cid388" 
d="M904 1043q64 -14 118 -32.5t108 -44.5q51 -25 75 -57.5t24 -77.5q0 -21 -5.5 -40.5t-15 -34t-21.5 -23.5t-24 -9t-26 18q-2 2 -3.5 4.5l-7 11.5l-16.5 27l-32 52q-34 57 -79 106t-99 89z" />
    <glyph glyph-name="cid389" 
d="M1055 1035q32 0 60.5 -12t49.5 -33t33 -49.5t12 -60.5t-12 -60t-33 -49t-49.5 -33.5t-60.5 -12.5t-60 12.5t-49 33.5t-33.5 49t-12.5 60t12.5 60t33.5 49t49 33.5t60 12.5zM1055 998q-24 0 -45.5 -9.5t-37.5 -25.5t-25.5 -37.5t-9.5 -45.5t9.5 -45.5t25.5 -37.5
t37.5 -25.5t45.5 -9.5t45.5 9.5t37.5 25.5t25.5 37.5t9.5 45.5t-9.5 45.5t-25.5 37.5t-37.5 25.5t-45.5 9.5z" />
    <glyph glyph-name="cid397" 
d="M500 273q35 0 59.5 -24.5t24.5 -59.5q0 -18 -6.5 -33.5t-18 -27t-27 -18t-32.5 -6.5q-35 0 -60 25t-25 60t24.5 59.5t60.5 24.5zM500 656q35 0 59.5 -24.5t24.5 -59.5t-24.5 -60t-60.5 -25q-35 0 -59.5 25t-24.5 60t24.5 59.5t60.5 24.5z" />
    <glyph glyph-name="cid398" 
d="M500 656q35 0 59.5 -24.5t24.5 -59.5q0 -36 -24.5 -60.5t-59.5 -24.5q-36 0 -60.5 25t-24.5 60t24.5 59.5t60.5 24.5zM417 1q85 44 85 94q0 11 -5.5 16.5t-22.5 9.5q-62 17 -62 73q0 35 23.5 57.5t59.5 22.5q42 0 66.5 -28t24.5 -75q0 -64 -39.5 -116t-108.5 -80z" />
    <glyph glyph-name="cid399" 
d="M480 229q-2 60 -5 108t-9.5 97t-16.5 104t-26 129q-2 12 -4 25.5t-2 21.5q0 58 84 58q83 0 83 -58q0 -8 -0.5 -14t-2.5 -17l-6 -32t-12 -58q-18 -86 -28.5 -175t-13.5 -189h-41zM500 158q35 0 59 -24t24 -59t-24 -59t-59 -24t-59 24t-24 59t24 59t59 24z" />
    <glyph glyph-name="cid400" 
d="M456 222q-1 8 -1 14v11q0 27 4 49.5t13 44t24 42.5t38 45l24 27.5t17 21t11.5 17.5l9.5 17q19 42 19 91q0 65 -32 104t-86 39q-29 0 -53 -12t-36 -32q-10 -16 -16.5 -41t-6.5 -44l1 -39q0 -47 -64 -47q-74 0 -74 53q0 54 34.5 98t95.5 68q57 22 132 22q112 0 176.5 -48
t64.5 -133q0 -67 -43 -113q-8 -9 -16 -16t-18.5 -14.5t-25 -17t-35.5 -21.5q-35 -21 -57 -38.5t-35 -38t-18.5 -46.5t-7.5 -63h-39zM477 157q35 0 59 -24t24 -59t-24 -59t-59 -24q-17 0 -32.5 6.5t-26.5 18t-17.5 26.5t-6.5 33q0 34 24 58t59 24z" />
    <glyph glyph-name="cid401" 
d="M585 630q0 -36 -24.5 -60.5t-60.5 -24.5q-35 0 -60 25t-25 60t25 60t60 25q36 0 60.5 -24.5t24.5 -60.5z" />
    <glyph glyph-name="cid402" 
d="M529 380h-59v500h59v-500z" />
    <glyph glyph-name="cid403" 
d="M500 511q28 0 52 -10t42 -27.5t28 -41.5t10 -52q0 -27 -10.5 -51.5t-28.5 -42.5t-42 -28.5t-51 -10.5t-51 10.5t-42 28.5t-28.5 42.5t-10.5 51.5t10.5 51t28.5 41.5t42 28t51 10.5zM500 478q-42 0 -70.5 -28.5t-28.5 -69.5q0 -21 8 -39t21.5 -31.5t31.5 -21.5t38 -8
q42 0 70.5 29t28.5 71t-28.5 70t-70.5 28z" />
    <glyph glyph-name="cid606" 
d="M960 835q-86 -40 -86 -92q0 -12 7 -19q3 -3 6.5 -4.5t22.5 -6.5q26 -7 40 -26t14 -45q0 -34 -24 -56.5t-60 -22.5q-41 0 -65.5 28.5t-24.5 74.5q0 64 39.5 116.5t108.5 79.5z" />
    <glyph glyph-name="cid607" 
d="M41 581q41 20 63 44t22 49q0 12 -7 19q-3 3 -6.5 4.5t-22.5 6.5q-25 7 -39.5 26t-14.5 45q0 34 24 56.5t60 22.5q41 0 65.5 -28t24.5 -75q0 -65 -40.5 -117.5t-110.5 -79.5z" />
    <glyph glyph-name="cid608" 
d="M736 835q-86 -40 -86 -92q0 -12 7 -19q3 -3 6.5 -4.5t22.5 -6.5q26 -7 40 -26t14 -45q0 -34 -24 -56.5t-60 -22.5q-41 0 -65.5 28.5t-24.5 74.5q0 64 39.5 116.5t108.5 79.5zM960 835q-42 -19 -64 -42.5t-22 -49.5q0 -12 7 -19q3 -3 6.5 -4.5t22.5 -6.5q26 -7 40 -26
t14 -45q0 -34 -24 -56.5t-60 -22.5q-40 0 -65 28.5t-25 74.5q0 64 39.5 116.5t108.5 79.5z" />
    <glyph glyph-name="cid609" 
d="M41 581q41 20 63 44t22 49q0 12 -7 19q-3 3 -6.5 4.5t-22.5 6.5q-25 7 -39.5 26t-14.5 45q0 34 24 56.5t60 22.5q41 0 65.5 -28t24.5 -75q0 -65 -40.5 -117.5t-110.5 -79.5zM265 581q41 19 63 43.5t22 49.5q0 12 -7 19q-3 3 -6.5 4.5t-22.5 6.5q-25 7 -39.5 26t-14.5 45
q0 34 24 56.5t60 22.5q41 0 65.5 -28t24.5 -75q0 -65 -40.5 -117.5t-110.5 -79.5z" />
    <glyph glyph-name="cid701" horiz-adv-x="333" 
 />
    <glyph glyph-name="cid702" horiz-adv-x="328" 
d="M144 243q-2 60 -5 108t-9.5 97t-16.5 104t-26 129q-2 12 -4 25.5t-2 21.5q0 58 84 58q83 0 83 -58q0 -8 -0.5 -14t-2.5 -17l-6 -32t-12 -58q-18 -86 -28.5 -175t-13.5 -189h-41zM164 172q35 0 59 -24t24 -59t-24 -59t-59 -24t-59 24t-24 59t24 59t59 24z" />
    <glyph glyph-name="cid703" horiz-adv-x="379" 
d="M164 768l-30 -254h-60l-31 254h121zM336 768l-31 -254h-59l-31 254h121z" />
    <glyph glyph-name="cid704" horiz-adv-x="685" 
d="M75 272v49h123l29 183h-128v49h136l35 215h60l-35 -215h131l35 215h61l-35 -215h122v-49h-130l-29 -183h138v-49h-145l-41 -252h-60l40 252h-131l-41 -252h-60l41 252h-116zM390 321l29 183h-132l-28 -183h131z" />
    <glyph glyph-name="cid705" horiz-adv-x="640" 
d="M298 13q-52 2 -86.5 10.5t-66.5 28.5q-38 23 -58 53.5t-20 64.5q0 27 20.5 42t56.5 15t49 -18q2 -3 3.5 -5.5t2 -7.5t1 -13.5t1.5 -23.5q6 -106 97 -121v314q-60 25 -101 49.5t-66 50t-36 55t-11 65.5q0 55 26 100.5t71 69.5q23 13 50 19.5t67 11.5v55h42v-55
q52 -3 85.5 -10.5t62.5 -23.5q37 -20 56.5 -47.5t19.5 -59.5q0 -27 -19 -42t-54 -15q-38 0 -50 20q-3 4 -4 6.5t-2 7t-1 13v23.5q-1 26 -8.5 46.5t-21.5 34.5q-11 11 -24.5 16t-39.5 7v-284l55.5 -25.5l38 -18t26 -13.5t20.5 -13q90 -60 90 -169q0 -60 -26 -106t-74 -73
q-30 -17 -59 -24.5t-71 -9.5v-85h-42v85zM298 749q-26 -3 -43.5 -11t-31.5 -23q-34 -37 -34 -99q0 -23 5.5 -41.5t18 -34.5t33.5 -30.5t52 -29.5v269zM340 38q35 3 57.5 16.5t39.5 40.5q22 37 22 89q0 26 -6 47t-20 38.5t-36.5 33t-56.5 32.5v-297z" />
    <glyph glyph-name="cid706" horiz-adv-x="863" 
d="M37 574q0 95 49 151t133 56q85 0 134 -55t49 -151t-49.5 -152t-133.5 -56t-133 56t-49 151zM151 574q0 -97 16 -140.5t53 -43.5q36 0 52 43t16 140q0 99 -16 142t-53 43q-35 0 -51.5 -43.5t-16.5 -140.5zM729 759l-564 -757l-30 25l563 756zM461 212q0 95 49 151t132 56
q85 0 134.5 -55t49.5 -152q0 -47 -13 -85t-37 -65t-57.5 -42t-75.5 -15q-84 0 -133 56t-49 151zM575 214q0 -98 16 -141.5t53 -43.5q36 0 52 43t16 140q0 98 -16 141t-53 43q-35 0 -51.5 -43.5t-16.5 -138.5z" />
    <glyph glyph-name="cid707" horiz-adv-x="819" 
d="M789 440v-25q-26 -3 -41 -9t-28 -17l-10.5 -10.5t-10 -14t-13 -25.5l-20.5 -44q-12 -25 -26.5 -50.5t-29.5 -48.5l72 -75l37 -37.5t28 -22.5t25 -11.5t27 -4.5v-25h-202l-71 80q-56 -49 -110.5 -70.5t-124.5 -21.5q-54 0 -98 13.5t-73 39.5q-26 24 -40.5 61.5t-14.5 79.5
q0 75 42 127t134 90q-26 29 -44.5 53t-29.5 45t-16 41.5t-5 41.5q0 29 12 58.5t33 52.5q26 30 72 46t103 16q91 0 145 -40t54 -108q0 -59 -44.5 -102.5t-143.5 -80.5l210 -224q50 79 50 135q0 30 -19 43.5t-66 18.5v25h237zM357 465q26 15 40.5 25.5t27.5 24.5q39 43 39 113
q0 57 -26 89t-72 32q-45 0 -72.5 -31.5t-27.5 -83.5q0 -29 9.5 -54.5t32.5 -56.5l13 -16l15.5 -19.5t13.5 -16t7 -6.5zM267 389q-16 -12 -24.5 -20.5t-16.5 -20.5q-14 -21 -22.5 -51.5t-8.5 -63.5q0 -83 41.5 -132.5t111.5 -49.5q25 0 50.5 6.5t47.5 18.5q15 8 27 18t32 30z
" />
    <glyph glyph-name="cid708" horiz-adv-x="207" 
d="M164 768l-30 -254h-60l-31 254h121z" />
    <glyph glyph-name="cid709" horiz-adv-x="320" 
d="M296 771q-28 -39 -46 -74.5t-32 -80.5q-20 -66 -30.5 -142.5t-10.5 -167.5q0 -198 50 -335q13 -35 29 -65.5t40 -65.5l-19 -16q-45 39 -74 75t-55 82q-42 74 -64 156.5t-22 168.5q0 93 25 181t74 166q23 38 49.5 69t66.5 66z" />
    <glyph glyph-name="cid710" horiz-adv-x="320" 
d="M24 -160q62 86 90.5 198t28.5 268t-28.5 267.5t-90.5 197.5l19 17q44 -39 74 -75t56 -82q85 -150 85 -325q0 -94 -25 -181.5t-73 -165.5q-24 -38 -51 -69t-66 -66z" />
    <glyph glyph-name="cid711" horiz-adv-x="402" 
d="M218 635q10 9 16 15l12.5 12.5l16 16.5l26.5 28q16 17 30 17q20 0 37 -33q10 -17 10 -30q0 -12 -14 -18q-2 -1 -4.5 -2t-7.5 -2.5t-14 -4.5t-24 -7l-32.5 -10l-39.5 -13l20.5 -8t14 -5l15 -4.5l22.5 -6.5q21 -6 34 -10.5t20 -8.5t9 -7.5t2 -9.5q0 -10 -4.5 -21t-11 -20
t-14.5 -15t-15 -6q-15 0 -37 23l-33.5 35t-31.5 31q4 -20 10 -44.5l14 -55.5q4 -12 4 -24q0 -13 -13 -20t-35 -7q-21 0 -33.5 7t-12.5 19q0 5 4 22t10 39q5 20 7.5 32.5l6.5 31.5l-19 -19.5l-49 -52.5q-18 -19 -31 -19q-19 0 -37 31q-10 18 -10 30q0 14 19 21q4 1 22.5 7.5
l51.5 17.5q2 0 8.5 2.5l16.5 6.5q7 2 17 6q-35 14 -56.5 20.5t-38.5 10.5q-25 6 -33 11.5t-8 16.5q0 10 4 21t11 20t14.5 15t15.5 6q4 0 7.5 -1t9 -5t13.5 -12l22 -22l48 -48q-1 8 -2 14t-3 15.5t-6 26l-11 46.5q-2 8 -3 13.5t-1 8.5q0 11 13 18t34 7q20 0 32.5 -6.5
t12.5 -17.5q0 -5 -1 -11t-3 -14q-7 -23 -14 -51.5t-10 -48.5z" />
    <glyph glyph-name="cid712" horiz-adv-x="685" 
d="M373 31h-61v252h-241v57h241v233h61v-233h240v-57h-240v-252z" />
    <glyph glyph-name="cid713" horiz-adv-x="320" 
d="M78 -99q85 44 85 94q0 11 -5.5 16.5t-22.5 9.5q-62 17 -62 73q0 35 23.5 57.5t59.5 22.5q42 0 66.5 -28t24.5 -75q0 -64 -39.5 -116t-108.5 -80z" />
    <glyph glyph-name="cid714" horiz-adv-x="339" 
d="M52 354h235v-84h-235v84z" />
    <glyph glyph-name="cid715" horiz-adv-x="320" 
d="M160 173q35 0 59.5 -24.5t24.5 -59.5q0 -18 -6.5 -33.5t-18 -27t-27 -18t-32.5 -6.5q-35 0 -60 25t-25 60t24.5 59.5t60.5 24.5z" />
    <glyph glyph-name="cid716" horiz-adv-x="394" 
d="M309 768h60l-333 -925h-60z" />
    <glyph glyph-name="cid717" horiz-adv-x="614" 
d="M40 386q0 174 73 284q32 47 82.5 72.5t111.5 25.5q60 0 110.5 -25.5t82.5 -72.5q36 -54 54.5 -125.5t18.5 -158.5t-18.5 -158.5t-54.5 -124.5q-32 -48 -82.5 -73.5t-110.5 -25.5q-61 0 -111.5 25.5t-82.5 73.5q-35 54 -54 126t-19 157zM173 386q0 -96 7.5 -161.5
t24.5 -108.5q33 -87 102 -87q75 0 108 104q14 42 20 103t6 150q0 98 -7.5 162.5t-24.5 107.5q-32 87 -102 87t-102 -85.5t-32 -271.5z" />
    <glyph glyph-name="cid718" horiz-adv-x="614" 
d="M142 48q34 1 49 3t26 9q17 9 23.5 31.5t6.5 70.5v460q0 19 -0.5 29.5t-0.5 16t-0.5 8.5t-1.5 6q-3 17 -16.5 22t-51.5 5h-27v28q72 6 128 13.5t106 16.5q-9 -107 -9 -252v-353q0 -46 5 -67.5t19 -32.5q10 -8 24.5 -10.5t52.5 -3.5v-28h-333v28z" />
    <glyph glyph-name="cid719" horiz-adv-x="614" 
d="M50 20q8 60 23.5 106t43.5 89q14 22 31 42.5t39.5 43.5t53.5 50.5l74 63.5q35 29 53.5 49.5t29.5 42.5q21 43 21 92q0 66 -32 105t-86 39q-70 0 -93 -67q-3 -9 -5 -16.5t-3 -17t-1.5 -23t-1.5 -34.5q-2 -29 -16.5 -42t-47.5 -13q-71 0 -71 53q0 41 21.5 77.5t61.5 63.5
q67 45 166 45q114 0 177.5 -48.5t63.5 -136.5q0 -74 -45 -126q-16 -19 -44 -39.5t-66 -42.5l-82 -46.5t-54.5 -33.5t-38.5 -27.5t-33 -28.5q-30 -27 -46.5 -51t-32.5 -62h290q31 0 52.5 5.5t36 19t24 35.5t16.5 56l34 -7l-35 -216h-478z" />
    <glyph glyph-name="cid720" horiz-adv-x="614" 
d="M324 403q230 -18 230 -193q0 -97 -69.5 -151.5t-191.5 -54.5q-53 0 -98 11.5t-77.5 32t-51 49t-18.5 62.5q0 29 20 44.5t55 15.5q38 0 51 -19q2 -3 3.5 -5.5t2 -8t1 -15.5t1.5 -27q1 -21 8.5 -43.5t18.5 -36.5q12 -16 34 -25t48 -9q63 0 96.5 47.5t33.5 135.5
q0 105 -55 145q-20 14 -54.5 23t-75.5 9h-30v31h28q172 2 172 173q0 73 -27 111t-81 38q-57 0 -79 -42q-18 -34 -20 -81q-1 -25 -3 -33.5t-9 -16.5q-15 -15 -52 -15q-70 0 -70 49q0 35 18 65t50 52.5t75 35t93 12.5q54 0 100 -14.5t78 -40.5q26 -22 40.5 -54.5t14.5 -68.5
q0 -74 -54.5 -120.5t-155.5 -59.5v-8z" />
    <glyph glyph-name="cid721" horiz-adv-x="614" 
d="M457 146q0 -31 3 -50t13 -29.5t27.5 -14.5t46.5 -4v-28h-301v27q35 2 48 4t22 10q21 15 21 85v71h-323v48l350 497h93v-500h107v-45h-107v-71zM337 658l-278 -396h278v396z" />
    <glyph glyph-name="cid722" horiz-adv-x="614" 
d="M128 392q46 43 91 62t102 19q55 0 98.5 -15.5t74.5 -45t47.5 -71t16.5 -93.5q0 -56 -19 -101t-54.5 -77t-85.5 -49t-112 -17q-49 0 -91.5 11t-74 30.5t-49.5 46t-18 57.5q0 58 71 58q36 0 50 -17q5 -6 7 -14.5t3 -30.5q1 -54 28 -82q14 -16 34.5 -24.5t43.5 -8.5
q62 0 98 51q18 28 28 67.5t10 86.5q0 95 -37 147t-105 52q-50 0 -94 -29t-74 -80l-33 8l33 420h409l-18 -112h-360z" />
    <glyph glyph-name="cid723" horiz-adv-x="614" 
d="M183 422q40 38 76 53t86 15t91.5 -16.5t71 -47t45.5 -73t16 -94.5q0 -57 -18.5 -104t-52.5 -80.5t-81 -52t-105 -18.5q-128 0 -195 91t-67 266q0 102 20.5 182t58.5 131q71 95 203 95q45 0 84 -9.5t67.5 -26.5t44.5 -40t16 -50t-19 -42.5t-53 -15.5q-19 0 -33.5 5
t-21.5 14q-2 3 -3.5 5.5t-2 8t-1.5 14.5t-2 24q-2 43 -23 65.5t-56 22.5q-46 0 -77.5 -33.5t-47.5 -98.5q-10 -41 -15.5 -91.5t-5.5 -98.5zM312 457q-33 0 -62.5 -18.5t-48.5 -51.5q-11 -18 -15.5 -41.5t-4.5 -58.5q0 -51 8 -98t24 -84q15 -35 42 -55.5t59 -20.5
q57 0 89.5 60t32.5 167q0 94 -33 147.5t-91 53.5z" />
    <glyph glyph-name="cid724" horiz-adv-x="614" 
d="M193 646q-32 0 -48.5 -8.5t-30.5 -31.5q-9 -14 -15.5 -34.5t-14.5 -54.5l-33 4l31 232h478v-71q-54 -79 -93.5 -153t-65.5 -148q-16 -43 -28 -88t-20 -89q-3 -18 -4.5 -29.5l-3 -24t-2.5 -30.5t-2 -50q-1 -40 -20 -54q-21 -16 -64 -16q-66 0 -66 48q0 25 9.5 61.5
t27.5 82t43.5 97t57.5 106.5q15 27 31 53l35 56l42.5 64.5l53.5 77.5h-298z" />
    <glyph glyph-name="cid725" horiz-adv-x="614" 
d="M389 429q93 -41 134.5 -92t41.5 -123q0 -48 -19 -87t-53.5 -66t-84 -42t-110.5 -15q-117 0 -183.5 49t-66.5 136q0 44 19 81.5t55 65.5q18 14 38 24t52 23q-39 21 -66.5 41t-44.5 41.5t-24.5 46.5t-7.5 56q0 46 17 83t48.5 63t76 40.5t99.5 14.5q51 0 93 -12.5t71.5 -36
t46 -55.5t16.5 -71q0 -121 -148 -165zM359 442q20 11 30.5 19.5t21.5 22.5q16 22 23.5 48t7.5 61q0 24 -6 48.5t-17 42.5q-17 28 -46.5 43t-67.5 15q-60 0 -94 -34t-34 -92q0 -38 17.5 -66t55.5 -54q11 -7 26.5 -15l38.5 -19zM244 367q-23 -12 -35.5 -21.5t-23.5 -23.5
q-19 -22 -29 -53.5t-10 -67.5q0 -78 43.5 -124.5t115.5 -46.5q33 0 60 10.5t46.5 29.5t30 45.5t10.5 58.5q0 38 -16.5 66.5t-54.5 55.5q-15 11 -38.5 24t-53.5 27q-5 2 -12.5 5.5l-14.5 6.5l-12.5 5.5z" />
    <glyph glyph-name="cid726" horiz-adv-x="614" 
d="M430 351q-40 -38 -76.5 -53.5t-85.5 -15.5q-50 0 -91 17t-70.5 47.5t-46 73t-16.5 94.5q0 57 18.5 104t52.5 80.5t81.5 52t105.5 18.5q66 0 116.5 -25t82.5 -73q33 -49 48 -111t15 -148q0 -201 -71.5 -304.5t-210.5 -103.5q-46 0 -85 9.5t-67.5 26.5t-44.5 40.5t-16 50.5
q0 29 19 45.5t53 16.5q19 0 33.5 -5t21.5 -14q2 -3 3.5 -6t2 -8.5t1.5 -14.5t2 -25q6 -91 80 -91q45 0 76.5 33.5t47.5 98.5q10 40 15.5 91t5.5 99zM301 315q32 0 62 19t49 51q11 19 15.5 42.5t4.5 58.5q0 51 -8.5 98t-23.5 84q-15 35 -42 55.5t-59 20.5q-57 0 -89.5 -60
t-32.5 -167q0 -102 39 -156q34 -46 85 -46z" />
    <glyph glyph-name="cid727" horiz-adv-x="320" 
d="M160 173q35 0 59.5 -24.5t24.5 -59.5q0 -18 -6.5 -33.5t-18 -27t-27 -18t-32.5 -6.5q-35 0 -60 25t-25 60t24.5 59.5t60.5 24.5zM160 556q35 0 59.5 -24.5t24.5 -59.5q0 -36 -24.5 -60.5t-60.5 -24.5q-35 0 -59.5 24.5t-24.5 60.5q0 35 24.5 59.5t60.5 24.5z" />
    <glyph glyph-name="cid728" horiz-adv-x="320" 
d="M160 556q35 0 59.5 -24.5t24.5 -59.5q0 -36 -24.5 -60.5t-59.5 -24.5q-36 0 -60.5 25t-24.5 60t24.5 59.5t60.5 24.5zM77 -99q85 44 85 94q0 11 -5.5 16.5t-22.5 9.5q-62 17 -62 73q0 35 23.5 57.5t59.5 22.5q42 0 66.5 -28t24.5 -75q0 -64 -39.5 -116t-108.5 -80z" />
    <glyph glyph-name="cid729" horiz-adv-x="500" 
d="M481 104v-70l-457 265v26l457 264v-70l-377 -207z" />
    <glyph glyph-name="cid730" horiz-adv-x="685" 
d="M613 434v-57h-542v57h542zM613 245v-57h-542v57h542z" />
    <glyph glyph-name="cid731" horiz-adv-x="500" 
d="M18 519v70l457 -264v-26l-457 -265v70l377 208z" />
    <glyph glyph-name="cid732" horiz-adv-x="626" 
d="M269 236q-1 8 -1 14v11q0 27 4 49.5t13 44t24 42.5t38 45l24 27.5t17 20.5t11.5 17.5l9.5 17.5q19 42 19 90q0 66 -32 104.5t-86 38.5q-29 0 -53 -12t-36 -32q-10 -16 -16.5 -40.5t-6.5 -43.5l1 -39q0 -47 -64 -47q-74 0 -74 53q0 54 34.5 97.5t95.5 67.5q57 22 132 22
q112 0 176.5 -48t64.5 -132q0 -67 -43 -113q-8 -9 -16 -16t-18.5 -14.5t-25 -17t-35.5 -21.5q-35 -21 -57 -38.5t-35 -38t-18.5 -46.5t-7.5 -63h-39zM290 171q35 0 59 -24t24 -59t-24 -59t-59 -24q-17 0 -32.5 6.5t-26.5 18t-17.5 26.5t-6.5 33q0 34 24 58t59 24z" />
    <glyph glyph-name="cid733" horiz-adv-x="875" 
d="M730 99q-35 -25 -68.5 -43t-68.5 -29t-72.5 -16.5t-79.5 -5.5q-90 0 -162.5 25t-123 72t-77.5 113.5t-27 150.5q0 90 31.5 165.5t87.5 130.5t133 85.5t169 30.5q78 0 143 -24t111.5 -68t72.5 -105t26 -134q0 -61 -19 -114.5t-52.5 -93t-78.5 -62t-97 -22.5q-38 0 -60 17
t-22 46q0 5 0.5 11t1.5 13q-62 -83 -142 -83q-54 0 -84 38.5t-30 105.5q0 83 34.5 159t94.5 125q31 24 66 37t73 13q41 0 76 -33l6 23h100l-22.5 -80l-22 -83.5l-20 -80.5t-16 -71t-10.5 -54.5t-4 -31.5q0 -26 25 -26q51 0 100 54q70 78 70 195q0 63 -20.5 117t-61.5 96
q-43 44 -102.5 68.5t-124.5 24.5q-60 0 -113 -19.5t-95 -57.5q-60 -54 -92 -131.5t-32 -169.5q0 -79 24 -145t71 -114q79 -81 213 -81q36 0 68 4.5t62.5 14.5t61.5 25.5t65 37.5zM399 200q19 0 42 22t43 60q13 25 26.5 60.5t24 73t17 72.5t6.5 58q0 67 -44 67
q-26 0 -53 -24.5t-50 -69.5q-26 -51 -40.5 -114.5t-14.5 -122.5q0 -39 11.5 -60.5t31.5 -21.5z" />
    <glyph glyph-name="cid734" horiz-adv-x="787" 
d="M194 197q-22 -56 -22 -92q0 -29 22 -43t72 -16v-26h-257v26q24 0 43.5 8.5t37 27t33 48.5t32.5 74l213 564l74 8l218 -613q17 -47 32.5 -72t32.5 -34q8 -4 18 -6t35 -5v-26h-326v26q48 2 67 12.5t19 35.5v3q-1 12 -4.5 29.5t-10.5 36.5l-38 110h-263zM358 637l-122 -325
h236z" />
    <glyph glyph-name="cid735" horiz-adv-x="704" 
d="M30 46q30 1 48 4.5t27.5 14t12 30.5t2.5 55v488q0 34 -3 54.5t-12 31.5t-27 14.5t-48 3.5v26h313q149 0 218 -41t69 -129q0 -80 -50 -120.5t-165 -53.5v-7q241 -12 241 -194q0 -54 -18.5 -92.5t-58.5 -63t-102.5 -36t-150.5 -11.5h-296v26zM333 435q78 0 118.5 39.5
t40.5 117.5q0 147 -166 147h-77v-304h84zM325 49q188 0 188 179q0 51 -16.5 89t-48.5 59q-20 13 -50.5 20t-67.5 7h-81v-354h76z" />
    <glyph glyph-name="cid736" horiz-adv-x="741" 
d="M633 517q-8 49 -20 81.5t-33 62.5q-31 45 -75 69t-93 24q-48 0 -89 -23t-66 -65q-58 -97 -58 -261q0 -83 16.5 -149.5t47 -113t74.5 -71.5t99 -25q57 0 107.5 26.5t87.5 76.5q13 17 23 35.5t21 46.5l29 -16q-41 -107 -114.5 -159t-185.5 -52q-72 0 -136 24.5t-110 69.5
q-51 50 -77 123.5t-26 164.5q0 90 25 163.5t71 125.5t111 80t145 28q19 0 34.5 -1t33.5 -4t40.5 -9l57.5 -15q21 -6 42 -6q11 0 20.5 2.5t33.5 10.5v-244h-36z" />
    <glyph glyph-name="cid737" horiz-adv-x="797" 
d="M30 46q30 1 48 4.5t27.5 14t12 30.5t2.5 55v488q0 34 -3 54.5t-12 31.5t-27 14.5t-48 3.5v26h301q86 0 151.5 -13.5t110.5 -41.5q75 -45 110.5 -120t35.5 -187q0 -122 -38.5 -206t-115.5 -127q-91 -53 -266 -53h-289v26zM321 49q65 0 116.5 18t82.5 51q39 41 59 109.5
t20 161.5q0 85 -16 147.5t-48 109.5q-65 93 -225 93h-60v-690h71z" />
    <glyph glyph-name="cid738" horiz-adv-x="660" 
d="M30 46q30 1 48 4.5t27.5 14t12 30.5t2.5 55v488q0 34 -3 54.5t-12 31.5t-27 14.5t-48 3.5v26h549l18 -213l-35 -1q-8 52 -22.5 87.5t-40 57t-62.5 31t-90 9.5h-98v-314h72q40 0 66.5 4.5t42.5 17.5t24 35.5t12 57.5h32v-261h-32q-5 36 -13 59t-23.5 36t-42 17.5
t-66.5 4.5h-72v-347h110q51 0 87.5 10.5t62.5 35t42.5 64t27.5 98.5l33 -4l-21 -233h-561v26z" />
    <glyph glyph-name="cid739" horiz-adv-x="624" 
d="M249 150q0 -34 3 -54.5t12.5 -31t28 -14t50.5 -4.5v-26h-313v26q31 1 49 4.5t27 14t11.5 30.5t2.5 55v488q0 34 -3 54.5t-12 31.5t-27 14.5t-48 3.5v26h549l15 -207l-35 -3q-9 51 -24.5 85.5t-41 55.5t-62.5 30.5t-89 9.5h-93v-316h77q40 0 66 5t42 17.5t24 35t12 57.5
h32v-261h-32q-5 36 -12.5 59t-23.5 36t-42 17.5t-66 4.5h-77v-244z" />
    <glyph glyph-name="cid740" horiz-adv-x="785" 
d="M761 369v-26q-27 -1 -41 -4.5t-22 -11.5q-9 -8 -12 -26.5t-3 -62.5v-85v-33.5t0.5 -24l1 -20.5t1.5 -22l-31.5 -3.5t-26.5 -4t-27.5 -6t-32.5 -8.5q-27 -8 -48.5 -13t-41 -8t-37.5 -4.5t-38 -1.5q-82 0 -146.5 25.5t-109.5 74t-68.5 118.5t-23.5 159q0 92 25.5 166
t72 126.5t112.5 81t147 28.5q19 0 34.5 -1t32 -3.5t37 -7l50.5 -11.5q22 -6 45 -6q14 0 27 2.5t32 10.5v-232l-37 -1q-8 45 -19 77t-31 59q-29 42 -71 63.5t-92 21.5q-59 0 -103.5 -28.5t-70.5 -83.5q-47 -99 -47 -243q0 -105 24.5 -189t68.5 -129q50 -50 127 -50q23 0 48 5
t50 16q14 5 22 10t19 15v171q0 31 -2.5 49t-12 27.5t-28 13t-49.5 4.5v26h295z" />
    <glyph glyph-name="cid741" horiz-adv-x="833" 
d="M250 150q0 -35 2.5 -55t12 -30.5t27.5 -14t49 -4.5v-26h-311v26q31 1 49 4.5t27 14t11.5 30.5t2.5 55v489q0 34 -2.5 54t-11.5 30.5t-26 14t-46 4.5v26h303v-26q-30 -1 -47 -4.5t-26 -14t-11.5 -30.5t-2.5 -54v-205h332v205q0 34 -2.5 54t-11.5 30.5t-26 14t-47 4.5v26
h304v-26q-30 -1 -47 -4.5t-26 -14t-11.5 -30.5t-2.5 -54v-489q0 -35 2.5 -55t11.5 -30.5t27 -14t49 -4.5v-26h-311v26q31 1 49 4.5t27.5 14t12 30.5t2.5 55v251h-332v-251z" />
    <glyph glyph-name="cid742" horiz-adv-x="389" 
d="M35 46q33 1 51.5 4.5t28.5 14t12.5 30.5t2.5 55v488q0 34 -2.5 54t-12 31t-27.5 14.5t-49 4.5v26h312v-26q-31 -1 -49 -4.5t-27.5 -14.5t-12 -31t-2.5 -54v-488q0 -35 2.5 -55t12.5 -30.5t29 -14t51 -4.5v-26h-320v26z" />
    <glyph glyph-name="cid743" horiz-adv-x="507" 
d="M477 768v-26q-31 -1 -49 -4.5t-27.5 -14.5t-12 -31t-2.5 -54v-320v-34.5t1 -46.5q1 -11 1 -19v-15q0 -91 -45 -140q-27 -29 -68 -44t-93 -15q-38 0 -69 7.5t-53.5 20.5t-35 31t-12.5 40q0 27 23 44.5t59 17.5q17 0 30.5 -5.5t18.5 -15.5q2 -3 3 -5.5t1.5 -6.5t1 -11.5
t1.5 -20.5q2 -33 14.5 -51t35.5 -18q31 0 43 34.5t12 122.5v450q0 34 -3 54t-12.5 31t-28.5 14.5t-51 4.5v26h317z" />
    <glyph glyph-name="cid744" horiz-adv-x="758" 
d="M250 150q0 -35 2.5 -55t11.5 -30.5t27 -14t49 -4.5v-26h-310v26q31 1 49 4.5t27 14t11.5 30.5t2.5 55v488q0 34 -2.5 54t-11.5 31t-26 14.5t-46 4.5v26h302v-26q-29 -1 -46 -4.5t-26 -14.5t-11.5 -31t-2.5 -54v-272l207 231q33 37 47.5 60.5t14.5 41.5q0 21 -16 30.5
t-58 12.5v26h276v-26q-27 -2 -50.5 -10t-48 -24.5t-52.5 -43.5t-64 -66l-99 -108l220 -346q32 -51 60 -73t64 -26v-25h-210q-5 11 -8 18.5t-8.5 16.5l-14 23l-23.5 39l-167 278l-70 -79v-166z" />
    <glyph glyph-name="cid745" horiz-adv-x="614" 
d="M30 46q32 1 51 4.5t28.5 14.5t12.5 31t3 54v488q0 34 -2.5 54t-12 31t-27.5 14.5t-49 4.5v26h312v-26q-31 -1 -49 -4.5t-27.5 -14.5t-12 -31t-2.5 -54v-589h92q63 0 106 19t70 58q16 25 26.5 54t20.5 79l35 -4l-23 -235h-552v26z" />
    <glyph glyph-name="cid746" horiz-adv-x="975" 
d="M162 219q0 -57 4 -87t14 -48q12 -20 30 -28t56 -10v-26h-249v26q31 2 51.5 10.5t32 28t16 52t4.5 82.5v421q0 41 -4.5 59t-17.5 28q-9 8 -22.5 11t-42.5 4v26h239l219 -564l222 564h229v-26q-30 -1 -47.5 -4.5t-26 -14t-11 -31t-2.5 -55.5v-488q0 -34 2.5 -54t11.5 -30.5
t27 -14t49 -4.5v-26h-309v26q30 1 48 4.5t27.5 14t12 30.5t2.5 54v552l-258 -662h-52l-255 654v-474z" />
    <glyph glyph-name="cid747" horiz-adv-x="805" 
d="M163 212q0 -50 4 -81t15.5 -49t32 -25.5t52.5 -9.5v-27h-251v27q32 1 52.5 9.5t32.5 27.5t16.5 52t4.5 84v397q0 37 -4 60t-14.5 37t-29.5 20t-49 8v26h209l408 -576v376q0 57 -4 87.5t-15 47.5q-11 20 -30 28t-57 10v27h253v-27q-36 -2 -54.5 -10t-30.5 -28
q-21 -34 -21 -128v-559h-74l-446 638v-442z" />
    <glyph glyph-name="cid748" horiz-adv-x="815" 
d="M55 394q0 79 21.5 148.5t63.5 122.5q44 57 113.5 87.5t154.5 30.5q84 0 153 -30.5t114 -87.5q42 -51 63.5 -121.5t21.5 -149.5q0 -80 -21.5 -150.5t-63.5 -121.5q-45 -57 -114 -87.5t-153 -30.5t-153.5 30.5t-114.5 87.5q-41 51 -63 122t-22 150zM201 394
q0 -88 12.5 -152.5t38.5 -116.5q49 -94 156 -94q106 0 155 94q26 51 38.5 115.5t12.5 153.5q0 88 -12.5 152.5t-38.5 115.5q-49 94 -155 94q-107 0 -156 -94q-26 -51 -38.5 -116t-12.5 -152z" />
    <glyph glyph-name="cid749" horiz-adv-x="653" 
d="M249 149q0 -34 3 -54t12.5 -30.5t28.5 -14t52 -4.5v-26h-316v26q31 1 49 4.5t27 14t11.5 30.5t2.5 54v489q0 34 -2.5 54t-11.5 30.5t-26 14t-46 5.5v26h301q153 0 223 -49.5t70 -158.5q0 -151 -128 -199q-33 -12 -85.5 -19t-115.5 -7h-49v-186zM301 364q94 0 138 41
q24 23 36.5 61.5t12.5 87.5q0 185 -175 185h-64v-375h52z" />
    <glyph glyph-name="cid750" horiz-adv-x="815" 
d="M791 -12q-41 -26 -78 -38.5t-77 -12.5q-42 0 -73.5 18t-65.5 61q-25 -7 -44.5 -9.5t-45.5 -2.5q-78 0 -143 25.5t-112 76.5q-97 102 -97 279q0 88 23 160.5t68 126.5q45 55 111.5 83t149.5 28q81 0 146 -26.5t110.5 -75.5t70 -119.5t24.5 -157.5q0 -155 -69 -260
q-17 -26 -35 -44.5t-47 -39.5q27 -35 52.5 -51.5t53.5 -16.5q33 0 72 19zM240 161q14 54 47.5 83t84.5 29q54 0 98.5 -34.5t92.5 -114.5q14 30 20 46l11 30q10 33 15.5 83.5t5.5 105.5q0 161 -47 261q-25 51 -67.5 78.5t-97.5 27.5q-51 0 -90 -24t-62 -69q-53 -101 -53 -270
q0 -48 5 -90.5t14 -73.5q1 -2 5 -15.5t12 -35.5q3 -7 6 -17zM479 44l-22 38l-16 26t-13.5 20t-14.5 19q-22 29 -43 41.5t-45 12.5q-55 0 -65 -73q8 -23 15.5 -36t23.5 -25q22 -18 50 -27.5t58 -9.5q38 0 72 14z" />
    <glyph glyph-name="cid751" horiz-adv-x="726" 
d="M251 149q0 -34 2.5 -54t11.5 -30.5t27 -14t49 -4.5v-26h-310v26q31 1 49 4.5t27 14t11.5 30.5t2.5 54v489q0 34 -2.5 54t-11.5 30.5t-26 14t-46 5.5v26h306q63 0 113.5 -8t80.5 -22q48 -23 70 -59.5t22 -92.5q0 -91 -57 -139t-176 -57v-8q39 -5 68 -17.5t56 -35.5
q12 -11 22.5 -23t21 -31t23.5 -47l31 -70q15 -34 26 -55.5t22.5 -34t24 -18t30.5 -6.5v-24h-197l-32 93t-26.5 73.5t-23.5 57.5t-22 46q-24 46 -51.5 64.5t-75.5 18.5h-40v-224zM305 402q90 0 136.5 43.5t46.5 128.5t-43 125t-133 40h-61v-337h54z" />
    <glyph glyph-name="cid752" horiz-adv-x="594" 
d="M62 255h40q11 -113 56 -167t130 -54q66 0 103.5 36.5t37.5 101.5q0 25 -8 46.5t-27 41t-50.5 39.5t-78.5 43q-32 15 -53 26l-35.5 18.5t-24 14l-18.5 12.5q-43 32 -62.5 69.5t-19.5 89.5q0 62 31.5 111.5t86.5 75.5q49 23 128 23q12 0 22 -0.5t23 -2.5l31 -5t46 -9
q19 -4 35 -4q12 0 24.5 3t35.5 11l-8 -224h-40q-3 43 -10.5 71t-23.5 54q-23 38 -58 58.5t-80 20.5q-58 0 -94 -36t-36 -94q0 -51 33 -84q9 -9 19.5 -17t25 -16.5t35 -19t50.5 -24.5q33 -15 58.5 -28.5t45 -25.5t34.5 -23.5t28 -24.5q52 -54 52 -139q0 -51 -18 -93t-52 -68
q-72 -57 -183 -57q-15 0 -28 0.5t-28 2.5t-33.5 5.5l-45.5 8.5q-18 3 -38 3q-13 0 -26 -2t-40 -7z" />
    <glyph glyph-name="cid753" horiz-adv-x="698" 
d="M414 150q0 -35 3 -55t13.5 -30.5t31.5 -14t56 -4.5v-26h-339v26q35 1 55.5 4.5t31 14t13.5 30.5t3 55v592q-67 -2 -106 -15t-65 -43q-21 -24 -35 -64.5t-25 -107.5l-36 2l19 254h629l19 -254l-36 -2q-12 73 -28 115t-41 65q-26 25 -63.5 36.5t-99.5 13.5v-592z" />
    <glyph glyph-name="cid754" horiz-adv-x="791" 
d="M326 768v-26q-29 -1 -46 -4.5t-26 -14.5t-11.5 -31t-2.5 -54v-316q0 -71 8 -116t28 -78q49 -83 158 -83q63 0 109.5 28.5t69.5 82.5q12 29 18.5 74.5t6.5 104.5v233q0 53 -4 86t-15.5 52t-31.5 26t-52 9v27h246v-27q-31 -2 -51 -9.5t-31 -27t-15.5 -52.5t-4.5 -84v-234
q0 -40 -2 -71.5t-7 -57.5t-12.5 -47t-18.5 -39q-35 -60 -92 -87.5t-143 -27.5q-85 0 -147 24.5t-99 72.5q-14 18 -23 36.5t-14.5 41.5t-8 52t-2.5 67v340q0 34 -2.5 54t-11.5 31t-26 14.5t-47 4.5v26h303z" />
    <glyph glyph-name="cid755" horiz-adv-x="782" 
d="M127 617q-14 37 -25 60t-23.5 36.5t-29 19.5t-40.5 9v26h326v-26q-5 -1 -10 -1t-8 -1q-25 -2 -37.5 -6t-20.5 -12q-5 -5 -8 -12t-3 -15q0 -15 5 -36.5t16 -53.5l159 -460l161 447q21 58 21 94t-38 48q-11 3 -24 4.5t-33 3.5v26h259v-26q-29 -2 -46 -9.5t-34 -24.5
q-34 -36 -67 -124l-206 -568h-80z" />
    <glyph glyph-name="cid756" horiz-adv-x="1050" 
d="M344 16h-82l-149 597q-11 44 -21.5 68.5t-23.5 38.5q-9 10 -22 15t-37 8v25h309v-25q-31 -2 -44 -5t-22 -11q-18 -12 -18 -41q0 -14 3 -34.5t11 -49.5l104 -432l169 584h90l154 -581l107 410q7 25 10.5 49t3.5 41q0 47 -45 62q-17 5 -53 8v25h253v-25q-26 -4 -45 -13
t-33.5 -28t-26.5 -50t-25 -79l-151 -557h-79l-161 594z" />
    <glyph glyph-name="cid757" horiz-adv-x="752" 
d="M601 165q20 -32 36.5 -53.5t32.5 -35t33.5 -20.5t40.5 -10v-26h-323v26q40 2 55 9.5t15 24.5v3q-1 11 -10 31.5t-29 51.5l-113 179l-110 -163q-39 -57 -39 -89q0 -23 18 -33t66 -14v-26h-265v26q84 7 169 131l139 204l-156 245q-21 34 -37.5 55.5t-31.5 34t-31.5 18.5
t-38.5 8v26h322v-26q-39 -2 -55.5 -9t-16.5 -24q0 -23 42 -90l98 -157l100 149q17 26 27.5 50.5t10.5 38.5q0 20 -17 29.5t-62 12.5v26h264v-26q-26 -2 -48.5 -11t-44.5 -26t-44.5 -43t-47.5 -62l-117 -170z" />
    <glyph glyph-name="cid758" horiz-adv-x="759" 
d="M437 150q0 -35 3 -55t13.5 -30.5t30.5 -14t55 -4.5v-26h-334v26q35 1 55 4.5t30.5 14t13.5 30.5t3 55v190l-184 303q-17 28 -30.5 46t-26 29t-26 16.5t-31.5 7.5v26h315v-26q-41 -2 -58.5 -11.5t-17.5 -29.5q0 -13 6 -27.5t26 -45.5l135 -225l135 216q28 48 28 74
q0 14 -9 24.5t-24 15.5q-13 4 -24 5.5t-34 3.5v26h264v-26q-24 -3 -44.5 -10.5t-39 -22.5t-37.5 -39t-41 -59l-152 -240v-221z" />
    <glyph glyph-name="cid759" horiz-adv-x="667" 
d="M363 49q116 0 172 63q23 27 37 62.5t25 95.5l36 -5l-25 -245h-580v36l441 683h-142q-60 0 -99.5 -13.5t-66.5 -44.5q-23 -26 -38 -59t-28 -91l-35 4l25 233h533v-36l-442 -683h187z" />
    <glyph glyph-name="cid760" horiz-adv-x="320" 
d="M296 743h-56q-14 0 -23 -2.5t-13.5 -9.5t-6 -21t-1.5 -36v-737q0 -23 1.5 -36.5t6 -20.5t13.5 -9.5t23 -2.5h56v-25h-206v925h206v-25z" />
    <glyph glyph-name="cid761" horiz-adv-x="394" 
d="M358 -157l-333 925h60l333 -925h-60z" />
    <glyph glyph-name="cid762" horiz-adv-x="320" 
d="M25 -132h56q14 0 23 2.5t13.5 9.5t6 20.5t1.5 36.5v737q0 22 -1.5 36t-6 21t-13.5 9.5t-23 2.5h-56v25h206v-925h-206v25z" />
    <glyph glyph-name="cid763" horiz-adv-x="500" 
d="M76 396h-69l229 382h26l230 -382h-69l-174 306z" />
    <glyph glyph-name="cid764" horiz-adv-x="500" 
d="M500 -67v-51h-500v51h500z" />
    <glyph glyph-name="cid765" horiz-adv-x="500" 
d="M314 621l-32 -19l-142 149l3 19h122z" />
    <glyph glyph-name="cid766" horiz-adv-x="575" 
d="M547 23q-45 -5 -81.5 -8.5t-56.5 -3.5q-24 0 -33.5 15t-13.5 61q-39 -42 -80.5 -61.5t-90.5 -19.5q-72 0 -113 39.5t-41 107.5q0 129 160 160q37 7 77 12t87 7v65q0 40 -4 66t-13 42t-24 22.5t-37 6.5q-47 0 -67 -34q-8 -13 -11 -27.5t-5 -43.5q-2 -27 -15.5 -38
t-45.5 -11q-70 0 -70 46q0 26 16.5 50.5t45.5 42.5q61 38 164 38q104 0 148 -41q20 -20 29.5 -48.5t9.5 -75.5l-1 -87l-1 -87q-1 -21 -1 -35v-19q0 -41 1.5 -64.5t8.5 -35t20.5 -14.5t37.5 -3v-24zM361 309q-54 -4 -91.5 -13.5t-61 -26t-33.5 -41.5t-10 -60q0 -54 22 -86
t59 -32q30 0 56.5 17.5t40.5 48.5q10 20 14 46.5t4 69.5v77z" />
    <glyph glyph-name="cid767" horiz-adv-x="629" 
d="M121 18h-36q1 17 2 30.5t1.5 30t0.5 38.5v57v474q0 33 -2 52.5t-10 29t-23.5 12.5t-41.5 3v23l205 11q-3 -60 -4.5 -108.5t-1.5 -96.5v-106q30 47 66.5 68t88.5 21q103 0 160 -69t57 -194q0 -136 -63 -212.5t-175 -76.5q-51 0 -93 16.5t-84 54.5zM208 267
q0 -57 6.5 -98.5t20.5 -71.5t42 -49t60 -19q56 0 84.5 62.5t28.5 185.5t-27 186t-81 63q-32 0 -59 -21t-44 -57q-16 -36 -23.5 -80t-7.5 -101z" />
    </font>
</defs>
</svg>
